<svg width="150" height="136" viewBox="0 0 150 136" fill="none" xmlns="http://www.w3.org/2000/svg">
    <g opacity="0.4">
        <path d="M141.007 7.61719H40.731C36.9922 7.61719 33.9614 10.648 33.9614 14.3867V126.533C33.9614 130.271 36.9922 133.302 40.731 133.302H141.007C144.745 133.302 147.776 130.271 147.776 126.533V14.3867C147.776 10.648 144.745 7.61719 141.007 7.61719Z" fill="white"/>
        <path d="M147.774 21.233V119.686C147.774 127.206 142.254 133.302 135.447 133.302H46.2941C39.7829 133.302 34.4483 127.716 34.0049 120.664H120.193C127.005 120.664 132.521 114.568 132.521 107.048V8.59474C132.521 8.26307 132.521 7.94187 132.482 7.61719H135.45C142.258 7.61719 147.774 13.7129 147.774 21.233Z" fill="#D8D9DD"/>
        <path d="M141.007 135.397H40.735C38.3837 135.396 36.1289 134.462 34.4656 132.8C32.8023 131.138 31.8665 128.884 31.8638 126.533V14.3867C31.8665 12.0366 32.8013 9.78358 34.4631 8.12181C36.1249 6.46003 38.3779 5.52523 40.728 5.52246H141.007C143.357 5.52616 145.609 6.46137 147.27 8.12304C148.931 9.78471 149.865 12.0372 149.868 14.3867V126.533C149.865 128.882 148.931 131.135 147.27 132.796C145.609 134.458 143.357 135.393 141.007 135.397ZM40.735 9.71196C39.4946 9.71195 38.3048 10.2043 37.427 11.0807C36.5492 11.9572 36.0551 13.1463 36.0533 14.3867V126.533C36.0551 127.772 36.5482 128.96 37.4245 129.836C38.3008 130.712 39.4888 131.205 40.728 131.207H141.007C142.246 131.205 143.433 130.711 144.308 129.835C145.184 128.959 145.677 127.771 145.678 126.533V14.3867C145.677 13.1475 145.183 11.9595 144.307 11.0832C143.431 10.2069 142.243 9.7138 141.004 9.71196H40.735Z" fill="#515265"/>
        <path d="M6.2974 3.13698C8.21881 1.82523 10.5826 1.33034 12.8688 1.76114C15.155 2.19194 17.1766 3.51315 18.4888 5.43422L69.2585 79.7663C75.1225 88.3533 79.6564 97.7765 82.7068 107.717L83.3038 109.665C83.5188 110.404 83.4938 111.192 83.2325 111.915C82.9712 112.639 82.487 113.261 81.8496 113.692C81.2123 114.123 80.4546 114.34 79.6858 114.313C78.9169 114.286 78.1765 114.015 77.5712 113.541L76.2166 112.493C67.865 105.956 60.5701 98.1709 54.5883 89.4126L4.00365 15.3249C2.69267 13.4042 2.19786 11.0416 2.62796 8.75621C3.05806 6.47085 4.37788 4.44973 6.2974 3.13698Z" fill="#B2B2BB"/>
        <path d="M83.0892 110.811C83.1117 111.502 82.9365 112.186 82.5841 112.781C82.2317 113.376 81.7168 113.859 81.0998 114.171C80.4827 114.484 79.7893 114.614 79.1009 114.546C78.4124 114.479 77.7576 114.216 77.2134 113.789L75.8588 112.742C67.5008 106.206 60.1999 98.4206 54.2131 89.6609L3.63889 15.5732C2.84091 14.4032 2.33786 13.0576 2.17269 11.6511C2.00753 10.2446 2.18515 8.81903 2.69039 7.49607C3.19564 6.1731 4.0135 4.99204 5.07416 4.05369C6.13483 3.11535 7.4068 2.44759 8.7815 2.10742C7.75125 3.56846 7.19211 5.30945 7.17901 7.09715C7.16591 8.88485 7.69946 10.6339 8.70818 12.1098L59.2963 86.1801C65.2831 94.9399 72.584 102.725 80.942 109.261L82.2967 110.308C82.5391 110.508 82.8053 110.677 83.0892 110.811Z" fill="#8B8C98"/>
        <path d="M33.6091 40.5721C34.2151 40.15 32.11 36.0807 28.9074 31.4829C25.7047 26.8852 22.6172 23.5001 22.0113 23.9222C21.4053 24.3443 23.5103 28.4137 26.713 33.0115C29.9157 37.6092 33.0032 40.9942 33.6091 40.5721Z" fill="white"/>
        <path d="M19.4196 20.0685C20.0255 19.6464 19.2186 17.4406 17.6173 15.1417C16.016 12.8429 14.2266 11.3214 13.6206 11.7435C13.0147 12.1656 13.8216 14.3714 15.4229 16.6703C17.0242 18.9692 18.8136 20.4906 19.4196 20.0685Z" fill="white"/>
        <path d="M79.8773 116.914C78.596 116.909 77.3538 116.472 76.3512 115.674L74.9966 114.627C66.4751 107.958 59.0328 100.015 52.9319 91.0785L2.34025 16.9943C1.12894 15.2192 0.471061 13.1249 0.449753 10.976C0.428446 8.82713 1.04467 6.72017 2.22054 4.92143C3.39641 3.12268 5.07914 1.71291 7.05604 0.8703C9.03295 0.0276854 11.2153 -0.209946 13.3272 0.18744C14.7298 0.446681 16.0672 0.981239 17.2621 1.76024C18.4569 2.53925 19.4856 3.54726 20.2887 4.72606L71.0549 79.0686C77.0401 87.8285 81.6671 97.4425 84.779 107.585L85.376 109.537C85.7331 110.702 85.7038 111.952 85.2923 113.1C84.8808 114.248 84.1092 115.232 83.0928 115.905C82.1463 116.556 81.0261 116.907 79.8773 116.914ZM11.2988 4.18492C10.0849 4.18787 8.89483 4.52159 7.85642 5.15019C6.818 5.77879 5.97053 6.67851 5.40511 7.75264C4.83969 8.82676 4.57769 10.0347 4.64728 11.2465C4.71687 12.4584 5.11541 13.6284 5.80008 14.6307L56.3917 88.7045C62.2503 97.2863 69.3971 104.913 77.5801 111.317L78.9347 112.365C79.1905 112.572 79.5061 112.692 79.8352 112.707C80.1643 112.722 80.4895 112.631 80.763 112.447C81.0364 112.264 81.2438 111.997 81.3546 111.687C81.4654 111.377 81.4738 111.039 81.3786 110.724L80.7885 108.804C77.8012 99.0646 73.359 89.8331 67.6126 81.4217L16.8289 7.10011C16.336 6.37502 15.7042 5.75484 14.9702 5.27544C14.2361 4.79604 13.4142 4.46691 12.5521 4.30711C12.1391 4.22746 11.7195 4.18655 11.2988 4.18492Z" fill="#515265"/>
        <path d="M90.6978 112.18H123.515V116.369H90.6978V112.18Z" fill="#515265"/>
        <path d="M76.3833 71.6848H123.515V75.8743H76.3833V71.6848Z" fill="#515265"/>
        <path d="M76.3828 60.5996H123.515V64.7891H76.3828V60.5996Z" fill="#515265"/>
        <path d="M76.3828 49.5146H123.515V53.7041H76.3828V49.5146Z" fill="#515265"/>
        <path d="M76.3833 38.4307H123.515V42.6202H76.3833V38.4307Z" fill="#515265"/>
        <path d="M76.3833 27.3457H123.515V31.5352H76.3833V27.3457Z" fill="#515265"/>
    </g>
</svg>
