<svg width="45" height="45" viewBox="0 0 45 45" fill="none" xmlns="http://www.w3.org/2000/svg">
    <path d="M12.6748 41.25H32.3248C37.4998 41.25 39.5623 38.0812 39.8061 34.2188L40.7811 18.7312C41.0436 14.6812 37.8186 11.25 33.7498 11.25C32.6061 11.25 31.5561 10.5938 31.0311 9.58125L29.6811 6.8625C28.8186 5.15625 26.5686 3.75 24.6561 3.75H20.3623C18.4311 3.75 16.1811 5.15625 15.3186 6.8625L13.9686 9.58125C13.4436 10.5938 12.3936 11.25 11.2498 11.25C7.18108 11.25 3.95608 14.6812 4.21858 18.7312L5.19358 34.2188C5.41858 38.0812 7.49983 41.25 12.6748 41.25Z" stroke="#8B8C98" stroke-width="2" stroke-linecap="round" stroke-linejoin="round"/>
    <path d="M19.6875 15H25.3125" stroke="#8B8C98" stroke-width="2" stroke-linecap="round" stroke-linejoin="round"/>
    <path d="M22.5 33.75C25.8562 33.75 28.5938 31.0125 28.5938 27.6562C28.5938 24.3 25.8562 21.5625 22.5 21.5625C19.1438 21.5625 16.4062 24.3 16.4062 27.6562C16.4062 31.0125 19.1438 33.75 22.5 33.75Z" stroke="#8B8C98" stroke-width="2" stroke-linecap="round" stroke-linejoin="round"/>
</svg>
