<svg width="167" height="121" viewBox="0 0 167 121" fill="none" xmlns="http://www.w3.org/2000/svg">
    <g opacity="0.4">
        <mask id="path-1-inside-1_1_26217" fill="white">
            <path d="M44.7998 109.09L48.721 116.709L50.3542 115.869L46.2933 107.979"/>
        </mask>
        <path d="M44.7998 109.09L48.721 116.709L50.3542 115.869L46.2933 107.979" fill="#ED5B3A"/>
        <path d="M48.721 116.709L48.5553 116.794L48.6406 116.96L48.8062 116.875L48.721 116.709ZM50.3542 115.869L50.4395 116.034L50.6052 115.949L50.5199 115.783L50.3542 115.869ZM44.6341 109.175L48.5553 116.794L48.8867 116.624L44.9655 109.005L44.6341 109.175ZM48.8062 116.875L50.4395 116.034L50.269 115.703L48.6357 116.543L48.8062 116.875ZM50.5199 115.783L46.4589 107.893L46.1276 108.064L50.1886 115.954L50.5199 115.783Z" fill="#515265" mask="url(#path-1-inside-1_1_26217)"/>
        <path opacity="0.2" d="M45.3455 110.62L46.6875 109.62L48.3762 112.904L46.7984 113.442L45.3455 110.62Z" fill="#121212" stroke="#515265" stroke-width="0.18633"/>
        <path d="M44.31 109.276L44.961 108.94L48.6281 116.069L48.6708 116.152L48.7537 116.109L49.5703 115.688L49.653 115.645L49.6104 115.562L45.8018 108.164L46.4528 107.828L50.6382 115.962L48.3557 117.137L44.31 109.276Z" fill="#515265" stroke="#515265" stroke-width="0.18633"/>
        <path d="M1.21353 41.1232L1.29636 41.0806C1.03552 40.574 0.986587 39.9845 1.16033 39.4418C1.33408 38.8991 1.71626 38.4477 2.22282 38.1867C2.22283 38.1867 2.22284 38.1867 2.22285 38.1867L40.0247 18.7309L39.9821 18.648L40.0247 18.7309C40.7548 18.355 41.5517 18.1267 42.37 18.0589C43.1884 17.991 44.012 18.0851 44.794 18.3356C45.576 18.5861 46.3009 18.9882 46.9275 19.5189C47.5541 20.0496 48.0699 20.6986 48.4457 21.4287L81.7076 86.0497C82.0834 86.7798 82.3117 87.5767 82.3795 88.3951C82.4474 89.2134 82.3533 90.037 82.1028 90.819C81.8523 91.601 81.4502 92.326 80.9195 92.9525C80.3888 93.5791 79.7398 94.095 79.0097 94.4707L41.2078 113.932C40.7012 114.193 40.1117 114.241 39.5691 114.068C39.0264 113.894 38.5749 113.512 38.314 113.005L1.29637 41.0806L1.21353 41.1232Z" fill="#C3DDF5" stroke="#515265" stroke-width="0.18633"/>
        <path d="M2.36443 38.4575L2.36437 38.4575C2.04685 38.6207 1.77506 38.8605 1.57363 39.1552C1.41956 39.3806 1.31038 39.6328 1.25115 39.8977C1.36369 39.8109 1.48408 39.7344 1.61086 39.6694L2.36443 38.4575ZM2.36443 38.4575L40.1663 19.0033L40.1287 18.9302L40.1663 19.0033C40.8964 18.6275 41.6933 18.3991 42.5116 18.3313C43.33 18.2635 44.1536 18.3575 44.9356 18.6081C45.7176 18.8586 46.4425 19.2607 47.0691 19.7914C47.6957 20.3221 48.2116 20.971 48.5873 21.7011L81.8492 86.329C82.3517 87.3058 82.5878 88.3978 82.5335 89.4949C82.4919 90.336 82.2808 91.1572 81.9158 91.9103C82.0434 91.318 82.0868 90.7093 82.0434 90.1023C81.9816 89.2361 81.7445 88.3914 81.3465 87.6195L48.0847 22.9917C47.6977 22.2398 47.1665 21.5716 46.5212 21.025C45.876 20.4785 45.1294 20.0644 44.3241 19.8064C43.5189 19.5484 42.6707 19.4516 41.8279 19.5215C40.9852 19.5913 40.1646 19.8264 39.4127 20.2135L1.61095 39.6693L2.36443 38.4575Z" fill="white" stroke="#515265" stroke-width="0.18633"/>
        <path d="M42.8077 113.455L41.8918 113.924L41.8916 113.924C41.6407 114.054 41.3668 114.132 41.0855 114.155C40.8043 114.178 40.5212 114.146 40.2525 114.06C39.9837 113.974 39.7346 113.835 39.5193 113.653C39.3041 113.47 39.1268 113.247 38.9978 112.996L38.9149 113.039L38.9978 112.996L1.98865 41.0716L1.98852 41.0714C1.85861 40.8208 1.77936 40.547 1.75529 40.2658C1.73122 39.9845 1.7628 39.7013 1.84823 39.4322C1.93366 39.1632 2.07127 38.9136 2.25319 38.6978C2.43507 38.482 2.65768 38.3041 2.90829 38.1744C2.90835 38.1743 2.90841 38.1743 2.90847 38.1743L3.82439 37.7054L42.8077 113.455Z" fill="#C3DDF5" stroke="#515265" stroke-width="0.18633"/>
        <path d="M41.6247 114.405L79.4347 94.951C81.0128 94.1322 82.2025 92.7221 82.7438 91.0287C83.2851 89.3354 83.1341 87.4967 82.3238 85.9144L41.6247 114.405ZM41.6247 114.405C41.6247 114.405 41.6246 114.405 41.6246 114.405M41.6247 114.405L41.6246 114.405M41.6246 114.405C41.0094 114.721 40.2939 114.78 39.6354 114.569M41.6246 114.405L39.6354 114.569M39.6354 114.569C38.9768 114.358 38.4288 113.894 38.1119 113.279M39.6354 114.569L38.1119 113.279M38.1119 113.279L1.09428 41.3562M38.1119 113.279L1.09428 41.3562M1.09428 41.3562L1.09424 41.3561C0.778395 40.7409 0.719558 40.0255 0.930646 39.3669C1.14174 38.7083 1.60554 38.1604 2.22023 37.8434L40.0219 18.3876C41.6058 17.5769 43.4463 17.4268 45.1407 17.9701C46.8349 18.5134 48.2449 19.7059 49.0619 21.2865L1.09428 41.3562ZM2.556 38.4944L2.5559 38.4944C2.11376 38.7226 1.78023 39.117 1.62855 39.5908C1.47687 40.0647 1.51943 40.5794 1.74688 41.022L1.7469 41.022L38.7629 112.945L38.7629 112.945C38.9911 113.387 39.3854 113.721 39.8593 113.872C40.3332 114.024 40.8479 113.982 41.2904 113.754L41.2905 113.754L79.0924 94.2948L79.0925 94.2947C80.5011 93.5676 81.5638 92.3114 82.0476 90.8018C82.5313 89.2921 82.3965 87.6522 81.6729 86.2418L81.6728 86.2417L48.411 21.6189L48.4109 21.6189C47.6837 20.2102 46.4276 19.1475 44.9179 18.6638C43.4083 18.18 41.7684 18.3148 40.358 19.0385L40.3579 19.0385L2.556 38.4944ZM49.062 21.2867L82.3237 85.9142L49.062 21.2867Z" fill="#515265" stroke="#515265" stroke-width="0.18633"/>
        <path opacity="0.2" d="M43.3003 38.4867L43.3004 38.4868L43.4623 38.6469L43.4624 38.647L50.8085 45.9352L50.8734 45.8698L50.8085 45.9352L55.3741 50.4633C55.6552 50.7426 55.8147 51.1216 55.8177 51.5179C55.8207 51.9141 55.6671 52.2954 55.3904 52.5789C55.3903 52.579 55.3902 52.579 55.3901 52.5791L32.4313 75.7323C32.1507 76.0148 31.7693 76.1743 31.3711 76.1758C30.9728 76.1773 30.5903 76.0207 30.3075 75.7403L30.3057 75.7386L30.137 75.58L30.1352 75.5783L24.2621 69.7614L24.262 69.7613L18.2252 63.7722C17.9427 63.4916 17.7832 63.1102 17.7817 62.712C17.7801 62.3137 17.9368 61.9312 18.2172 61.6484L18.2172 61.6484L18.2189 61.6466L18.3783 61.477L41.0163 38.6566L41.0163 38.6566L41.1765 38.4947C41.1765 38.4947 41.1765 38.4947 41.1766 38.4946C41.4572 38.2122 41.8386 38.0527 42.2367 38.0512C42.635 38.0497 43.0175 38.2063 43.3003 38.4867Z" fill="#121212" stroke="#515265" stroke-width="0.18633"/>
        <path d="M17.6933 58.8083L43.5474 37.0833C43.9376 36.7554 44.5198 36.806 44.8477 37.1962L56.5328 51.1022C56.8607 51.4924 56.8102 52.0746 56.4199 52.4025L30.5659 74.1274C30.1756 74.4553 29.5934 74.4048 29.2655 74.0146L17.5805 60.1086C17.2526 59.7184 17.3031 59.1362 17.6933 58.8083Z" fill="white" stroke="#515265" stroke-width="0.18633"/>
        <path opacity="0.2" d="M31.1871 73.6054L31.187 73.6055C31.0128 73.7523 30.8114 73.8633 30.5943 73.9322C30.3771 74.001 30.1485 74.0263 29.9216 74.0066C29.6946 73.9869 29.4738 73.9226 29.2718 73.8174C29.0697 73.7122 28.8904 73.5682 28.7441 73.3935L28.744 73.3934L18.1391 60.7727C20.2319 61.1738 22.4819 61.1332 24.6024 60.9969L24.6025 60.9969C24.679 60.9918 24.7555 60.9868 24.832 60.9817C25.9292 60.9088 27.0235 60.8362 28.1006 60.9657C31.1043 61.33 33.7402 63.2679 35.6077 65.6663C36.2722 66.5263 36.8684 67.4369 37.3907 68.3898L31.1871 73.6054Z" fill="#D8D9DD" stroke="#515265" stroke-width="0.18633"/>
        <path d="M18.313 58.6428L18.3131 58.6427L43.2788 37.6663C43.2789 37.6663 43.279 37.6662 43.2791 37.6662L43.2791 37.6661L43.339 37.7375C43.404 37.6825 43.4749 37.635 43.5504 37.5959L18.313 58.6428ZM18.313 58.6428C18.0638 58.8528 17.908 59.1532 17.88 59.4779C17.852 59.8027 17.954 60.1252 18.1636 60.3748L18.1636 60.3749L29.1123 73.3932L29.1123 73.3933C29.3223 73.6425 29.6227 73.7983 29.9474 73.8263C30.2722 73.8543 30.5947 73.7523 30.8443 73.5427L30.8444 73.5427L55.8036 52.5609L55.8036 52.5609C56.0529 52.3508 56.2086 52.0505 56.2366 51.7258C56.2646 51.401 56.1626 51.0784 55.953 50.8288L55.953 50.8288L45.0112 37.8105L45.0112 37.8105C44.8319 37.5973 44.5855 37.4513 44.3124 37.3963C44.0393 37.3414 43.7557 37.3807 43.5079 37.508L43.4573 37.5339V37.5408L18.313 58.6428ZM28.5441 73.865L28.544 73.8649L17.6022 60.8449L17.6021 60.8448C17.436 60.6475 17.3105 60.4193 17.2326 60.1735C17.1547 59.9276 17.1261 59.6687 17.1483 59.4118C17.1705 59.1548 17.2432 58.9047 17.3621 58.6759C17.481 58.447 17.6439 58.2438 17.8414 58.0779L17.7815 58.0065L17.8414 58.0779L42.8091 37.0996L42.8095 37.0992C43.0062 36.9319 43.2342 36.8053 43.4802 36.7268C43.7262 36.6482 43.9853 36.6192 44.2426 36.6414C44.4998 36.6637 44.7501 36.7367 44.979 36.8564C45.2078 36.976 45.4107 37.1399 45.5758 37.3384L45.5761 37.3388L56.5179 50.3571L56.5179 50.3572C56.684 50.5545 56.8096 50.7826 56.8874 51.0285C56.9653 51.2744 56.994 51.5332 56.9717 51.7902C56.9495 52.0472 56.8769 52.2972 56.758 52.5261C56.639 52.755 56.4762 52.9582 56.2787 53.1241L56.3337 53.1896L56.2787 53.1241L31.3076 74.1041L31.3069 74.1046C31.1941 74.2011 31.0708 74.2846 30.9393 74.3536C30.5438 74.555 30.0916 74.6164 29.6567 74.5277C29.2215 74.4391 28.8293 74.2054 28.5441 73.865Z" fill="#515265" stroke="#515265" stroke-width="0.18633"/>
        <path opacity="0.2" d="M35.0411 22.8209L35.0412 22.821L73.35 97.2411C73.5904 97.7746 73.6446 98.3735 73.5038 98.9415C73.3636 99.5075 73.0379 100.01 72.5788 100.37L71.0812 101.141L71.081 101.141C70.8509 101.261 70.5996 101.333 70.3415 101.355C70.0833 101.377 69.8234 101.348 69.5765 101.269C69.3297 101.19 69.1009 101.064 68.9032 100.896C68.7054 100.729 68.5427 100.524 68.4244 100.293L68.4243 100.293L30.1264 25.8693C30.1263 25.8692 30.1263 25.8692 30.1263 25.8692C30.0006 25.6246 29.928 25.3563 29.9132 25.0817L29.9126 25.0705L29.9094 25.0598C29.777 24.6209 29.8021 24.1495 29.9804 23.7271C30.1588 23.3048 30.479 22.9581 30.8859 22.7469C30.8859 22.7468 30.8859 22.7468 30.886 22.7468L32.3911 21.9712C32.8552 21.7325 33.3951 21.688 33.8921 21.8473C34.389 22.0066 34.8024 22.3569 35.0411 22.8209Z" fill="#121212" stroke="#515265" stroke-width="0.18633"/>
        <path d="M32.4803 21.5882L33.784 20.9174C34.8057 20.3916 36.0602 20.7936 36.5859 21.8153L74.7819 96.041C75.3077 97.0627 74.9056 98.3172 73.8839 98.843L72.5802 99.5138C71.5585 100.04 70.304 99.6375 69.7783 98.6158L31.5823 24.3902C31.0566 23.3685 31.4586 22.114 32.4803 21.5882Z" fill="#4A98E0" stroke="#515265" stroke-width="0.18633"/>
        <path d="M33.9696 21.3316L33.9698 21.3315C34.0041 21.3137 34.0392 21.2967 34.075 21.2804L73.9673 98.792L73.317 99.1275L33.4233 21.6129L33.9696 21.3316Z" fill="#121212" stroke="#515265" stroke-width="0.18633"/>
        <path d="M31.4292 22.0822L31.5348 22.0278L71.6363 99.9564L71.5306 100.011L31.4292 22.0822Z" fill="#121212" stroke="#515265" stroke-width="0.18633"/>
        <path d="M32.3852 21.9338L32.4909 21.8794L72.5924 99.808L72.4867 99.8624L32.3852 21.9338Z" fill="#121212" stroke="#515265" stroke-width="0.18633"/>
        <path d="M33.1997 21.5129L33.3054 21.4585L73.4068 99.3871L73.3012 99.4415L33.1997 21.5129Z" fill="#121212" stroke="#515265" stroke-width="0.18633"/>
        <path d="M34.0171 21.0939L34.1227 21.0395L74.2242 98.9682L74.1185 99.0225L34.0171 21.0939Z" fill="#121212" stroke="#515265" stroke-width="0.18633"/>
        <path d="M34.8335 20.675L34.9391 20.6206L75.0406 98.5492L74.9349 98.6036L34.8335 20.675Z" fill="#121212" stroke="#515265" stroke-width="0.18633"/>
        <path d="M69.3778 99.1188C69.6726 99.6906 70.1822 100.122 70.7948 100.318C71.4073 100.515 72.0728 100.46 72.645 100.166L69.3778 99.1188ZM69.3778 99.1188L31.0663 24.6949C31.0663 24.6949 31.0662 24.6949 31.0662 24.6949C30.7725 24.1226 30.7178 23.4571 30.9142 22.8446C31.1106 22.232 31.542 21.7224 32.1138 21.4276C32.1138 21.4276 32.1138 21.4276 32.1138 21.4276L33.619 20.652C33.619 20.6519 33.6191 20.6519 33.6191 20.6519C34.1914 20.3582 34.8568 20.3035 35.4694 20.4999C36.0819 20.6963 36.5915 21.1277 36.8863 21.6994L69.3778 99.1188ZM32.4478 22.0786L32.4477 22.0786C32.0496 22.2843 31.7491 22.6393 31.6118 23.0659C31.4746 23.4924 31.5118 23.956 31.7153 24.3553L31.7155 24.3556L70.0186 98.7847L70.0186 98.7848C70.2246 99.184 70.5807 99.4852 71.0085 99.6222C71.4364 99.7591 71.9011 99.7207 72.3007 99.5154L72.3007 99.5154L73.8061 98.7397L73.8062 98.7396C74.2054 98.5336 74.5066 98.1776 74.6436 97.7497C74.7805 97.3219 74.7421 96.8572 74.5368 96.4576L74.4553 96.4995L74.5368 96.4576L36.2354 22.0335L36.2353 22.0334C36.0293 21.6342 35.6733 21.3331 35.2454 21.1961C34.8176 21.0591 34.3529 21.0975 33.9533 21.3028L33.9532 21.3029L32.4478 22.0786ZM74.15 99.3908L72.6451 100.166L36.8863 21.6995L75.1893 96.1301C75.4817 96.7007 75.5364 97.3638 75.3417 97.9747C75.147 98.5855 74.7187 99.0946 74.15 99.3908Z" fill="#515265" stroke="#515265" stroke-width="0.18633"/>
        <path d="M60.2051 1.59121H137.7C140.033 1.59121 141.925 3.48292 141.925 5.81646V114.909C141.925 117.242 140.033 119.134 137.7 119.134H60.2051C57.8716 119.134 55.9799 117.242 55.9799 114.909V5.81646C55.9799 3.48292 57.8716 1.59121 60.2051 1.59121Z" fill="#F8F9FC" stroke="#515265" stroke-width="0.18633"/>
        <path d="M122.839 101.18C130.593 96.4377 137.781 87.7858 141.925 75.7494V112.18C141.925 114.113 141.466 115.859 140.73 117.118C139.992 118.379 138.986 119.136 137.894 119.136H60.0108C58.9187 119.136 57.9129 118.379 57.175 117.118C56.4385 115.859 55.9799 114.113 55.9799 112.18V91.0261C61.2013 96.8326 67.1304 100.762 73.2108 103.212C80.6282 106.205 88.2838 107.077 95.8931 107.205C104.99 107.36 114.258 106.426 122.839 101.18Z" fill="#D8D9DD" stroke="#515265" stroke-width="0.18633"/>
        <path d="M61.5905 1.71951C60.7496 1.71866 59.8662 1.76086 59.0587 2.07174C58.2555 2.38099 57.5225 2.95819 56.9857 4.03924L56.9856 4.03938C56.5512 4.91077 56.3205 5.97739 56.1992 7.12178C56.0778 8.26562 56.0663 9.48055 56.0663 10.6468V10.6468L56.0573 26.6829C56.3011 24.0438 56.6254 21.2798 57.164 18.7028C57.8515 15.4129 58.8905 12.4152 60.5672 10.3695C64.0895 6.06872 68.6841 4.48604 73.4015 3.68581C75.2539 3.37158 77.1284 3.17756 78.9646 2.98752C79.465 2.93573 79.9625 2.88423 80.456 2.83067C82.6208 2.59573 84.7082 2.32113 86.6266 1.8093C82.6941 1.04083 78.5466 1.00883 74.3733 1.17409C72.837 1.23493 71.2961 1.3226 69.7613 1.40992C66.9968 1.5672 64.2524 1.72335 61.5905 1.71951ZM61.5905 1.71951L61.5906 1.62635M61.5905 1.71951L61.5906 1.62635M61.5906 1.62635C64.2501 1.63018 66.9894 1.47431 69.7518 1.31712C75.5148 0.989195 81.3785 0.655541 86.8284 1.75438L55.9731 10.6468C55.9731 8.31452 56.0191 5.76916 56.9023 3.99781C57.9968 1.79342 59.9062 1.62464 61.5906 1.62635Z" fill="white" stroke="#515265" stroke-width="0.18633"/>
        <path d="M137.617 1.63867H60.1221C57.7371 1.63867 55.8037 3.57209 55.8037 5.95709V115.049C55.8037 117.434 57.7371 119.368 60.1221 119.368H137.617C140.002 119.368 141.935 117.434 141.935 115.049V5.95709C141.935 3.57209 140.002 1.63867 137.617 1.63867Z" stroke="#515265" stroke-width="1.49064" stroke-miterlimit="10"/>
        <path d="M66.7342 9.35H131.256C132.698 9.35 133.867 10.5189 133.867 11.9607V107.922C133.867 109.364 132.698 110.533 131.256 110.533H66.7342C65.2923 110.533 64.1234 109.364 64.1234 107.922V11.9607C64.1234 10.5189 65.2923 9.35 66.7342 9.35Z" fill="white" stroke="#515265" stroke-width="0.18633"/>
        <path d="M131.646 9.49847L131.647 9.49847C132.805 9.49203 133.781 10.6552 133.781 12.1331V31.7208H64.0395V12.1331C64.0395 10.656 65.0149 9.49847 66.1831 9.49847L131.646 9.49847Z" fill="#F9C8BD" stroke="#515265" stroke-width="0.18633"/>
        <path d="M131.172 9.08887H66.6502C65.1569 9.08887 63.9463 10.2994 63.9463 11.7928V108.487C63.9463 109.981 65.1569 111.191 66.6502 111.191H131.172C132.666 111.191 133.876 109.981 133.876 108.487V11.7928C133.876 10.2994 132.666 9.08887 131.172 9.08887Z" stroke="#515265" stroke-width="1.49064" stroke-miterlimit="10"/>
        <path d="M76.1068 22.6039H121.601V26.366H76.1068V22.6039Z" fill="white" stroke="#515265" stroke-width="0.18633"/>
        <path d="M96.8453 51.8355H74.6826V51.0825H96.8453V51.8355Z" fill="#C3DDF5" stroke="#515265" stroke-width="0.18633"/>
        <path d="M123.138 53.901H74.6849V53.1479H123.138V53.901Z" fill="#C3DDF5" stroke="#515265" stroke-width="0.18633"/>
        <path d="M96.8453 55.9674H74.6826V55.2143H96.8453V55.9674Z" fill="#C3DDF5" stroke="#515265" stroke-width="0.18633"/>
        <path d="M123.138 58.0318H74.6849V57.2788H123.138V58.0318Z" fill="#C3DDF5" stroke="#515265" stroke-width="0.18633"/>
        <path d="M96.8453 60.1002H74.6826V59.3471H96.8453V60.1002Z" fill="#C3DDF5" stroke="#515265" stroke-width="0.18633"/>
        <path d="M123.138 62.1646H74.6849V61.4116H123.138V62.1646Z" fill="#C3DDF5" stroke="#515265" stroke-width="0.18633"/>
        <path d="M130.399 15.4859H113.808V13.698H130.399V15.4859Z" fill="#ECBC5F" stroke="#515265" stroke-width="0.18633"/>
        <path d="M111.308 15.4859H94.717V13.698H111.308V15.4859Z" fill="#ECBC5F" stroke="#515265" stroke-width="0.18633"/>
        <path d="M71.0431 14.5921C71.0431 15.5914 70.233 16.4015 69.2337 16.4015C68.2343 16.4015 67.4242 15.5914 67.4242 14.5921C67.4242 13.5927 68.2343 12.7826 69.2337 12.7826C70.233 12.7826 71.0431 13.5927 71.0431 14.5921Z" fill="#ECBC5F" stroke="#515265" stroke-width="0.18633"/>
        <path d="M85.424 41.4182C85.424 43.7028 83.572 45.5548 81.2874 45.5548C79.0028 45.5548 77.1508 43.7028 77.1508 41.4182C77.1508 39.1337 79.0028 37.2816 81.2874 37.2816C83.572 37.2816 85.424 39.1337 85.424 41.4182Z" fill="#F9C8BD" stroke="#515265" stroke-width="0.18633"/>
        <path d="M115.268 37.7045H118.224C119.575 37.7045 120.671 38.8001 120.671 40.1516V43.1078C120.671 44.4593 119.575 45.5549 118.224 45.5549H115.268C113.916 45.5549 112.821 44.4593 112.821 43.1078V40.1516C112.821 38.8001 113.916 37.7045 115.268 37.7045Z" fill="#958FEE" stroke="#515265" stroke-width="0.18633"/>
        <path d="M98.5013 38.2607L98.5013 38.2607L98.5021 38.2592C98.553 38.1672 98.6276 38.0905 98.7182 38.0371C98.8088 37.9836 98.9121 37.9555 99.0173 37.9555C99.1224 37.9555 99.2257 37.9836 99.3163 38.0371C99.4069 38.0905 99.4815 38.1672 99.5325 38.2592L99.5324 38.2592L99.5333 38.2607L101.381 41.4607L103.229 44.6607C103.281 44.7505 103.308 44.8524 103.308 44.9561C103.308 45.0598 103.281 45.1616 103.228 45.2512C103.176 45.3408 103.101 45.4151 103.011 45.4665C102.921 45.5179 102.819 45.5446 102.716 45.5439H102.715L95.3211 45.5439L95.3205 45.5439C95.2169 45.5446 95.1148 45.5179 95.0248 45.4665C94.9348 45.4151 94.8599 45.3408 94.8078 45.2512C94.7556 45.1616 94.7281 45.0598 94.7279 44.9561C94.7278 44.8524 94.755 44.7505 94.8068 44.6607L96.6549 41.4607L96.6549 41.4607L98.5013 38.2607Z" fill="#ECBC5F" stroke="#515265" stroke-width="0.18633"/>
        <path d="M151.428 27.1061L163.238 31.3776C165.09 32.0477 166.049 34.093 165.379 35.9457L136.944 114.56C136.274 116.413 134.229 117.371 132.376 116.701L120.567 112.43C118.714 111.76 117.755 109.714 118.425 107.861L146.86 29.2474C147.53 27.3947 149.575 26.436 151.428 27.1061Z" fill="#C3DDF5" stroke="#515265" stroke-width="0.186255"/>
        <path d="M133.537 116.72L131.738 116.078C132.147 116.071 132.555 115.977 132.933 115.798C133.629 115.468 134.166 114.874 134.425 114.148L134.338 114.117L134.425 114.148L163.088 33.7743L163 33.743L163.088 33.7743C163.346 33.0481 163.306 32.2489 162.976 31.5524C162.797 31.1746 162.54 30.8438 162.227 30.5788L164.027 31.2206L164.059 31.1329L164.027 31.2206C164.364 31.3407 164.674 31.5261 164.94 31.7662C165.205 32.0062 165.42 32.2962 165.573 32.6196C165.727 32.9429 165.814 33.2933 165.832 33.6507C165.849 34.008 165.796 34.3653 165.676 34.7021L165.676 34.7022L137.014 115.071C136.771 115.751 136.268 116.306 135.617 116.615C134.965 116.924 134.217 116.962 133.537 116.72Z" fill="#C3DDF5" stroke="#515265" stroke-width="0.18633"/>
        <path opacity="0.2" d="M165.676 34.6972L164.925 36.8021C164.918 36.3921 164.824 35.9843 164.645 35.6066C164.315 34.9101 163.722 34.3732 162.996 34.1139L162.995 34.1139L149.566 29.325L149.566 29.3249C148.84 29.0662 148.041 29.1064 147.344 29.4367C146.967 29.6157 146.636 29.8722 146.371 30.1852L147.122 28.0801C147.364 27.4007 147.867 26.8454 148.519 26.5363C149.171 26.2272 149.919 26.1896 150.598 26.4317L164.027 31.2207C164.707 31.4633 165.262 31.9658 165.571 32.6177C165.88 33.2696 165.918 34.0175 165.676 34.6972C165.676 34.6972 165.676 34.6972 165.676 34.6972Z" fill="#121212" stroke="#515265" stroke-width="0.18633"/>
        <path d="M160.829 38.1923L161.095 37.4461L163.99 38.4786L163.724 39.2248L160.829 38.1923Z" fill="#515265" stroke="#515265" stroke-width="0.18633"/>
        <path d="M159.951 40.6496L160.217 39.9034L163.112 40.9359L162.846 41.6821L159.951 40.6496Z" fill="#515265" stroke="#515265" stroke-width="0.18633"/>
        <path d="M159.076 43.1066L159.342 42.3604L162.237 43.3929L161.971 44.1391L159.076 43.1066Z" fill="#515265" stroke="#515265" stroke-width="0.18633"/>
        <path d="M155.69 44.9285L155.959 44.1838L161.912 46.337L161.643 47.0817L155.69 44.9285Z" fill="#515265" stroke="#515265" stroke-width="0.186255"/>
        <path d="M157.834 47.5578L158.1 46.8116L160.995 47.8441L160.729 48.5903L157.834 47.5578Z" fill="#515265" stroke="#515265" stroke-width="0.18633"/>
        <path d="M156.958 50.0148L157.224 49.2686L160.119 50.3011L159.853 51.0473L156.958 50.0148Z" fill="#515265" stroke="#515265" stroke-width="0.18633"/>
        <path d="M156.082 52.4719L156.348 51.7257L159.243 52.7581L158.977 53.5043L156.082 52.4719Z" fill="#515265" stroke="#515265" stroke-width="0.18633"/>
        <path d="M152.666 54.3259L152.935 53.5812L158.889 55.7345L158.619 56.4792L152.666 54.3259Z" fill="#515265" stroke="#515265" stroke-width="0.186255"/>
        <path d="M154.839 56.9233L155.105 56.1771L158 57.2096L157.734 57.9558L154.839 56.9233Z" fill="#515265" stroke="#515265" stroke-width="0.18633"/>
        <path d="M153.963 59.3801L154.229 58.6339L157.124 59.6663L156.858 60.4126L153.963 59.3801Z" fill="#515265" stroke="#515265" stroke-width="0.18633"/>
        <path d="M153.088 61.8371L153.354 61.0909L156.249 62.1234L155.983 62.8696L153.088 61.8371Z" fill="#515265" stroke="#515265" stroke-width="0.18633"/>
        <path d="M149.142 63.1975L149.408 62.4512L155.373 64.5788L155.107 65.325L149.142 63.1975Z" fill="#515265" stroke="#515265" stroke-width="0.18633"/>
        <path d="M151.232 66.0705L151.498 65.3243L154.393 66.3568L154.127 67.103L151.232 66.0705Z" fill="#515265" stroke="#515265" stroke-width="0.18633"/>
        <path d="M150.355 68.5275L150.622 67.7813L153.516 68.8138L153.25 69.56L150.355 68.5275Z" fill="#515265" stroke="#515265" stroke-width="0.18633"/>
        <path d="M149.479 70.9829L149.746 70.2366L152.64 71.2691L152.374 72.0153L149.479 70.9829Z" fill="#515265" stroke="#515265" stroke-width="0.18633"/>
        <path d="M146.002 72.9031L146.271 72.1584L152.225 74.3116L151.955 75.0563L146.002 72.9031Z" fill="#515265" stroke="#515265" stroke-width="0.186255"/>
        <path d="M147.93 75.3264L148.196 74.5801L151.09 75.6126L150.824 76.3588L147.93 75.3264Z" fill="#515265" stroke="#515265" stroke-width="0.18633"/>
        <path d="M147.055 77.7814L147.321 77.0352L150.215 78.0677L149.949 78.8139L147.055 77.7814Z" fill="#515265" stroke="#515265" stroke-width="0.18633"/>
        <path d="M146.179 80.2394L146.445 79.4932L149.34 80.5257L149.073 81.2719L146.179 80.2394Z" fill="#515265" stroke="#515265" stroke-width="0.18633"/>
        <path d="M142.671 82.1892L142.94 81.4445L148.893 83.5977L148.624 84.3425L142.671 82.1892Z" fill="#515265" stroke="#515265" stroke-width="0.186255"/>
        <path d="M144.934 84.6916L145.201 83.9454L148.095 84.9779L147.829 85.7241L144.934 84.6916Z" fill="#515265" stroke="#515265" stroke-width="0.18633"/>
        <path d="M144.06 87.1486L144.327 86.4024L147.221 87.4349L146.955 88.1811L144.06 87.1486Z" fill="#515265" stroke="#515265" stroke-width="0.18633"/>
        <path d="M143.184 89.6047L143.45 88.8585L146.344 89.8909L146.078 90.6372L143.184 89.6047Z" fill="#515265" stroke="#515265" stroke-width="0.18633"/>
        <path d="M139.646 91.5867L139.915 90.8419L145.868 92.9952L145.599 93.7399L139.646 91.5867Z" fill="#515265" stroke="#515265" stroke-width="0.186255"/>
        <path d="M141.636 93.9484L141.902 93.2022L144.797 94.2347L144.53 94.9809L141.636 93.9484Z" fill="#515265" stroke="#515265" stroke-width="0.18633"/>
        <path d="M140.759 96.4055L141.025 95.6592L143.92 96.6917L143.653 97.4379L140.759 96.4055Z" fill="#515265" stroke="#515265" stroke-width="0.18633"/>
        <path d="M139.883 98.8625L140.149 98.1163L143.044 99.1488L142.777 99.895L139.883 98.8625Z" fill="#515265" stroke="#515265" stroke-width="0.18633"/>
        <path d="M135.937 100.223L136.204 99.4766L142.169 101.604L141.902 102.35L135.937 100.223Z" fill="#515265" stroke="#515265" stroke-width="0.18633"/>
        <path d="M138.335 103.204L138.601 102.458L141.496 103.491L141.23 104.237L138.335 103.204Z" fill="#515265" stroke="#515265" stroke-width="0.18633"/>
        <path d="M137.458 105.661L137.724 104.915L140.619 105.948L140.353 106.694L137.458 105.661Z" fill="#515265" stroke="#515265" stroke-width="0.18633"/>
        <path d="M136.58 108.116L136.846 107.37L139.741 108.403L139.475 109.149L136.58 108.116Z" fill="#515265" stroke="#515265" stroke-width="0.18633"/>
        <path d="M132.635 109.479L132.901 108.733L138.866 110.86L138.6 111.607L132.635 109.479Z" fill="#515265" stroke="#515265" stroke-width="0.18633"/>
        <path d="M122.724 112.52L152.998 27.6388L153.436 27.795L123.161 112.676L122.724 112.52Z" fill="white" stroke="#515265" stroke-width="0.18633"/>
        <path d="M149.176 26.6226L119.015 111.193L118.269 110.926L148.135 27.1861C148.213 26.965 148.377 26.7843 148.589 26.6836C148.773 26.5964 148.98 26.5755 149.176 26.6226Z" fill="white" stroke="#515265" stroke-width="0.18633"/>
        <path d="M119.194 111.261L149.359 26.6883L150.105 26.9545L119.94 111.527L119.194 111.261Z" fill="white" stroke="#515265" stroke-width="0.18633"/>
        <path d="M120.112 111.588L150.277 27.0154L151.023 27.2816L120.858 111.854L120.112 111.588Z" fill="white" stroke="#515265" stroke-width="0.18633"/>
        <path d="M128.833 109.188C129.547 109.442 129.92 110.228 129.665 110.942C129.41 111.656 128.625 112.029 127.91 111.774C127.196 111.519 126.824 110.734 127.078 110.019C127.333 109.305 128.119 108.933 128.833 109.188Z" fill="white" stroke="#515265" stroke-width="0.18633"/>
        <path d="M127.742 112.23C127.395 112.107 127.093 111.883 126.873 111.588C126.653 111.293 126.525 110.939 126.506 110.572C126.487 110.204 126.577 109.839 126.765 109.523C126.953 109.207 127.231 108.953 127.563 108.794C127.895 108.636 128.267 108.579 128.631 108.632C128.996 108.684 129.336 108.844 129.61 109.09C129.884 109.336 130.079 109.657 130.17 110.014C130.261 110.37 130.245 110.746 130.122 111.093L130.21 111.124L130.122 111.093C129.957 111.559 129.614 111.941 129.167 112.154C128.721 112.367 128.208 112.395 127.742 112.23L127.711 112.318L127.742 112.23ZM128.728 109.468C128.528 109.397 128.312 109.386 128.106 109.438C127.9 109.49 127.715 109.601 127.573 109.759C127.43 109.916 127.338 110.112 127.307 110.322C127.276 110.531 127.308 110.746 127.399 110.937C127.49 111.129 127.636 111.289 127.818 111.398C128 111.506 128.21 111.559 128.422 111.548C128.634 111.537 128.837 111.464 129.008 111.337C129.178 111.211 129.306 111.036 129.377 110.837C129.473 110.569 129.458 110.274 129.336 110.018C129.214 109.761 128.995 109.563 128.728 109.468Z" fill="#515265" stroke="#515265" stroke-width="0.18633"/>
        <path d="M156.343 31.0803C157.057 31.3351 157.429 32.1206 157.175 32.8348C156.92 33.549 156.134 33.9215 155.42 33.6668C154.706 33.412 154.333 32.6265 154.588 31.9123C154.843 31.1981 155.628 30.8256 156.343 31.0803Z" fill="white" stroke="#515265" stroke-width="0.18633"/>
        <path d="M155.251 34.1253C154.904 34.0021 154.601 33.7788 154.381 33.4837C154.161 33.1886 154.034 32.835 154.015 32.4674C153.995 32.0998 154.086 31.7347 154.274 31.4184C154.462 31.102 154.74 30.8486 155.072 30.69C155.404 30.5314 155.776 30.4747 156.14 30.5273C156.505 30.5798 156.845 30.7391 157.119 30.9851C157.393 31.2311 157.588 31.5527 157.679 31.9093C157.77 32.2659 157.753 32.6415 157.631 32.9887C157.466 33.455 157.123 33.8367 156.676 34.0498C156.23 34.2629 155.717 34.2901 155.251 34.1253L155.22 34.2131L155.251 34.1253ZM156.236 31.3618C156.037 31.2906 155.82 31.2802 155.615 31.3319C155.409 31.3837 155.224 31.4952 155.081 31.6525C154.939 31.8098 154.847 32.0057 154.816 32.2155C154.785 32.4252 154.817 32.6394 154.908 32.8309C154.999 33.0224 155.145 33.1827 155.327 33.2914C155.509 33.4001 155.719 33.4524 155.931 33.4416C156.142 33.4309 156.346 33.3576 156.516 33.231C156.686 33.1044 156.815 32.9302 156.886 32.7304C156.981 32.4628 156.966 32.1682 156.845 31.9116C156.723 31.655 156.504 31.4572 156.236 31.3618Z" fill="#515265" stroke="#515265" stroke-width="0.18633"/>
        <path d="M119.597 112.431L133.917 117.546L119.597 112.431ZM119.597 112.431L119.596 112.431C118.913 112.186 118.355 111.68 118.044 111.024C117.733 110.369 117.695 109.616 117.938 108.932L119.597 112.431ZM148.327 26.1212C147.671 26.4321 147.165 26.9903 146.92 27.6735L148.327 26.1212ZM148.327 26.1212C148.983 25.8102 149.735 25.772 150.419 26.0149M148.327 26.1212L150.419 26.0149M150.419 26.0149L164.74 31.1294L150.419 26.0149ZM166.292 32.536C165.981 31.8802 165.423 31.3744 164.74 31.1295L166.292 32.536ZM166.292 32.536C166.603 33.1918 166.641 33.9442 166.399 34.6281M166.292 32.536L166.399 34.6281M166.399 34.6281L166.398 34.6283M166.399 34.6281L166.398 34.6283M166.398 34.6283L137.416 115.887L166.398 34.6283ZM136.009 117.439C136.665 117.128 137.171 116.57 137.416 115.887L136.009 117.439ZM136.009 117.439C135.354 117.75 134.601 117.788 133.917 117.546L136.009 117.439ZM150.153 26.7685L150.153 26.7685C149.666 26.5956 149.131 26.6228 148.665 26.844C148.199 27.0652 147.839 27.4624 147.666 27.9484L147.666 27.9485L118.683 109.207L118.683 109.208C118.512 109.693 118.54 110.227 118.761 110.692C118.983 111.157 119.379 111.516 119.864 111.689L134.185 116.804L134.185 116.804C134.672 116.977 135.207 116.95 135.673 116.728C136.139 116.507 136.499 116.11 136.672 115.624L136.585 115.593L136.672 115.624L165.655 34.3651L165.655 34.365C165.828 33.8787 165.801 33.3437 165.58 32.8774C165.358 32.4112 164.961 32.0517 164.475 31.878L164.475 31.878L150.153 26.7685ZM117.938 108.932L146.92 27.6737L117.938 108.932Z" fill="#515265" stroke="#515265" stroke-width="0.18633"/>
        <path opacity="0.1" d="M147.603 53.1223L147.603 53.1224L147.604 53.1201C147.913 52.1251 148.404 51.1961 149.052 50.3801C149.69 49.58 150.569 49.0072 151.556 48.745L151.585 48.8817C150.627 49.138 149.775 49.6958 149.157 50.4738L149.157 50.4739C148.521 51.277 148.038 52.1909 147.735 53.1694C147.337 54.3465 147.097 55.5712 147.023 56.8113L146.883 56.8033C146.959 55.5499 147.2 54.312 147.603 53.1223Z" fill="#121212" stroke="#515265" stroke-width="0.18633"/>
        <path opacity="0.1" d="M143.28 55.7236L143.28 55.7235C143.601 54.0083 143.576 52.4691 143.2 51.1426L143.2 51.1426C142.761 49.5965 141.814 48.3128 140.589 47.6096L140.656 47.4866C141.908 48.2032 142.884 49.5142 143.334 51.1047C143.715 52.4517 143.745 54.0069 143.418 55.7489L143.418 55.7489C143.223 56.7891 142.956 57.5706 142.577 58.2128L142.576 58.2131C141.391 60.2337 138.686 61.1419 136.492 60.3683C136.298 60.2991 136.109 60.2167 135.927 60.1216L135.994 59.9988C138.203 61.1513 141.2 60.2929 142.459 58.1402C142.83 57.5074 143.09 56.7376 143.28 55.7236Z" fill="#121212" stroke="#515265" stroke-width="0.18633"/>
        <path opacity="0.1" d="M140.297 54.1936C139.955 55.6582 138.558 56.7441 137.165 56.6611L137.178 56.5226C138.515 56.5999 139.834 55.5549 140.16 54.161L140.16 54.1609C140.459 52.8753 139.935 51.3859 138.861 50.4161L138.953 50.3097C140.075 51.3152 140.606 52.8688 140.297 54.1936Z" fill="#121212" stroke="#515265" stroke-width="0.18633"/>
        <path opacity="0.1" d="M124.247 94.8817C124.879 95.298 125.668 95.3955 126.525 95.1758L126.503 95.088L126.525 95.1758C128.463 94.6786 130.511 92.6651 131.76 90.0658L131.76 90.0658C132.325 88.8908 132.804 87.5089 133.27 85.7186L133.27 85.7186C134.052 82.7094 134.411 80.0778 134.332 77.9142C134.332 77.9142 134.332 77.9142 134.332 77.9142L134.239 77.9176C134.147 75.3603 133.419 73.4065 132.242 72.5677M124.247 94.8817L132.453 72.433C132.428 72.4141 132.403 72.3956 132.378 72.3777L132.242 72.5677M124.247 94.8817L124.166 94.9958C124.339 95.1098 124.525 95.2025 124.72 95.2719C125.315 95.4712 125.955 95.4867 126.559 95.3164L126.561 95.3158L126.561 95.3158C128.517 94.8138 130.61 92.7815 131.887 90.1267M132.242 72.5677L132.318 72.6217L132.371 72.5472C132.347 72.5282 132.322 72.5098 132.296 72.4919L132.242 72.5677Z" fill="#121212" stroke="#515265" stroke-width="0.18633"/>
        <path opacity="0.1" d="M129.893 77.6632C130.867 79.0953 131.074 81.5236 130.397 83.8913C130.023 85.1989 129.372 86.4078 128.624 87.3043C127.905 88.1668 127.108 88.7256 126.395 88.8244L126.384 88.6846C127.098 88.5851 127.877 87.9997 128.56 87.1613C129.277 86.2819 129.905 85.1053 130.263 83.8539C130.595 82.6944 130.708 81.4951 130.616 80.4136C130.527 79.3722 130.246 78.4336 129.78 77.7451L129.893 77.6632Z" fill="#121212" stroke="#515265" stroke-width="0.18633"/>
        <path opacity="0.1" d="M145.947 71.3199L145.947 71.3198C146.142 70.2796 146.409 69.4982 146.789 68.8559L146.789 68.8555C148.082 66.6447 151.173 65.7645 153.442 66.9454L153.374 67.0683C151.167 65.9157 148.169 66.7741 146.909 68.9268C146.539 69.5596 146.279 70.3295 146.088 71.3435L146.088 71.3435C145.767 73.0587 145.792 74.5979 146.169 75.9244L146.169 75.9245C146.608 77.4703 147.554 78.7539 148.779 79.4571L148.71 79.5825C147.457 78.8659 146.481 77.5547 146.031 75.964C145.65 74.617 145.62 73.0619 145.947 71.3199Z" fill="#121212" stroke="#515265" stroke-width="0.18633"/>
        <path opacity="0.1" d="M149.205 72.8975L149.205 72.8976C148.906 74.1833 149.43 75.6728 150.504 76.6427L150.412 76.7503C149.29 75.7448 148.759 74.1913 149.068 72.8666C149.41 71.4051 150.807 70.3146 152.2 70.3974L152.187 70.5359C150.85 70.4586 149.531 71.5036 149.205 72.8975ZM152.301 70.3119L152.28 70.5431L152.301 70.3119Z" fill="#121212" stroke="#515265" stroke-width="0.18633"/>
        <path opacity="0.1" d="M132.99 99.9645L132.99 99.9645C133.267 98.4863 133.646 97.3755 134.173 96.4616C136.017 93.3117 140.427 92.0666 143.651 93.769L143.583 93.8921C140.421 92.228 136.103 93.4425 134.293 96.528L134.293 96.5281C133.764 97.4319 133.391 98.5308 133.119 99.9847C132.66 102.431 132.697 104.634 133.234 106.526L133.323 106.501L133.234 106.526C133.866 108.755 135.236 110.606 137.007 111.601L136.944 111.727C135.149 110.707 133.751 108.84 133.108 106.571C132.567 104.663 132.525 102.441 132.99 99.9645Z" fill="#121212" stroke="#515265" stroke-width="0.18633"/>
        <path opacity="0.1" d="M137.571 102.202L137.571 102.202C137.139 104.054 137.897 106.207 139.461 107.596L139.369 107.704C137.768 106.277 136.994 104.063 137.434 102.171C137.928 100.083 139.92 98.5447 141.906 98.6773L141.893 98.8154C139.961 98.6806 138.042 100.186 137.571 102.202Z" fill="#121212" stroke="#515265" stroke-width="0.18633"/>
        <path d="M121.538 110.02L150.498 28.824L151.245 29.0902L122.284 110.286L121.538 110.02Z" fill="#515265" stroke="#515265" stroke-width="0.18633"/>
        <path opacity="0.1" d="M137.545 85.3662C137.185 84.3728 136.748 83.1351 136.778 81.9082C136.778 81.9082 136.778 81.9082 136.778 81.9082L136.872 81.9105C136.895 80.9304 137.21 79.9827 137.516 79.0587L137.545 85.3662ZM137.545 85.3662L137.415 85.4127L137.545 85.3662Z" fill="#121212" stroke="#515265" stroke-width="0.18633"/>
        <path opacity="0.1" d="M149.831 45.0967C149.471 44.1032 149.034 42.8655 149.065 41.6387C149.065 41.6386 149.065 41.6386 149.065 41.6386L149.158 41.6409C149.182 40.6609 149.496 39.7131 149.802 38.7892L149.831 45.0967ZM149.831 45.0967L149.701 45.1431L149.831 45.0967Z" fill="#121212" stroke="#515265" stroke-width="0.18633"/>
        <path opacity="0.1" d="M158.977 51.4746C158.617 50.4812 158.18 49.2435 158.21 48.0166C158.21 48.0166 158.21 48.0166 158.21 48.0166L158.303 48.0189C158.327 47.0389 158.641 46.0911 158.947 45.1672L158.977 51.4746ZM158.977 51.4746L158.847 51.5211L158.977 51.4746Z" fill="#121212" stroke="#515265" stroke-width="0.18633"/>
        <path opacity="0.1" d="M124.62 113.633C125.203 112.645 125.136 111.411 125.074 110.26L125.073 110.248L125.073 110.248C125.056 109.936 125.039 109.626 125.034 109.322C125.039 108.277 125.114 107.233 125.26 106.199L125.26 106.199L125.26 106.197L125.263 106.176C125.501 104.191 125.731 102.283 124.993 100.503L124.993 100.503C124.471 99.2455 123.487 98.2041 122.607 97.3347L122.705 97.2354C123.61 98.1269 124.593 99.1745 125.122 100.45L125.122 100.45C125.863 102.235 125.636 104.193 125.411 106.121C125.408 106.152 125.404 106.182 125.401 106.213C125.401 106.213 125.401 106.214 125.401 106.214L125.493 106.225M124.62 113.633L124.737 113.705M124.62 113.633L124.737 113.705M124.62 113.633L124.737 113.705M125.493 106.225C125.346 107.248 125.268 108.28 125.26 109.314C125.26 109.543 125.272 109.775 125.285 110.009C125.289 110.083 125.293 110.157 125.297 110.231C125.37 111.45 125.439 112.708 124.816 113.754L124.737 113.705M125.493 106.225C125.497 106.19 125.501 106.156 125.505 106.122C125.729 104.202 125.959 102.222 125.208 100.415L125.493 106.225Z" fill="#121212" stroke="#515265" stroke-width="0.18633"/>
    </g>
</svg>
