<svg width="134" height="147" viewBox="0 0 134 147" fill="none" xmlns="http://www.w3.org/2000/svg">
    <g opacity="0.4">
        <path opacity="0.12" d="M5.87351 35.9244C6.19377 27.2607 9.88511 18.5464 16.7453 13.2369C23.6055 7.92747 33.7019 6.74759 41.0509 11.4166C43.2589 12.8156 45.1467 14.6865 47.3548 16.0687C54.3498 20.4679 63.4518 19.5409 71.3233 17.0463C79.1948 14.5517 86.6617 10.5906 94.8029 9.25905C102.944 7.92747 112.467 9.93327 116.934 16.8609C121.401 23.7885 118.94 34.0534 112.535 39.4472C107.091 44.015 99.0505 46.1894 96.1177 52.5944C95.0201 55.4751 94.5212 58.5491 94.6512 61.629C94.3815 70.3601 94.3815 79.7823 99.5562 86.811C102.133 89.8759 105.019 92.6663 108.169 95.1376C114.911 101.155 120.457 108.959 120.693 118.331C120.804 121.315 120.228 124.285 119.007 127.011C114.271 137.125 103.483 138.372 93.9264 137.647C86.5943 137.108 79.0936 135.709 72.0143 137.647C66.8566 139.012 62.2887 142.03 57.3332 144.052C49.9564 147.033 41.8604 147.754 34.0727 146.125C29.3074 145.287 24.8871 143.086 21.3468 139.788C14.217 132.624 14.335 121.078 16.0711 111.133C17.8072 101.189 20.6895 90.7889 17.5375 81.1982C16.7416 78.8863 15.7019 76.6658 14.4361 74.574C7.69264 63.3556 4.64983 50.2998 5.73867 37.256L5.87351 35.9244Z" fill="#D8D9DD"/>
        <path d="M117.844 46.239V103.16C117.819 106.536 116.898 109.844 115.174 112.747C113.45 115.649 110.986 118.041 108.034 119.678C105.237 121.241 102.086 122.059 98.8815 122.055H34.0554C31.3512 122.071 28.676 121.496 26.2176 120.369C22.9103 118.865 20.1032 116.445 18.1287 113.395C16.1541 110.345 15.0948 106.793 15.0762 103.16V46.239C15.0895 41.2095 17.0934 36.3898 20.6498 32.8334C24.2062 29.277 29.0259 27.2731 34.0554 27.2598H98.8815C103.908 27.2776 108.723 29.2834 112.276 32.8393C115.829 36.3953 117.831 41.2124 117.844 46.239Z" fill="#F8F9FC"/>
        <path d="M7.711 96.0479L7.18848 99.7898L7.711 96.0479Z" fill="#B2B2BB"/>
        <path d="M7.54151 100.633C7.6845 100.571 7.80918 100.473 7.90363 100.349C7.99807 100.225 8.0591 100.079 8.08089 99.9246L8.60341 96.1827C8.62001 96.0599 8.61225 95.9349 8.58057 95.8151C8.5489 95.6952 8.49393 95.5828 8.4188 95.4842C8.26707 95.285 8.04245 95.1543 7.79434 95.1208C7.6715 95.1042 7.54658 95.112 7.42673 95.1436C7.30688 95.1753 7.19444 95.2303 7.09583 95.3054C6.89669 95.4571 6.76598 95.6818 6.73245 95.9299L6.20993 99.6718C6.18755 99.8319 6.20824 99.9952 6.26988 100.145C6.33152 100.294 6.43187 100.425 6.56062 100.522C6.68937 100.62 6.84187 100.682 7.00242 100.701C7.16297 100.721 7.32577 100.697 7.47409 100.633H7.54151Z" fill="#B2B2BB"/>
        <path d="M5.57031 97.665L9.31223 98.1876L5.57031 97.665Z" fill="#B2B2BB"/>
        <path d="M9.68286 99.0304C9.84478 98.9416 9.97584 98.8056 10.0587 98.6405C10.1415 98.4755 10.1721 98.2891 10.1465 98.1062C10.1209 97.9233 10.0403 97.7525 9.91529 97.6165C9.79034 97.4806 9.62697 97.3858 9.44689 97.3449L5.70497 96.7549C5.46581 96.7214 5.22312 96.7842 5.0303 96.9296C4.83748 97.0751 4.71032 97.2911 4.67679 97.5303C4.64326 97.7694 4.70612 98.0121 4.85152 98.2049C4.99693 98.3978 5.21298 98.5249 5.45214 98.5584L9.19405 99.081C9.35854 99.1092 9.52764 99.0918 9.68286 99.0304Z" fill="#B2B2BB"/>
        <path d="M0.193003 77.9613C0.00360336 77.5065 -0.0478453 77.0061 0.045062 76.5222C0.137969 76.0384 0.371129 75.5926 0.715515 75.2403C1.0599 74.888 1.5003 74.6447 1.98189 74.5408C2.46349 74.437 2.965 74.477 3.42399 74.656C3.88299 74.835 4.2792 75.1451 4.5633 75.5476C4.8474 75.9501 5.00684 76.4273 5.02178 76.9197C5.03671 77.4122 4.90647 77.8981 4.64729 78.3171C4.3881 78.7361 4.0114 79.0696 3.5641 79.2761C3.25738 79.4177 2.92525 79.4959 2.58759 79.5061C2.24993 79.5164 1.91367 79.4584 1.59894 79.3357C1.28421 79.2129 0.997473 79.0279 0.755899 78.7918C0.514324 78.5556 0.322873 78.2732 0.193003 77.9613ZM1.45716 77.422C1.5562 77.6222 1.71159 77.7891 1.90423 77.9022C2.09686 78.0153 2.31835 78.0697 2.54146 78.0586C2.76457 78.0475 2.97958 77.9714 3.16005 77.8398C3.34051 77.7081 3.47857 77.5266 3.55726 77.3175C3.63594 77.1085 3.65181 76.881 3.60293 76.663C3.55404 76.445 3.44252 76.2461 3.28209 76.0906C3.12165 75.9352 2.91929 75.83 2.69988 75.7881C2.48047 75.7461 2.25358 75.7691 2.0471 75.8544C1.90194 75.9143 1.77064 76.0035 1.66136 76.1163C1.55207 76.2291 1.46714 76.3631 1.41182 76.5101C1.3565 76.6571 1.33198 76.8139 1.33978 76.9707C1.34758 77.1276 1.38753 77.2812 1.45716 77.422Z" fill="#B2B2BB"/>
        <path d="M6.34731 112.2C7.03901 111.9 7.3564 111.096 7.05622 110.404C6.75603 109.712 5.95195 109.395 5.26025 109.695C4.56855 109.995 4.25116 110.799 4.55135 111.491C4.85153 112.183 5.65561 112.5 6.34731 112.2Z" fill="#B2B2BB"/>
        <path d="M79.4302 141.203C79.5224 141.046 79.6541 140.916 79.8123 140.825C79.9705 140.734 80.1497 140.687 80.332 140.687C80.5143 140.687 80.6935 140.734 80.8517 140.825C81.0099 140.916 81.1416 141.046 81.2338 141.203L81.8069 142.198L82.3799 143.192C82.4712 143.35 82.5195 143.53 82.52 143.712C82.5205 143.894 82.4732 144.074 82.3829 144.232C82.2926 144.391 82.1623 144.523 82.005 144.616C81.8478 144.708 81.6691 144.758 81.4866 144.76H79.2111C79.0287 144.758 78.8499 144.708 78.6927 144.616C78.5354 144.523 78.4052 144.391 78.3148 144.232C78.2245 144.074 78.1772 143.894 78.1777 143.712C78.1783 143.53 78.2265 143.35 78.3178 143.192L78.8909 142.198L79.4302 141.203Z" fill="#B2B2BB"/>
        <path d="M127.064 66.0107L125.092 69.2301L127.064 66.0107Z" fill="#B2B2BB"/>
        <path d="M125.092 70.1578C125.248 70.1573 125.401 70.1167 125.537 70.04C125.673 69.9632 125.787 69.8529 125.867 69.7195L127.84 66.5001C127.965 66.2923 128.002 66.0432 127.944 65.8077C127.885 65.5722 127.736 65.3696 127.528 65.2444C127.32 65.1192 127.071 65.0818 126.835 65.1402C126.6 65.1987 126.397 65.3484 126.272 65.5562L124.3 68.7756C124.216 68.9135 124.171 69.071 124.168 69.2322C124.165 69.3933 124.205 69.5523 124.284 69.6929C124.363 69.8335 124.478 69.9506 124.617 70.0323C124.756 70.1139 124.914 70.1573 125.075 70.1578H125.092Z" fill="#B2B2BB"/>
        <path d="M124.469 66.6514L127.688 68.6066L124.469 66.6514Z" fill="#B2B2BB"/>
        <path d="M127.688 69.517C127.886 69.516 128.078 69.4506 128.235 69.3306C128.392 69.2107 128.506 69.0427 128.56 68.8523C128.613 68.6618 128.603 68.4591 128.531 68.2749C128.459 68.0908 128.328 67.9351 128.16 67.8315L124.941 65.8594C124.838 65.7974 124.724 65.7563 124.605 65.7384C124.486 65.7206 124.365 65.7263 124.248 65.7552C124.132 65.7842 124.022 65.8358 123.925 65.9072C123.828 65.9786 123.747 66.0683 123.685 66.1712C123.623 66.2742 123.582 66.3883 123.564 66.5071C123.546 66.6259 123.552 66.7471 123.581 66.8637C123.61 66.9803 123.661 67.09 123.733 67.1867C123.804 67.2833 123.894 67.365 123.997 67.427L127.216 69.399C127.36 69.4805 127.523 69.5213 127.688 69.517Z" fill="#B2B2BB"/>
        <path d="M121.89 50.0991C121.89 49.6024 122.037 49.1168 122.313 48.7038C122.589 48.2908 122.981 47.9689 123.44 47.7788C123.899 47.5887 124.404 47.539 124.891 47.6359C125.378 47.7328 125.826 47.972 126.177 48.3232C126.528 48.6745 126.767 49.122 126.864 49.6091C126.961 50.0963 126.911 50.6013 126.721 51.0602C126.531 51.5191 126.209 51.9114 125.796 52.1873C125.383 52.4633 124.898 52.6106 124.401 52.6106C123.735 52.6106 123.096 52.346 122.625 51.875C122.154 51.404 121.89 50.7652 121.89 50.0991ZM123.255 50.0991C123.255 50.3258 123.322 50.5474 123.448 50.7359C123.574 50.9244 123.753 51.0713 123.962 51.158C124.172 51.2448 124.402 51.2675 124.625 51.2233C124.847 51.179 125.051 51.0699 125.212 50.9096C125.372 50.7493 125.481 50.5451 125.525 50.3227C125.569 50.1004 125.547 49.8699 125.46 49.6605C125.373 49.4511 125.226 49.272 125.038 49.1461C124.849 49.0202 124.628 48.9529 124.401 48.9529C124.097 48.9529 123.806 49.0737 123.591 49.2886C123.376 49.5036 123.255 49.7951 123.255 50.0991Z" fill="#B2B2BB"/>
        <path d="M126.693 87.5863C127.447 87.5863 128.059 86.975 128.059 86.221C128.059 85.467 127.447 84.8557 126.693 84.8557C125.939 84.8557 125.328 85.467 125.328 86.221C125.328 86.975 125.939 87.5863 126.693 87.5863Z" fill="#B2B2BB"/>
        <path d="M132.07 98.6937C131.978 98.5363 131.846 98.4058 131.688 98.3151C131.53 98.2245 131.351 98.1768 131.168 98.1768C130.986 98.1768 130.807 98.2245 130.649 98.3151C130.491 98.4058 130.359 98.5363 130.267 98.6937L129.694 99.6881L129.121 100.683C129.029 100.841 128.981 101.02 128.98 101.202C128.98 101.385 129.027 101.564 129.118 101.723C129.208 101.881 129.338 102.013 129.495 102.106C129.653 102.198 129.831 102.248 130.014 102.25H132.306C132.489 102.248 132.667 102.198 132.825 102.106C132.982 102.013 133.112 101.881 133.202 101.723C133.293 101.564 133.34 101.385 133.34 101.202C133.339 101.02 133.291 100.841 133.2 100.683L132.626 99.6881L132.07 98.6937Z" fill="#B2B2BB"/>
        <path d="M55.9346 7.23624L59.154 5.28101L55.9346 7.23624Z" fill="#B2B2BB"/>
        <path d="M60.0631 5.28083C60.0625 5.43678 60.022 5.59 59.9452 5.72577C59.8685 5.86154 59.7582 5.97531 59.6248 6.05618L56.4054 8.01141C56.1975 8.13658 55.9485 8.17405 55.713 8.11557C55.4775 8.05709 55.2749 7.90746 55.1497 7.69959C55.0245 7.49171 54.987 7.24263 55.0455 7.00714C55.104 6.77164 55.2536 6.56902 55.4615 6.44385L58.6809 4.47176C58.8187 4.38819 58.9763 4.34271 59.1374 4.33997C59.2986 4.33724 59.4576 4.37736 59.5982 4.45622C59.7387 4.53508 59.8559 4.64986 59.9375 4.78881C60.0192 4.92777 60.0625 5.08593 60.0631 5.24712V5.28083Z" fill="#B2B2BB"/>
        <path d="M56.5576 4.63989L58.5297 7.85929L56.5576 4.63989Z" fill="#B2B2BB"/>
        <path d="M59.4395 7.85954C59.4385 8.05734 59.3731 8.24942 59.2531 8.4067C59.1332 8.56399 58.9652 8.67792 58.7748 8.73125C58.5843 8.78459 58.3816 8.77442 58.1974 8.70229C58.0133 8.63016 57.8576 8.49999 57.754 8.33149L55.7819 5.06153C55.683 4.96346 55.608 4.84401 55.5625 4.71237C55.5171 4.58073 55.5024 4.44042 55.5197 4.30224C55.5371 4.16405 55.5858 4.03168 55.6623 3.91531C55.7388 3.79895 55.841 3.70169 55.961 3.63102C56.081 3.56035 56.2156 3.51816 56.3545 3.5077C56.4934 3.49724 56.6328 3.51878 56.762 3.57067C56.8913 3.62256 57.0069 3.70341 57.0999 3.807C57.193 3.9106 57.2611 4.03416 57.2989 4.16819L59.271 7.38759C59.3702 7.52603 59.4286 7.68955 59.4395 7.85954Z" fill="#B2B2BB"/>
        <path d="M29.7065 6.4099C29.7065 6.90662 29.5592 7.39219 29.2833 7.8052C29.0073 8.2182 28.6151 8.5401 28.1562 8.73019C27.6972 8.92028 27.1923 8.97001 26.7051 8.87311C26.2179 8.7762 25.7704 8.53701 25.4192 8.18577C25.068 7.83454 24.8288 7.38704 24.7319 6.89986C24.6349 6.41269 24.6847 5.90772 24.8748 5.44881C25.0649 4.9899 25.3868 4.59766 25.7998 4.3217C26.2128 4.04573 26.6983 3.89844 27.1951 3.89844C27.8611 3.89844 28.4999 4.16304 28.9709 4.63403C29.4419 5.10502 29.7065 5.74382 29.7065 6.4099ZM26.0489 6.4099C26.0489 6.63659 26.1161 6.85819 26.2421 7.04668C26.368 7.23517 26.547 7.38207 26.7564 7.46883C26.9659 7.55558 27.1963 7.57827 27.4187 7.53405C27.641 7.48982 27.8452 7.38066 28.0055 7.22037C28.1658 7.06007 28.275 6.85584 28.3192 6.63351C28.3634 6.41117 28.3407 6.18072 28.254 5.97128C28.1672 5.76185 28.0203 5.58284 27.8318 5.45689C27.6434 5.33095 27.4217 5.26373 27.1951 5.26373C26.8911 5.26373 26.5995 5.38449 26.3846 5.59944C26.1696 5.81438 26.0489 6.10592 26.0489 6.4099Z" fill="#B2B2BB"/>
        <path d="M87.1163 8.23059C87.8703 8.23059 88.4816 7.61932 88.4816 6.86529C88.4816 6.11126 87.8703 5.5 87.1163 5.5C86.3622 5.5 85.751 6.11126 85.751 6.86529C85.751 7.61932 86.3622 8.23059 87.1163 8.23059Z" fill="#B2B2BB"/>
        <path d="M108.725 3.08951C108.568 2.99736 108.437 2.86564 108.346 2.70745C108.256 2.54925 108.208 2.37008 108.208 2.18774C108.208 2.0054 108.256 1.82623 108.346 1.66803C108.437 1.50984 108.568 1.37812 108.725 1.28597L109.719 0.712888L110.714 0.139802C110.872 0.0485601 111.051 0.000278561 111.233 -0.00023992C111.416 -0.000758401 111.595 0.0465043 111.754 0.136847C111.912 0.227189 112.045 0.357463 112.137 0.514708C112.23 0.671954 112.279 0.850692 112.281 1.03314V3.37605C112.279 3.5585 112.23 3.73724 112.137 3.89448C112.045 4.05173 111.912 4.182 111.754 4.27235C111.595 4.36269 111.416 4.40995 111.233 4.40943C111.051 4.40891 110.872 4.36063 110.714 4.26939L109.719 3.6963L108.725 3.08951Z" fill="#B2B2BB"/>
        <path d="M116.529 39.329V39.8516C105.472 36.8513 93.8081 34.6601 82.1272 36.0254C74.9131 36.8681 68.3057 39.0256 61.3107 40.3741C46.5834 43.02 31.4352 42.0776 17.1494 37.6266C18.4979 32.2329 26.1671 28.0527 35.3196 28.0527H98.1399C108.253 28.0527 116.529 33.1262 116.529 39.329Z" fill="#B2B2BB"/>
        <path d="M42.2314 84.9735C46.5973 84.9735 50.1366 81.4342 50.1366 77.0683C50.1366 72.7024 46.5973 69.1631 42.2314 69.1631C37.8655 69.1631 34.3262 72.7024 34.3262 77.0683C34.3262 81.4342 37.8655 84.9735 42.2314 84.9735Z" fill="white"/>
        <path d="M65.9462 84.9735C70.3122 84.9735 73.8514 81.4342 73.8514 77.0683C73.8514 72.7024 70.3122 69.1631 65.9462 69.1631C61.5803 69.1631 58.041 72.7024 58.041 77.0683C58.041 81.4342 61.5803 84.9735 65.9462 84.9735Z" fill="white"/>
        <path d="M89.6611 84.9735C94.027 84.9735 97.5663 81.4342 97.5663 77.0683C97.5663 72.7024 94.027 69.1631 89.6611 69.1631C85.2951 69.1631 81.7559 72.7024 81.7559 77.0683C81.7559 81.4342 85.2951 84.9735 89.6611 84.9735Z" fill="white"/>
        <path d="M42.2314 108.689C46.5973 108.689 50.1366 105.15 50.1366 100.784C50.1366 96.4182 46.5973 92.8789 42.2314 92.8789C37.8655 92.8789 34.3262 96.4182 34.3262 100.784C34.3262 105.15 37.8655 108.689 42.2314 108.689Z" fill="white"/>
        <path d="M65.9462 108.689C70.3122 108.689 73.8514 105.15 73.8514 100.784C73.8514 96.4182 70.3122 92.8789 65.9462 92.8789C61.5803 92.8789 58.041 96.4182 58.041 100.784C58.041 105.15 61.5803 108.689 65.9462 108.689Z" fill="white"/>
        <path d="M89.6611 108.689C94.027 108.689 97.5663 105.15 97.5663 100.784C97.5663 96.4182 94.027 92.8789 89.6611 92.8789C85.2951 92.8789 81.7559 96.4182 81.7559 100.784C81.7559 105.15 85.2951 108.689 89.6611 108.689Z" fill="white"/>
        <path d="M49.7826 74.6914C50.0135 75.4626 50.1327 76.263 50.1366 77.068C50.1366 79.1646 49.3037 81.1753 47.8212 82.6579C46.3387 84.1404 44.328 84.9732 42.2314 84.9732C40.1348 84.9732 38.1241 84.1404 36.6416 82.6579C35.159 81.1753 34.3262 79.1646 34.3262 77.068C34.33 76.263 34.4492 75.4626 34.6801 74.6914C35.1713 76.3209 36.1742 77.7489 37.5404 78.7639C38.9065 79.779 40.5632 80.3271 42.2651 80.3271C43.967 80.3271 45.6237 79.779 46.9898 78.7639C48.3559 77.7489 49.3589 76.3209 49.85 74.6914H49.7826Z" fill="#B2B2BB"/>
        <path d="M81.7568 77.068C81.7607 76.263 81.8799 75.4626 82.1108 74.6914C82.602 76.3209 83.6049 77.7489 84.971 78.7639C86.3371 79.779 87.9938 80.3271 89.6958 80.3271C91.3977 80.3271 93.0544 79.779 94.4205 78.7639C95.7866 77.7489 96.7895 76.3209 97.2807 74.6914C97.5116 75.4626 97.6308 76.263 97.6347 77.068C97.6347 79.1646 96.8018 81.1753 95.3193 82.6579C93.8368 84.1404 91.8261 84.9732 89.7295 84.9732C87.6329 84.9732 85.6222 84.1404 84.1396 82.6579C82.6571 81.1753 81.8243 79.1646 81.8243 77.068H81.7568Z" fill="#B2B2BB"/>
        <path d="M49.7826 98.4072C50.0135 99.1785 50.1327 99.9788 50.1366 100.784C50.1366 102.88 49.3037 104.891 47.8212 106.374C46.3387 107.856 44.328 108.689 42.2314 108.689C40.1348 108.689 38.1241 107.856 36.6416 106.374C35.159 104.891 34.3262 102.88 34.3262 100.784C34.33 99.9788 34.4492 99.1785 34.6801 98.4072C35.1713 100.037 36.1742 101.465 37.5404 102.48C38.9065 103.495 40.5632 104.043 42.2651 104.043C43.967 104.043 45.6237 103.495 46.9898 102.48C48.3559 101.465 49.3589 100.037 49.85 98.4072H49.7826Z" fill="#B2B2BB"/>
        <path d="M97.2123 98.4072C97.4432 99.1785 97.5624 99.9788 97.5663 100.784C97.5663 102.88 96.7334 104.891 95.2509 106.374C93.7684 107.856 91.7577 108.689 89.6611 108.689C87.5645 108.689 85.5538 107.856 84.0712 106.374C82.5887 104.891 81.7559 102.88 81.7559 100.784C81.7597 99.9788 81.8789 99.1785 82.1098 98.4072C82.601 100.037 83.6039 101.465 84.9701 102.48C86.3362 103.495 87.9929 104.043 89.6948 104.043C91.3967 104.043 93.0534 103.495 94.4195 102.48C95.7856 101.465 96.7886 100.037 97.2797 98.4072H97.2123Z" fill="#B2B2BB"/>
        <path d="M73.4975 74.6914C73.7284 75.4626 73.8476 76.263 73.8514 77.068C73.8514 79.1646 73.0186 81.1753 71.5361 82.6579C70.0535 84.1404 68.0428 84.9732 65.9462 84.9732C63.8496 84.9732 61.8389 84.1404 60.3564 82.6579C58.8739 81.1753 58.041 79.1646 58.041 77.068C58.0449 76.263 58.1641 75.4626 58.395 74.6914C58.8862 76.3209 59.8891 77.7489 61.2552 78.7639C62.6213 79.779 64.278 80.3271 65.9799 80.3271C67.6819 80.3271 69.3386 79.779 70.7047 78.7639C72.0708 77.7489 73.0737 76.3209 73.5649 74.6914H73.4975Z" fill="#B2B2BB"/>
        <path d="M73.4975 98.4072C73.7284 99.1785 73.8476 99.9788 73.8514 100.784C73.8514 102.88 73.0186 104.891 71.5361 106.374C70.0535 107.856 68.0428 108.689 65.9462 108.689C63.8496 108.689 61.8389 107.856 60.3564 106.374C58.8739 104.891 58.041 102.88 58.041 100.784C58.0449 99.9788 58.1641 99.1785 58.395 98.4072C58.8862 100.037 59.8891 101.465 61.2552 102.48C62.6213 103.495 64.278 104.043 65.9799 104.043C67.6819 104.043 69.3386 103.495 70.7047 102.48C72.0708 101.465 73.0737 100.037 73.5649 98.4072H73.4975Z" fill="#B2B2BB"/>
        <path opacity="0.5" d="M108.034 119.679C106.373 122.56 103.983 124.953 101.104 126.619C98.2256 128.284 94.9596 129.164 91.6338 129.168H42.2305C39.0338 129.162 35.8904 128.35 33.0914 126.806C30.2923 125.262 27.9281 123.037 26.2178 120.336C28.6762 121.463 31.3513 122.038 34.0556 122.022H98.8817C102.083 122.036 105.234 121.23 108.034 119.679Z" fill="#D8D9DD"/>
        <path d="M49.8661 62.9434H34.0557C33.6086 62.9434 33.1799 62.7658 32.8638 62.4497C32.5477 62.1336 32.3701 61.7048 32.3701 61.2578C32.3701 60.8108 32.5477 60.3821 32.8638 60.0659C33.1799 59.7498 33.6086 59.5723 34.0557 59.5723H49.8661C50.3131 59.5723 50.7418 59.7498 51.0579 60.0659C51.374 60.3821 51.5516 60.8108 51.5516 61.2578C51.5516 61.7048 51.374 62.1336 51.0579 62.4497C50.7418 62.7658 50.3131 62.9434 49.8661 62.9434Z" fill="#515265"/>
        <path d="M74.3739 62.9434H58.5635C58.1164 62.9434 57.6877 62.7658 57.3716 62.4497C57.0555 62.1336 56.8779 61.7048 56.8779 61.2578C56.8779 60.8108 57.0555 60.3821 57.3716 60.0659C57.6877 59.7498 58.1164 59.5723 58.5635 59.5723H74.3739C74.8209 59.5723 75.2497 59.7498 75.5658 60.0659C75.8819 60.3821 76.0594 60.8108 76.0594 61.2578C76.0594 61.7048 75.8819 62.1336 75.5658 62.4497C75.2497 62.7658 74.8209 62.9434 74.3739 62.9434Z" fill="#515265"/>
        <path d="M98.8827 62.9434H83.0723C82.6252 62.9434 82.1965 62.7658 81.8804 62.4497C81.5643 62.1336 81.3867 61.7048 81.3867 61.2578C81.3867 60.8108 81.5643 60.3821 81.8804 60.0659C82.1965 59.7498 82.6252 59.5723 83.0723 59.5723H98.8827C99.3297 59.5723 99.7584 59.7498 100.075 60.0659C100.391 60.3821 100.568 60.8108 100.568 61.2578C100.568 61.7048 100.391 62.1336 100.075 62.4497C99.7584 62.7658 99.3297 62.9434 98.8827 62.9434Z" fill="#515265"/>
        <path d="M42.7529 86.6593C40.856 86.6593 39.0017 86.0968 37.4245 85.043C35.8473 83.9891 34.6181 82.4912 33.8922 80.7388C33.1663 78.9863 32.9763 77.0579 33.3464 75.1975C33.7165 73.3371 34.6299 71.6281 35.9712 70.2869C37.3125 68.9456 39.0214 68.0321 40.8818 67.6621C42.7422 67.292 44.6706 67.4819 46.4231 68.2078C48.1756 68.9337 49.6734 70.163 50.7273 71.7402C51.7811 73.3174 52.3436 75.1717 52.3436 77.0685C52.3392 79.6108 51.3273 82.0477 49.5296 83.8453C47.732 85.643 45.2951 86.6548 42.7529 86.6593ZM42.7529 70.8489C41.5227 70.8489 40.3202 71.2137 39.2974 71.8971C38.2746 72.5805 37.4774 73.5519 37.0066 74.6884C36.5359 75.8249 36.4127 77.0754 36.6527 78.2819C36.8927 79.4884 37.4851 80.5967 38.3549 81.4665C39.2247 82.3363 40.333 82.9287 41.5395 83.1687C42.746 83.4087 43.9965 83.2855 45.133 82.8148C46.2695 82.344 47.2409 81.5468 47.9243 80.524C48.6078 79.5012 48.9725 78.2987 48.9725 77.0685C48.9792 76.2475 48.8233 75.4333 48.5137 74.6728C48.2041 73.9124 47.747 73.2208 47.1688 72.6379C46.5906 72.0549 45.9027 71.5923 45.1448 71.2765C44.3869 70.9608 43.5739 70.7983 42.7529 70.7983V70.8489Z" fill="#515265"/>
        <path d="M66.4687 86.6593C64.5718 86.6593 62.7175 86.0968 61.1403 85.043C59.5632 83.9891 58.3339 82.4912 57.608 80.7388C56.8821 78.9863 56.6922 77.0579 57.0622 75.1975C57.4323 73.3371 58.3457 71.6281 59.687 70.2869C61.0283 68.9456 62.7372 68.0321 64.5976 67.6621C66.4581 67.292 68.3864 67.4819 70.1389 68.2078C71.8914 68.9337 73.3893 70.163 74.4431 71.7402C75.497 73.3174 76.0594 75.1717 76.0594 77.0685C76.055 79.6108 75.0431 82.0477 73.2455 83.8453C71.4478 85.643 69.0109 86.6548 66.4687 86.6593ZM66.4687 70.8489C65.2386 70.8489 64.036 71.2137 63.0132 71.8971C61.9904 72.5805 61.1932 73.5519 60.7225 74.6884C60.2517 75.8249 60.1285 77.0754 60.3685 78.2819C60.6085 79.4884 61.2009 80.5967 62.0707 81.4665C62.9406 82.3363 64.0488 82.9287 65.2553 83.1687C66.4618 83.4087 67.7124 83.2855 68.8489 82.8148C69.9853 82.344 70.9567 81.5468 71.6402 80.524C72.3236 79.5012 72.6884 78.2987 72.6884 77.0685C72.695 76.2475 72.5391 75.4333 72.2295 74.6728C71.9199 73.9124 71.4628 73.2208 70.8846 72.6379C70.3064 72.0549 69.6185 71.5923 68.8606 71.2765C68.1027 70.9608 67.2897 70.7983 66.4687 70.7983V70.8489Z" fill="#515265"/>
        <path d="M90.1845 86.6593C88.2876 86.6593 86.4334 86.0968 84.8562 85.043C83.279 83.9891 82.0497 82.4912 81.3238 80.7388C80.5979 78.9863 80.408 77.0579 80.778 75.1975C81.1481 73.3371 82.0615 71.6281 83.4028 70.2869C84.7441 68.9456 86.453 68.0321 88.3134 67.6621C90.1739 67.292 92.1023 67.4819 93.8547 68.2078C95.6072 68.9337 97.1051 70.163 98.1589 71.7402C99.2128 73.3174 99.7753 75.1717 99.7753 77.0685C99.7708 79.6108 98.7589 82.0477 96.9613 83.8453C95.1636 85.643 92.7268 86.6548 90.1845 86.6593ZM90.1845 70.8489C88.9544 70.8489 87.7519 71.2137 86.729 71.8971C85.7062 72.5805 84.909 73.5519 84.4383 74.6884C83.9675 75.8249 83.8444 77.0754 84.0844 78.2819C84.3243 79.4884 84.9167 80.5967 85.7865 81.4665C86.6564 82.3363 87.7646 82.9287 88.9711 83.1687C90.1776 83.4087 91.4282 83.2855 92.5647 82.8148C93.7012 82.344 94.6725 81.5468 95.356 80.524C96.0394 79.5012 96.4042 78.2987 96.4042 77.0685C96.4109 76.2475 96.2549 75.4333 95.9453 74.6728C95.6357 73.9124 95.1787 73.2208 94.6005 72.6379C94.0222 72.0549 93.3343 71.5923 92.5764 71.2765C91.8185 70.9608 91.0056 70.7983 90.1845 70.7983V70.8489Z" fill="#515265"/>
        <path d="M42.7529 110.374C40.856 110.374 39.0017 109.811 37.4245 108.758C35.8473 107.704 34.6181 106.206 33.8922 104.453C33.1663 102.701 32.9763 100.773 33.3464 98.9121C33.7165 97.0517 34.6299 95.3427 35.9712 94.0015C37.3125 92.6602 39.0214 91.7467 40.8818 91.3767C42.7422 91.0066 44.6706 91.1965 46.4231 91.9224C48.1756 92.6483 49.6734 93.8776 50.7273 95.4548C51.7811 97.032 52.3436 98.8863 52.3436 100.783C52.3392 103.325 51.3273 105.762 49.5296 107.56C47.732 109.358 45.2951 110.369 42.7529 110.374ZM42.7529 94.5635C41.5227 94.5635 40.3202 94.9283 39.2974 95.6117C38.2746 96.2951 37.4774 97.2665 37.0066 98.403C36.5359 99.5395 36.4127 100.79 36.6527 101.997C36.8927 103.203 37.4851 104.311 38.3549 105.181C39.2247 106.051 40.333 106.643 41.5395 106.883C42.746 107.123 43.9965 107 45.133 106.529C46.2695 106.059 47.2409 105.261 47.9243 104.239C48.6078 103.216 48.9725 102.013 48.9725 100.783C48.9725 99.1336 48.3172 97.5516 47.1508 96.3852C45.9844 95.2188 44.4024 94.5635 42.7529 94.5635Z" fill="#515265"/>
        <path d="M66.4687 110.374C64.5718 110.374 62.7175 109.811 61.1403 108.758C59.5632 107.704 58.3339 106.206 57.608 104.453C56.8821 102.701 56.6922 100.773 57.0622 98.9121C57.4323 97.0517 58.3457 95.3427 59.687 94.0015C61.0283 92.6602 62.7372 91.7467 64.5976 91.3767C66.4581 91.0066 68.3864 91.1965 70.1389 91.9224C71.8914 92.6483 73.3893 93.8776 74.4431 95.4548C75.497 97.032 76.0594 98.8863 76.0594 100.783C76.055 103.325 75.0431 105.762 73.2455 107.56C71.4478 109.358 69.0109 110.369 66.4687 110.374ZM66.4687 94.5635C65.2386 94.5635 64.036 94.9283 63.0132 95.6117C61.9904 96.2951 61.1932 97.2665 60.7225 98.403C60.2517 99.5395 60.1285 100.79 60.3685 101.997C60.6085 103.203 61.2009 104.311 62.0707 105.181C62.9406 106.051 64.0488 106.643 65.2553 106.883C66.4618 107.123 67.7124 107 68.8489 106.529C69.9853 106.059 70.9567 105.261 71.6402 104.239C72.3236 103.216 72.6884 102.013 72.6884 100.783C72.6884 99.1336 72.0331 97.5516 70.8667 96.3852C69.7002 95.2188 68.1182 94.5635 66.4687 94.5635Z" fill="#515265"/>
        <path d="M90.1845 110.374C88.2876 110.374 86.4334 109.811 84.8562 108.758C83.279 107.704 82.0497 106.206 81.3238 104.453C80.5979 102.701 80.408 100.773 80.778 98.9121C81.1481 97.0517 82.0615 95.3427 83.4028 94.0015C84.7441 92.6602 86.453 91.7467 88.3134 91.3767C90.1739 91.0066 92.1023 91.1965 93.8547 91.9224C95.6072 92.6483 97.1051 93.8776 98.1589 95.4548C99.2128 97.032 99.7753 98.8863 99.7753 100.783C99.7708 103.325 98.7589 105.762 96.9613 107.56C95.1636 109.358 92.7268 110.369 90.1845 110.374ZM90.1845 94.5635C88.9544 94.5635 87.7519 94.9283 86.729 95.6117C85.7062 96.2951 84.909 97.2665 84.4383 98.403C83.9675 99.5395 83.8444 100.79 84.0844 101.997C84.3243 103.203 84.9167 104.311 85.7865 105.181C86.6564 106.051 87.7646 106.643 88.9711 106.883C90.1776 107.123 91.4282 107 92.5647 106.529C93.7012 106.059 94.6725 105.261 95.356 104.239C96.0394 103.216 96.4042 102.013 96.4042 100.783C96.4042 99.1336 95.7489 97.5516 94.5825 96.3852C93.4161 95.2188 91.8341 94.5635 90.1845 94.5635Z" fill="#515265"/>
        <path d="M20.8418 53.7234H24.2129V117.774H20.8418V53.7234Z" fill="white"/>
        <path d="M26.7412 53.7234H28.4268V119.46H26.7412V53.7234Z" fill="white"/>
        <path d="M98.8815 123.826H34.0554C31.1032 123.828 28.1864 123.183 25.5097 121.938C21.9059 120.294 18.8488 117.652 16.7009 114.324C14.5529 110.996 13.4041 107.122 13.3906 103.161V46.24C13.3951 40.7607 15.5737 35.5071 19.4481 31.6327C23.3226 27.7583 28.5761 25.5797 34.0554 25.5752H98.8815C104.358 25.5841 109.607 27.7647 113.478 31.6387C117.349 35.5126 119.525 40.7636 119.529 46.24V103.161C119.521 108.636 117.343 113.884 113.473 117.757C109.603 121.63 104.356 123.812 98.8815 123.826ZM34.0554 28.9463C29.4702 28.9507 25.0741 30.7742 21.8319 34.0164C18.5896 37.2587 16.7662 41.6548 16.7617 46.24V103.161C16.7724 106.472 17.7303 109.71 19.5224 112.494C21.3144 115.277 23.8658 117.49 26.875 118.87C29.1137 119.91 31.5534 120.445 34.0217 120.438H98.8815C101.797 120.451 104.666 119.707 107.208 118.28C109.919 116.781 112.178 114.584 113.752 111.916C115.326 109.248 116.157 106.208 116.158 103.11V46.24C116.154 41.6577 114.333 37.2641 111.094 34.0224C107.856 30.7806 103.464 28.9552 98.8815 28.9463H34.0554Z" fill="#515265"/>
        <path d="M115.484 55.0391H17.4531C17.0061 55.0391 16.5774 54.8615 16.2613 54.5454C15.9452 54.2293 15.7676 53.8005 15.7676 53.3535C15.7676 52.9065 15.9452 52.4778 16.2613 52.1617C16.5774 51.8456 17.0061 51.668 17.4531 51.668H115.484C115.932 51.668 116.36 51.8456 116.676 52.1617C116.992 52.4778 117.17 52.9065 117.17 53.3535C117.17 53.8005 116.992 54.2293 116.676 54.5454C116.36 54.8615 115.932 55.0391 115.484 55.0391Z" fill="#515265"/>
        <path d="M43.0056 14.417H42.382C40.3712 14.417 38.7412 16.047 38.7412 18.0578V29.7555C38.7412 31.7662 40.3712 33.3962 42.382 33.3962H43.0056C45.0164 33.3962 46.6464 31.7662 46.6464 29.7555V18.0578C46.6464 16.047 45.0164 14.417 43.0056 14.417Z" fill="white"/>
        <path d="M43.2586 35.064H42.6349C41.2223 35.064 39.8675 34.5028 38.8686 33.5039C37.8698 32.505 37.3086 31.1503 37.3086 29.7376V18.0568C37.3086 16.6442 37.8698 15.2894 38.8686 14.2905C39.8675 13.2916 41.2223 12.7305 42.6349 12.7305H43.2586C44.6712 12.7305 46.026 13.2916 47.0249 14.2905C48.0237 15.2894 48.5849 16.6442 48.5849 18.0568V29.7545C48.5804 31.1642 48.0173 32.5146 47.0189 33.5099C46.0205 34.5051 44.6683 35.064 43.2586 35.064ZM42.6349 16.1016C42.1164 16.1016 41.619 16.3076 41.2524 16.6742C40.8857 17.0409 40.6797 17.5382 40.6797 18.0568V29.7545C40.6841 30.2701 40.8921 30.7631 41.2583 31.1262C41.6245 31.4892 42.1193 31.6929 42.6349 31.6929H43.2586C43.7771 31.6929 44.2745 31.4869 44.6411 31.1202C45.0078 30.7535 45.2138 30.2562 45.2138 29.7376V18.0568C45.2138 17.5382 45.0078 17.0409 44.6411 16.6742C44.2745 16.3076 43.7771 16.1016 43.2586 16.1016H42.6349Z" fill="#515265"/>
        <path d="M86.9148 14.417H86.2912C84.2804 14.417 82.6504 16.047 82.6504 18.0578V29.7555C82.6504 31.7662 84.2804 33.3962 86.2912 33.3962H86.9148C88.9256 33.3962 90.5556 31.7662 90.5556 29.7555V18.0578C90.5556 16.047 88.9256 14.417 86.9148 14.417Z" fill="white"/>
        <path d="M87.1668 35.064H86.5431C85.1305 35.064 83.7757 34.5028 82.7768 33.5039C81.778 32.505 81.2168 31.1503 81.2168 29.7376V18.0568C81.2168 16.6442 81.778 15.2894 82.7768 14.2905C83.7757 13.2916 85.1305 12.7305 86.5431 12.7305H87.1668C88.5794 12.7305 89.9342 13.2916 90.9331 14.2905C91.9319 15.2894 92.4931 16.6442 92.4931 18.0568V29.7545C92.4886 31.1642 91.9255 32.5146 90.9271 33.5099C89.9287 34.5051 88.5765 35.064 87.1668 35.064ZM86.5431 16.1016C86.0246 16.1016 85.5272 16.3076 85.1606 16.6742C84.7939 17.0409 84.5879 17.5382 84.5879 18.0568V29.7545C84.5879 30.273 84.7939 30.7704 85.1606 31.137C85.5272 31.5037 86.0246 31.7097 86.5431 31.7097H87.1668C87.6853 31.7097 88.1827 31.5037 88.5493 31.137C88.916 30.7704 89.122 30.273 89.122 29.7545V18.0568C89.122 17.5382 88.916 17.0409 88.5493 16.6742C88.1827 16.3076 87.6853 16.1016 87.1668 16.1016H86.5431Z" fill="#515265"/>
        <path d="M42.8206 41.5369C45.8739 41.5369 48.3492 39.0617 48.3492 36.0083C48.3492 32.955 45.8739 30.4797 42.8206 30.4797C39.7672 30.4797 37.292 32.955 37.292 36.0083C37.292 39.0617 39.7672 41.5369 42.8206 41.5369Z" fill="#4A98E0"/>
        <path d="M86.7288 41.5369C89.7821 41.5369 92.2574 39.0617 92.2574 36.0083C92.2574 32.955 89.7821 30.4797 86.7288 30.4797C83.6754 30.4797 81.2002 32.955 81.2002 36.0083C81.2002 39.0617 83.6754 41.5369 86.7288 41.5369Z" fill="#4A98E0"/>
        <path d="M92.2577 35.9912C92.2577 37.4575 91.6752 38.8637 90.6384 39.9005C89.6016 40.9373 88.1954 41.5198 86.7291 41.5198C85.2628 41.5198 83.8566 40.9373 82.8198 39.9005C81.783 38.8637 81.2005 37.4575 81.2005 35.9912C81.1942 35.4181 81.2854 34.8482 81.4702 34.3057C81.8215 35.4253 82.521 36.4036 83.4669 37.0981C84.4128 37.7927 85.5556 38.1672 86.7291 38.1672C87.9026 38.1672 89.0454 37.7927 89.9913 37.0981C90.9371 36.4036 91.6367 35.4253 91.988 34.3057C92.1728 34.8482 92.264 35.4181 92.2577 35.9912Z" fill="#4A98E0"/>
        <path d="M48.0798 34.323C48.2646 34.8655 48.3558 35.4355 48.3495 36.0085C48.3495 37.4748 47.767 38.881 46.7302 39.9178C45.6934 40.9547 44.2872 41.5371 42.8209 41.5371C41.3546 41.5371 39.9484 40.9547 38.9116 39.9178C37.8748 38.881 37.2923 37.4748 37.2923 36.0085C37.286 35.4355 37.3772 34.8655 37.562 34.323C37.9133 35.4426 38.6128 36.4209 39.5587 37.1155C40.5046 37.81 41.6474 38.1845 42.8209 38.1845C43.9944 38.1845 45.1372 37.81 46.0831 37.1155C47.0289 36.4209 47.7285 35.4426 48.0798 34.323Z" fill="#4A98E0"/>
        <path d="M42.8206 43.2222C41.3938 43.2222 39.999 42.7991 38.8126 42.0064C37.6263 41.2137 36.7016 40.087 36.1556 38.7688C35.6096 37.4506 35.4667 36.0001 35.7451 34.6007C36.0234 33.2013 36.7105 31.9158 37.7194 30.9069C38.7283 29.898 40.0138 29.2109 41.4132 28.9326C42.8126 28.6542 44.2631 28.7971 45.5813 29.3431C46.8995 29.8891 48.0262 30.8138 48.8189 32.0001C49.6116 33.1865 50.0347 34.5813 50.0347 36.0081C50.0303 37.92 49.2688 39.7524 47.9168 41.1043C46.5649 42.4563 44.7325 43.2178 42.8206 43.2222ZM42.8206 32.1482C42.0605 32.1482 41.3175 32.3736 40.6855 32.7959C40.0535 33.2181 39.5609 33.8183 39.2701 34.5206C38.9792 35.2228 38.9031 35.9955 39.0514 36.741C39.1997 37.4864 39.5657 38.1712 40.1031 38.7087C40.6406 39.2461 41.3254 39.6121 42.0708 39.7604C42.8163 39.9087 43.589 39.8326 44.2913 39.5417C44.9935 39.2509 45.5937 38.7583 46.016 38.1263C46.4382 37.4943 46.6636 36.7513 46.6636 35.9912C46.6548 34.9763 46.2465 34.0057 45.5272 33.2896C44.808 32.5734 43.8356 32.1694 42.8206 32.165V32.1482Z" fill="#515265"/>
        <path d="M86.7288 43.2222C85.302 43.2222 83.9072 42.7991 82.7208 42.0064C81.5345 41.2137 80.6098 40.087 80.0638 38.7688C79.5178 37.4506 79.3749 36.0001 79.6533 34.6007C79.9316 33.2013 80.6187 31.9158 81.6276 30.9069C82.6365 29.898 83.922 29.2109 85.3214 28.9326C86.7208 28.6542 88.1713 28.7971 89.4895 29.3431C90.8077 29.8891 91.9344 30.8138 92.7271 32.0001C93.5198 33.1865 93.9429 34.5813 93.9429 36.0081C93.9385 37.92 93.177 39.7524 91.825 41.1043C90.4731 42.4563 88.6407 43.2178 86.7288 43.2222ZM86.7288 32.1482C85.9687 32.1482 85.2257 32.3736 84.5937 32.7959C83.9617 33.2181 83.4692 33.8183 83.1783 34.5206C82.8874 35.2228 82.8113 35.9955 82.9596 36.741C83.1079 37.4864 83.4739 38.1712 84.0113 38.7087C84.5488 39.2461 85.2336 39.6121 85.9791 39.7604C86.7245 39.9087 87.4972 39.8326 88.1995 39.5417C88.9017 39.2509 89.5019 38.7583 89.9242 38.1263C90.3464 37.4943 90.5718 36.7513 90.5718 35.9912C90.563 34.9763 90.1547 34.0057 89.4354 33.2896C88.7162 32.5734 87.7438 32.1694 86.7288 32.165V32.1482Z" fill="#515265"/>
    </g>
</svg>
