<svg width="229" height="128" viewBox="0 0 229 128" fill="none" xmlns="http://www.w3.org/2000/svg">
    <g opacity="0.4">
        <path d="M33.5003 119.698H4.31101C3.30137 119.698 2.33308 119.297 1.61915 118.583C0.905229 117.869 0.50415 116.9 0.50415 115.891C0.50415 114.881 0.905229 113.913 1.61915 113.199C2.33308 112.485 3.30137 112.084 4.31101 112.084H33.5003" fill="#ECEDE2"/>
        <path d="M5.72058 115.628H0.883068C0.782573 115.628 0.686194 115.588 0.615133 115.517C0.544072 115.446 0.50415 115.35 0.50415 115.249C0.50415 115.149 0.544072 115.052 0.615133 114.981C0.686194 114.91 0.782573 114.87 0.883068 114.87H5.72058C5.82108 114.87 5.91746 114.91 5.98852 114.981C6.05958 115.052 6.0995 115.149 6.0995 115.249C6.0995 115.35 6.05958 115.446 5.98852 115.517C5.91746 115.588 5.82108 115.628 5.72058 115.628Z" fill="#121212"/>
        <path d="M0.50415 114.41H33.5003V114.915H0.50415V114.41Z" fill="#8B8C98"/>
        <path d="M0.50415 115.691H33.5003V116.197H0.50415V115.691Z" fill="#8B8C98"/>
        <path d="M0.50415 116.97H33.5003V117.475H0.50415V116.97Z" fill="#8B8C98"/>
        <path d="M1.51245 118.248H33.4981V118.753H1.51245V118.248Z" fill="#8B8C98"/>
        <path d="M1.51245 113.132H33.4981V113.637H1.51245V113.132Z" fill="#8B8C98"/>
        <path d="M21.0958 117.503H1.01319C0.9127 117.503 0.816321 117.463 0.74526 117.392C0.674199 117.321 0.634277 117.225 0.634277 117.124C0.634277 117.024 0.674199 116.927 0.74526 116.856C0.816321 116.785 0.9127 116.745 1.01319 116.745H21.0958C21.1963 116.745 21.2927 116.785 21.3638 116.856C21.4348 116.927 21.4747 117.024 21.4747 117.124C21.4747 117.225 21.4348 117.321 21.3638 117.392C21.2927 117.463 21.1963 117.503 21.0958 117.503Z" fill="#121212"/>
        <path d="M10.2686 112.041H22.4091C22.4091 112.397 22.2675 112.739 22.0155 112.991C21.7634 113.243 21.4216 113.385 21.0652 113.385H11.62C11.2636 113.385 10.9218 113.243 10.6698 112.991C10.4177 112.739 10.2761 112.397 10.2761 112.041H10.2686Z" fill="white"/>
        <path d="M33.5014 120.202H4.31208C3.16845 120.202 2.07165 119.748 1.26298 118.939C0.454307 118.131 0 117.034 0 115.89C0 114.747 0.454307 113.65 1.26298 112.841C2.07165 112.032 3.16845 111.578 4.31208 111.578H33.5014C33.6353 111.578 33.7639 111.631 33.8586 111.726C33.9534 111.821 34.0066 111.949 34.0066 112.083C34.0066 112.217 33.9534 112.346 33.8586 112.441C33.7639 112.535 33.6353 112.589 33.5014 112.589H4.31208C3.43643 112.589 2.59665 112.936 1.97747 113.556C1.3583 114.175 1.01045 115.015 1.01045 115.89C1.01045 116.766 1.3583 117.606 1.97747 118.225C2.59665 118.844 3.43643 119.192 4.31208 119.192H33.5014C33.6353 119.192 33.7639 119.245 33.8586 119.34C33.9534 119.435 34.0066 119.563 34.0066 119.697C34.0066 119.831 33.9534 119.96 33.8586 120.054C33.7639 120.149 33.6353 120.202 33.5014 120.202Z" fill="#121212"/>
        <path d="M208.333 109.588C208.208 109.589 208.087 109.543 207.994 109.46C207.9 109.377 207.841 109.263 207.828 109.138L205.963 92.0846C205.949 91.9506 205.988 91.8162 206.072 91.7111C206.156 91.6059 206.279 91.5385 206.413 91.5238C206.547 91.5091 206.681 91.5482 206.786 91.6325C206.892 91.7168 206.959 91.8395 206.974 91.9734L208.838 109.03C208.852 109.163 208.813 109.296 208.729 109.4C208.645 109.504 208.524 109.571 208.391 109.586L208.333 109.588Z" fill="#121212"/>
        <path d="M205.558 99.7389C205.465 99.7389 205.375 99.7047 205.305 99.6427C205.236 99.5807 205.192 99.4954 205.181 99.403L204.59 94.3128C204.579 94.2133 204.608 94.1134 204.67 94.0346C204.732 93.9558 204.822 93.9042 204.921 93.891L206.5 93.6965C206.55 93.6903 206.6 93.6941 206.648 93.7074C206.697 93.7208 206.742 93.7436 206.781 93.7744C206.821 93.8053 206.854 93.8436 206.879 93.8872C206.903 93.9308 206.919 93.9789 206.926 94.0287C206.932 94.0784 206.928 94.1289 206.915 94.1772C206.901 94.2255 206.878 94.2708 206.848 94.3103C206.817 94.3498 206.778 94.3829 206.735 94.4076C206.691 94.4323 206.643 94.4482 206.593 94.4543L205.386 94.6034L205.934 99.3221C205.945 99.422 205.917 99.5222 205.854 99.6008C205.792 99.6795 205.7 99.7301 205.601 99.7415L205.558 99.7389Z" fill="#121212"/>
        <path d="M210.62 109.083H210.557C210.491 109.074 210.427 109.053 210.37 109.021C210.312 108.988 210.261 108.944 210.22 108.892C210.18 108.84 210.15 108.78 210.132 108.716C210.114 108.652 210.109 108.585 210.117 108.519L212.194 91.4629C212.21 91.3289 212.279 91.2068 212.385 91.1234C212.491 91.04 212.626 91.0022 212.76 91.0183C212.894 91.0344 213.016 91.103 213.099 91.2091C213.183 91.3152 213.22 91.4501 213.204 91.5841L211.123 108.638C211.108 108.761 211.049 108.874 210.956 108.956C210.863 109.038 210.744 109.083 210.62 109.083Z" fill="#121212"/>
        <path d="M216.235 109.083H216.174C216.108 109.075 216.045 109.054 215.987 109.021C215.929 108.988 215.878 108.945 215.838 108.892C215.797 108.84 215.767 108.78 215.749 108.716C215.731 108.652 215.726 108.585 215.735 108.52L217.816 91.4658C217.824 91.3994 217.845 91.3353 217.878 91.2771C217.91 91.2188 217.954 91.1676 218.007 91.1263C218.059 91.085 218.12 91.0545 218.184 91.0365C218.248 91.0184 218.316 91.0132 218.382 91.0212C218.448 91.0292 218.512 91.0501 218.571 91.0829C218.629 91.1156 218.68 91.1595 218.721 91.212C218.763 91.2646 218.793 91.3248 218.811 91.3891C218.829 91.4534 218.834 91.5207 218.826 91.5871L216.74 108.638C216.725 108.762 216.665 108.875 216.572 108.957C216.479 109.039 216.359 109.084 216.235 109.083Z" fill="#121212"/>
        <path d="M206.263 101.017H221.71V120.23H206.263V101.017Z" fill="#28F3BB"/>
        <path d="M206.757 101.376H209.369V119.855H206.757V101.376Z" fill="#1BDDA1"/>
        <path d="M216.402 101.376H217.288V119.981H216.402V101.376Z" fill="white"/>
        <path opacity="0.56" d="M218.054 101.376H218.491V119.981H218.054V101.376Z" fill="white"/>
        <path opacity="0.56" d="M219.441 101.376H219.878V119.981H219.441V101.376Z" fill="white"/>
        <path d="M221.709 120.748H206.262C206.128 120.748 206 120.695 205.905 120.6C205.81 120.506 205.757 120.377 205.757 120.243V101.017C205.757 100.883 205.81 100.754 205.905 100.66C206 100.565 206.128 100.512 206.262 100.512H221.709C221.843 100.512 221.972 100.565 222.067 100.66C222.161 100.754 222.214 100.883 222.214 101.017V120.243C222.214 120.377 222.161 120.506 222.067 120.6C221.972 120.695 221.843 120.748 221.709 120.748ZM206.767 119.738H221.204V101.522H206.767V119.738Z" fill="#121212"/>
        <g opacity="0.15">
            <path d="M201.48 31.9561H201.406C201.306 31.9561 201.209 31.9162 201.138 31.8451C201.067 31.774 201.027 31.6777 201.027 31.5772C201.027 31.4767 201.067 31.3803 201.138 31.3092C201.209 31.2382 201.306 31.1982 201.406 31.1982H201.48C201.58 31.1982 201.676 31.2382 201.747 31.3092C201.819 31.3803 201.858 31.4767 201.858 31.5772C201.858 31.6777 201.819 31.774 201.747 31.8451C201.676 31.9162 201.58 31.9561 201.48 31.9561Z" fill="#515265"/>
            <path d="M204.239 31.9557H202.723C202.623 31.9557 202.526 31.9158 202.455 31.8448C202.384 31.7737 202.344 31.6773 202.344 31.5768C202.344 31.4763 202.384 31.38 202.455 31.3089C202.526 31.2378 202.623 31.1979 202.723 31.1979H203.481V27.3936H191.669V31.1979H198.548C198.648 31.1979 198.744 31.2378 198.816 31.3089C198.887 31.38 198.926 31.4763 198.926 31.5768C198.926 31.6773 198.887 31.7737 198.816 31.8448C198.744 31.9158 198.648 31.9557 198.548 31.9557H190.911V26.6357H204.239V31.9557Z" fill="#515265"/>
            <path d="M200.383 31.9561H199.709C199.608 31.9561 199.512 31.9162 199.441 31.8451C199.37 31.774 199.33 31.6777 199.33 31.5772C199.33 31.4767 199.37 31.3803 199.441 31.3092C199.512 31.2382 199.608 31.1982 199.709 31.1982H200.383C200.484 31.1982 200.58 31.2382 200.651 31.3092C200.722 31.3803 200.762 31.4767 200.762 31.5772C200.762 31.6777 200.722 31.774 200.651 31.8451C200.58 31.9162 200.484 31.9561 200.383 31.9561Z" fill="#515265"/>
            <path d="M194.069 41.0778H190.911V35.7578H200.293C200.394 35.7578 200.49 35.7977 200.561 35.8688C200.632 35.9399 200.672 36.0362 200.672 36.1367C200.672 36.2372 200.632 36.3336 200.561 36.4047C200.49 36.4757 200.394 36.5156 200.293 36.5156H191.669V40.32H194.069C194.169 40.32 194.266 40.3599 194.337 40.431C194.408 40.502 194.448 40.5984 194.448 40.6989C194.448 40.7994 194.408 40.8958 194.337 40.9668C194.266 41.0379 194.169 41.0778 194.069 41.0778Z" fill="#515265"/>
            <path d="M196.548 41.0772H195.181C195.081 41.0772 194.984 41.0372 194.913 40.9662C194.842 40.8951 194.802 40.7987 194.802 40.6983C194.802 40.5978 194.842 40.5014 194.913 40.4303C194.984 40.3593 195.081 40.3193 195.181 40.3193H196.548C196.648 40.3193 196.745 40.3593 196.816 40.4303C196.887 40.5014 196.927 40.5978 196.927 40.6983C196.927 40.7987 196.887 40.8951 196.816 40.9662C196.745 41.0372 196.648 41.0772 196.548 41.0772Z" fill="#515265"/>
            <path d="M197.59 41.0772H197.562C197.461 41.0772 197.365 41.0372 197.294 40.9662C197.223 40.8951 197.183 40.7987 197.183 40.6983C197.183 40.5978 197.223 40.5014 197.294 40.4303C197.365 40.3593 197.461 40.3193 197.562 40.3193H197.59C197.69 40.3193 197.786 40.3593 197.857 40.4303C197.929 40.5014 197.968 40.5978 197.968 40.6983C197.968 40.7987 197.929 40.8951 197.857 40.9662C197.786 41.0372 197.69 41.0772 197.59 41.0772Z" fill="#515265"/>
            <path d="M204.239 41.0778H198.662C198.561 41.0778 198.465 41.0379 198.394 40.9668C198.323 40.8958 198.283 40.7994 198.283 40.6989C198.283 40.5984 198.323 40.502 198.394 40.431C198.465 40.3599 198.561 40.32 198.662 40.32H203.481V36.5156H201.809C201.709 36.5156 201.612 36.4757 201.541 36.4047C201.47 36.3336 201.43 36.2372 201.43 36.1367C201.43 36.0362 201.47 35.9399 201.541 35.8688C201.612 35.7977 201.709 35.7578 201.809 35.7578H204.252L204.239 41.0778Z" fill="#515265"/>
            <path d="M197.855 36.5157H184.528V31.1982H197.855V36.5157ZM185.285 35.7579H197.098V31.9561H185.285V35.7579Z" fill="#515265"/>
        </g>
        <path d="M45.72 114.32C44.6962 114.32 43.6955 114.016 42.8443 113.447C41.9931 112.879 41.3297 112.07 40.9379 111.125C40.5462 110.179 40.4437 109.138 40.6434 108.134C40.8431 107.13 41.3361 106.208 42.06 105.484C42.7838 104.76 43.7061 104.267 44.7102 104.067C45.7142 103.868 46.7549 103.97 47.7007 104.362C48.6465 104.754 49.4549 105.417 50.0237 106.268C50.5924 107.119 50.896 108.12 50.896 109.144C50.8946 110.516 50.3489 111.832 49.3785 112.802C48.4081 113.773 47.0923 114.318 45.72 114.32ZM45.72 106.489C45.1959 106.489 44.6835 106.644 44.2478 106.935C43.812 107.227 43.4723 107.64 43.2718 108.125C43.0712 108.609 43.0187 109.142 43.121 109.656C43.2232 110.17 43.4756 110.642 43.8462 111.012C44.2168 111.383 44.689 111.635 45.203 111.738C45.717 111.84 46.2498 111.787 46.734 111.587C47.2182 111.386 47.6321 111.047 47.9233 110.611C48.2144 110.175 48.3699 109.663 48.3699 109.139C48.3685 108.437 48.0887 107.764 47.5919 107.268C47.0951 106.772 46.4219 106.494 45.72 106.494V106.489Z" fill="#515265"/>
        <path d="M45.7415 114.938C44.6424 114.938 43.5679 114.612 42.654 114.002C41.7401 113.391 41.0278 112.523 40.6071 111.508C40.1865 110.492 40.0764 109.375 40.2909 108.297C40.5053 107.219 41.0346 106.228 41.8118 105.451C42.5891 104.674 43.5793 104.145 44.6573 103.93C45.7354 103.716 46.8528 103.826 47.8683 104.247C48.8838 104.667 49.7517 105.379 50.3624 106.293C50.9731 107.207 51.299 108.282 51.299 109.381C51.299 110.855 50.7135 112.268 49.6713 113.311C48.629 114.353 47.2155 114.938 45.7415 114.938ZM45.7415 104.581C44.7923 104.581 43.8643 104.863 43.075 105.39C42.2857 105.918 41.6705 106.667 41.3073 107.544C40.944 108.421 40.8489 109.386 41.0341 110.317C41.2193 111.248 41.6765 112.104 42.3477 112.775C43.0189 113.446 43.8741 113.903 44.8052 114.088C45.7362 114.274 46.7013 114.178 47.5783 113.815C48.4553 113.452 49.2049 112.837 49.7323 112.047C50.2597 111.258 50.5412 110.33 50.5412 109.381C50.5412 108.108 50.0355 106.887 49.1354 105.987C48.2353 105.087 47.0145 104.581 45.7415 104.581ZM45.7415 112.412C45.142 112.412 44.5559 112.234 44.0574 111.901C43.5589 111.568 43.1704 111.095 42.9409 110.541C42.7115 109.987 42.6515 109.378 42.7684 108.79C42.8854 108.202 43.1741 107.661 43.5981 107.237C44.022 106.814 44.5621 106.525 45.1502 106.408C45.7382 106.291 46.3477 106.351 46.9016 106.58C47.4555 106.81 47.9289 107.198 48.262 107.697C48.5951 108.195 48.7729 108.781 48.7729 109.381C48.7729 110.185 48.4535 110.956 47.885 111.524C47.3165 112.093 46.5455 112.412 45.7415 112.412ZM45.7415 107.107C45.2919 107.107 44.8523 107.241 44.4785 107.491C44.1046 107.74 43.8132 108.095 43.6411 108.511C43.469 108.926 43.424 109.383 43.5117 109.824C43.5994 110.265 43.816 110.671 44.1339 110.989C44.4519 111.307 44.857 111.523 45.298 111.611C45.739 111.698 46.1961 111.653 46.6116 111.481C47.027 111.309 47.3821 111.018 47.6319 110.644C47.8817 110.27 48.015 109.831 48.015 109.381C48.015 108.778 47.7755 108.2 47.3492 107.773C46.9228 107.347 46.3445 107.107 45.7415 107.107Z" fill="#121212"/>
        <path d="M44.1977 98.1729H30.0515C29.2925 98.1729 28.6772 98.7881 28.6772 99.5471V118.223C28.6772 118.982 29.2925 119.597 30.0515 119.597H44.1977C44.9567 119.597 45.5719 118.982 45.5719 118.223V99.5471C45.5719 98.7881 44.9567 98.1729 44.1977 98.1729Z" fill="#515265"/>
        <path d="M45.7204 102.449V119.005C45.7204 119.37 45.5756 119.719 45.3179 119.977C45.0601 120.235 44.7106 120.38 44.3461 120.38H30.1999C30.0193 120.38 29.8405 120.345 29.6736 120.276C29.5067 120.207 29.3551 120.106 29.2274 119.978C29.0998 119.85 28.9986 119.699 28.9296 119.532C28.8607 119.365 28.8254 119.186 28.8257 119.005V115.949C30.0115 116.595 31.3488 116.91 32.6982 116.863C35.2673 116.77 37.6848 115.464 39.5187 113.668C41.3527 111.872 42.6764 109.611 43.7929 107.297C44.5603 105.733 45.2048 104.113 45.7204 102.449Z" fill="#302F2F"/>
        <path d="M190.953 119.65C190.953 118.065 191.582 116.544 192.703 115.423C193.824 114.303 195.344 113.673 196.929 113.673C198.515 113.673 200.035 114.303 201.156 115.423C202.277 116.544 202.906 118.065 202.906 119.65" fill="#D8D9DD"/>
        <path d="M202.91 119.642H193.032C195.786 118.547 198.261 116.854 200.28 114.686C201.091 115.233 201.754 115.972 202.213 116.836C202.671 117.7 202.911 118.663 202.91 119.642Z" fill="#8B8C98"/>
        <g opacity="0.15">
            <path d="M197.541 89.1723H194.384V83.8447H203.766C203.866 83.8447 203.962 83.8846 204.033 83.9557C204.105 84.0268 204.144 84.1231 204.144 84.2236C204.144 84.3241 204.105 84.4205 204.033 84.4916C203.962 84.5626 203.866 84.6026 203.766 84.6026H195.149V88.4145H197.541C197.642 88.4145 197.738 88.4544 197.809 88.5254C197.88 88.5965 197.92 88.6929 197.92 88.7934C197.92 88.8939 197.88 88.9903 197.809 89.0613C197.738 89.1324 197.642 89.1723 197.541 89.1723Z" fill="#515265"/>
            <path d="M200.026 89.1729H198.66C198.559 89.1729 198.463 89.133 198.392 89.0619C198.321 88.9908 198.281 88.8945 198.281 88.794C198.281 88.6935 198.321 88.5971 198.392 88.526C198.463 88.455 198.559 88.415 198.66 88.415H200.026C200.127 88.415 200.223 88.455 200.294 88.526C200.365 88.5971 200.405 88.6935 200.405 88.794C200.405 88.8945 200.365 88.9908 200.294 89.0619C200.223 89.133 200.127 89.1729 200.026 89.1729Z" fill="#515265"/>
            <path d="M201.076 89.1729H201.049C200.948 89.1729 200.852 89.133 200.781 89.0619C200.71 88.9908 200.67 88.8945 200.67 88.794C200.67 88.6935 200.71 88.5971 200.781 88.526C200.852 88.455 200.948 88.415 201.049 88.415H201.076C201.177 88.415 201.273 88.455 201.344 88.526C201.415 88.5971 201.455 88.6935 201.455 88.794C201.455 88.8945 201.415 88.9908 201.344 89.0619C201.273 89.133 201.177 89.1729 201.076 89.1729Z" fill="#515265"/>
            <path d="M207.718 89.1723H202.14C202.04 89.1723 201.943 89.1324 201.872 89.0613C201.801 88.9903 201.761 88.8939 201.761 88.7934C201.761 88.6929 201.801 88.5965 201.872 88.5254C201.943 88.4544 202.04 88.4145 202.14 88.4145H206.96V84.6026H205.288C205.187 84.6026 205.091 84.5626 205.02 84.4916C204.949 84.4205 204.909 84.3241 204.909 84.2236C204.909 84.1231 204.949 84.0268 205.02 83.9557C205.091 83.8846 205.187 83.8447 205.288 83.8447H207.73L207.718 89.1723Z" fill="#515265"/>
            <path d="M201.331 84.6026H188.006V79.2852H201.331V84.6026ZM188.761 83.8448H200.574V80.043H188.764L188.761 83.8448Z" fill="#515265"/>
        </g>
        <g opacity="0.15">
            <path d="M20.2136 91.8955H20.1404C20.0399 91.8955 19.9435 91.8556 19.8725 91.7846C19.8014 91.7135 19.7615 91.6171 19.7615 91.5166C19.7615 91.4161 19.8014 91.3197 19.8725 91.2487C19.9435 91.1776 20.0399 91.1377 20.1404 91.1377H20.2136C20.3141 91.1377 20.4105 91.1776 20.4816 91.2487C20.5526 91.3197 20.5926 91.4161 20.5926 91.5166C20.5926 91.6171 20.5526 91.7135 20.4816 91.7846C20.4105 91.8556 20.3141 91.8955 20.2136 91.8955Z" fill="#515265"/>
            <path d="M22.9608 91.8952H21.4452C21.3447 91.8952 21.2483 91.8553 21.1772 91.7842C21.1062 91.7132 21.0663 91.6168 21.0663 91.5163C21.0663 91.4158 21.1062 91.3194 21.1772 91.2483C21.2483 91.1773 21.3447 91.1374 21.4452 91.1374H22.203V87.333H10.3909V91.1374H17.2594C17.3599 91.1374 17.4563 91.1773 17.5273 91.2483C17.5984 91.3194 17.6383 91.4158 17.6383 91.5163C17.6383 91.6168 17.5984 91.7132 17.5273 91.7842C17.4563 91.8553 17.3599 91.8952 17.2594 91.8952H9.63306V86.5752H22.9608V91.8952Z" fill="#515265"/>
            <path d="M19.1067 91.8955H18.4448C18.3443 91.8955 18.248 91.8556 18.1769 91.7846C18.1058 91.7135 18.0659 91.6171 18.0659 91.5166C18.0659 91.4161 18.1058 91.3197 18.1769 91.2487C18.248 91.1776 18.3443 91.1377 18.4448 91.1377H19.1193C19.2198 91.1377 19.3162 91.1776 19.3872 91.2487C19.4583 91.3197 19.4982 91.4161 19.4982 91.5166C19.4982 91.6171 19.4583 91.7135 19.3872 91.7846C19.3162 91.8556 19.2198 91.8955 19.1193 91.8955H19.1067Z" fill="#515265"/>
            <path d="M12.7907 101.017H9.63306V95.6973H19.0151C19.1155 95.6973 19.2119 95.7372 19.283 95.8083C19.354 95.8793 19.394 95.9757 19.394 96.0762C19.394 96.1767 19.354 96.2731 19.283 96.3441C19.2119 96.4152 19.1155 96.4551 19.0151 96.4551H10.3909V100.259H12.7907C12.8912 100.259 12.9876 100.299 13.0586 100.37C13.1297 100.441 13.1696 100.538 13.1696 100.638C13.1696 100.739 13.1297 100.835 13.0586 100.906C12.9876 100.977 12.8912 101.017 12.7907 101.017Z" fill="#515265"/>
            <path d="M15.2709 101.017H13.8992C13.7987 101.017 13.7023 100.977 13.6312 100.906C13.5602 100.835 13.5203 100.738 13.5203 100.638C13.5203 100.537 13.5602 100.441 13.6312 100.37C13.7023 100.299 13.7987 100.259 13.8992 100.259H15.2658C15.3663 100.259 15.4627 100.299 15.5337 100.37C15.6048 100.441 15.6447 100.537 15.6447 100.638C15.6447 100.738 15.6048 100.835 15.5337 100.906C15.4627 100.977 15.3663 101.017 15.2658 101.017H15.2709Z" fill="#515265"/>
            <path d="M16.3115 101.017H16.2837C16.1832 101.017 16.0868 100.977 16.0158 100.906C15.9447 100.835 15.9048 100.738 15.9048 100.638C15.9048 100.537 15.9447 100.441 16.0158 100.37C16.0868 100.299 16.1832 100.259 16.2837 100.259H16.3115C16.412 100.259 16.5084 100.299 16.5794 100.37C16.6505 100.441 16.6904 100.537 16.6904 100.638C16.6904 100.738 16.6505 100.835 16.5794 100.906C16.5084 100.977 16.412 101.017 16.3115 101.017Z" fill="#515265"/>
            <path d="M22.9612 101.017H17.3836C17.2831 101.017 17.1867 100.977 17.1156 100.906C17.0446 100.835 17.0046 100.739 17.0046 100.638C17.0046 100.538 17.0446 100.441 17.1156 100.37C17.1867 100.299 17.2831 100.259 17.3836 100.259H22.2034V96.4551H20.5311C20.4306 96.4551 20.3342 96.4152 20.2632 96.3441C20.1921 96.2731 20.1522 96.1767 20.1522 96.0762C20.1522 95.9757 20.1921 95.8793 20.2632 95.8083C20.3342 95.7372 20.4306 95.6973 20.5311 95.6973H22.9739L22.9612 101.017Z" fill="#515265"/>
            <path d="M16.5773 96.4552H3.24951V91.1377H16.5773V96.4552ZM4.00735 95.6973H15.8195V91.8955H4.00735V95.6973Z" fill="#515265"/>
        </g>
        <g opacity="0.15">
            <path d="M36.2388 43.6494H36.1655C36.065 43.6494 35.9687 43.6095 35.8976 43.5385C35.8265 43.4674 35.7866 43.371 35.7866 43.2705C35.7866 43.17 35.8265 43.0736 35.8976 43.0026C35.9687 42.9315 36.065 42.8916 36.1655 42.8916H36.2388C36.3393 42.8916 36.4357 42.9315 36.5067 43.0026C36.5778 43.0736 36.6177 43.17 36.6177 43.2705C36.6177 43.371 36.5778 43.4674 36.5067 43.5385C36.4357 43.6095 36.3393 43.6494 36.2388 43.6494Z" fill="#515265"/>
            <path d="M38.9982 43.6491H37.4825C37.382 43.6491 37.2857 43.6092 37.2146 43.5381C37.1435 43.4671 37.1036 43.3707 37.1036 43.2702C37.1036 43.1697 37.1435 43.0733 37.2146 43.0023C37.2857 42.9312 37.382 42.8913 37.4825 42.8913H38.2404V39.0869H26.4282V42.8913H33.2968C33.3973 42.8913 33.4936 42.9312 33.5647 43.0023C33.6358 43.0733 33.6757 43.1697 33.6757 43.2702C33.6757 43.3707 33.6358 43.4671 33.5647 43.5381C33.4936 43.6092 33.3973 43.6491 33.2968 43.6491H25.6704V38.3291H38.9982V43.6491Z" fill="#515265"/>
            <path d="M35.1423 43.6494H34.4678C34.3673 43.6494 34.2709 43.6095 34.1999 43.5385C34.1288 43.4674 34.0889 43.371 34.0889 43.2705C34.0889 43.17 34.1288 43.0736 34.1999 43.0026C34.2709 42.9315 34.3673 42.8916 34.4678 42.8916H35.1423C35.2428 42.8916 35.3391 42.9315 35.4102 43.0026C35.4813 43.0736 35.5212 43.17 35.5212 43.2705C35.5212 43.371 35.4813 43.4674 35.4102 43.5385C35.3391 43.6095 35.2428 43.6494 35.1423 43.6494Z" fill="#515265"/>
            <path d="M28.8281 52.7709H25.6704V47.4509H35.0524C35.1529 47.4509 35.2493 47.4909 35.3203 47.5619C35.3914 47.633 35.4313 47.7294 35.4313 47.8298C35.4313 47.9303 35.3914 48.0267 35.3203 48.0978C35.2493 48.1688 35.1529 48.2088 35.0524 48.2088H26.4282V52.0131H28.8281C28.9286 52.0131 29.0249 52.053 29.096 52.1241C29.1671 52.1951 29.207 52.2915 29.207 52.392C29.207 52.4925 29.1671 52.5889 29.096 52.6599C29.0249 52.731 28.9286 52.7709 28.8281 52.7709Z" fill="#515265"/>
            <path d="M31.3071 52.7705H29.9404C29.8399 52.7705 29.7436 52.7306 29.6725 52.6596C29.6014 52.5885 29.5615 52.4921 29.5615 52.3916C29.5615 52.2911 29.6014 52.1947 29.6725 52.1237C29.7436 52.0526 29.8399 52.0127 29.9404 52.0127H31.3071C31.4076 52.0127 31.5039 52.0526 31.575 52.1237C31.6461 52.1947 31.686 52.2911 31.686 52.3916C31.686 52.4921 31.6461 52.5885 31.575 52.6596C31.5039 52.7306 31.4076 52.7705 31.3071 52.7705Z" fill="#515265"/>
            <path d="M32.3504 52.7705H32.3352C32.2347 52.7705 32.1383 52.7306 32.0673 52.6596C31.9962 52.5885 31.9563 52.4921 31.9563 52.3916C31.9563 52.2911 31.9962 52.1947 32.0673 52.1237C32.1383 52.0526 32.2347 52.0127 32.3352 52.0127H32.363C32.4635 52.0127 32.5599 52.0526 32.6309 52.1237C32.702 52.1947 32.7419 52.2911 32.7419 52.3916C32.7419 52.4921 32.702 52.5885 32.6309 52.6596C32.5599 52.7306 32.4635 52.7705 32.363 52.7705H32.3504Z" fill="#515265"/>
            <path d="M39.0027 52.7709H33.4251C33.3246 52.7709 33.2282 52.731 33.1571 52.6599C33.0861 52.5889 33.0461 52.4925 33.0461 52.392C33.0461 52.2915 33.0861 52.1951 33.1571 52.1241C33.2282 52.053 33.3246 52.0131 33.4251 52.0131H38.2449V48.2088H36.5726C36.4721 48.2088 36.3757 48.1688 36.3047 48.0978C36.2336 48.0267 36.1937 47.9303 36.1937 47.8298C36.1937 47.7294 36.2336 47.633 36.3047 47.5619C36.3757 47.4909 36.4721 47.4509 36.5726 47.4509H39.0154L39.0027 52.7709Z" fill="#515265"/>
            <path d="M32.6147 48.2091H19.2869V42.8916H32.6147V48.2091ZM20.0447 47.4512H31.8568V43.6494H20.0447V47.4512Z" fill="#515265"/>
        </g>
        <g opacity="0.15">
            <path d="M126.125 5.32033H126.052C125.952 5.32033 125.855 5.28041 125.784 5.20935C125.713 5.13829 125.673 5.04191 125.673 4.94142C125.673 4.84092 125.713 4.74454 125.784 4.67348C125.855 4.60242 125.952 4.5625 126.052 4.5625H126.125C126.226 4.5625 126.322 4.60242 126.393 4.67348C126.464 4.74454 126.504 4.84092 126.504 4.94142C126.504 5.04191 126.464 5.13829 126.393 5.20935C126.322 5.28041 126.226 5.32033 126.125 5.32033Z" fill="#515265"/>
            <path d="M128.885 5.32H127.369C127.269 5.32 127.172 5.28008 127.101 5.20902C127.03 5.13796 126.99 5.04158 126.99 4.94108C126.99 4.84059 127.03 4.74421 127.101 4.67315C127.172 4.60209 127.269 4.56217 127.369 4.56217H128.127V0.757835H116.315V4.56217H123.183C123.284 4.56217 123.38 4.60209 123.451 4.67315C123.522 4.74421 123.562 4.84059 123.562 4.94108C123.562 5.04158 123.522 5.13796 123.451 5.20902C123.38 5.28008 123.284 5.32 123.183 5.32H115.557V0H128.885V5.32Z" fill="#515265"/>
            <path d="M125.043 5.32033H124.369C124.268 5.32033 124.172 5.28041 124.101 5.20935C124.03 5.13829 123.99 5.04191 123.99 4.94142C123.99 4.84092 124.03 4.74454 124.101 4.67348C124.172 4.60242 124.268 4.5625 124.369 4.5625H125.043C125.144 4.5625 125.24 4.60242 125.311 4.67348C125.382 4.74454 125.422 4.84092 125.422 4.94142C125.422 5.04191 125.382 5.13829 125.311 5.20935C125.24 5.28041 125.144 5.32033 125.043 5.32033Z" fill="#515265"/>
            <path d="M118.729 14.4421H115.571V9.12207H124.943C125.044 9.12207 125.14 9.16199 125.211 9.23305C125.282 9.30411 125.322 9.40049 125.322 9.50099C125.322 9.60148 125.282 9.69786 125.211 9.76892C125.14 9.83998 125.044 9.87991 124.943 9.87991H116.319V13.6842H118.729C118.829 13.6842 118.926 13.7242 118.997 13.7952C119.068 13.8663 119.108 13.9627 119.108 14.0632C119.108 14.1636 119.068 14.26 118.997 14.3311C118.926 14.4021 118.829 14.4421 118.729 14.4421Z" fill="#515265"/>
            <path d="M121.194 14.4414H119.827C119.727 14.4414 119.63 14.4015 119.559 14.3304C119.488 14.2594 119.448 14.163 119.448 14.0625C119.448 13.962 119.488 13.8656 119.559 13.7946C119.63 13.7235 119.727 13.6836 119.827 13.6836H121.194C121.294 13.6836 121.391 13.7235 121.462 13.7946C121.533 13.8656 121.573 13.962 121.573 14.0625C121.573 14.163 121.533 14.2594 121.462 14.3304C121.391 14.4015 121.294 14.4414 121.194 14.4414Z" fill="#515265"/>
            <path d="M122.236 14.4414H122.208C122.107 14.4414 122.011 14.4015 121.94 14.3304C121.869 14.2594 121.829 14.163 121.829 14.0625C121.829 13.962 121.869 13.8656 121.94 13.7946C122.011 13.7235 122.107 13.6836 122.208 13.6836H122.236C122.336 13.6836 122.432 13.7235 122.503 13.7946C122.575 13.8656 122.614 13.962 122.614 14.0625C122.614 14.163 122.575 14.2594 122.503 14.3304C122.432 14.4015 122.336 14.4414 122.236 14.4414Z" fill="#515265"/>
            <path d="M128.885 14.4421H123.308C123.207 14.4421 123.111 14.4021 123.04 14.3311C122.969 14.26 122.929 14.1636 122.929 14.0632C122.929 13.9627 122.969 13.8663 123.04 13.7952C123.111 13.7242 123.207 13.6842 123.308 13.6842H128.127V9.87991H126.455C126.355 9.87991 126.258 9.83998 126.187 9.76892C126.116 9.69786 126.076 9.60148 126.076 9.50099C126.076 9.40049 126.116 9.30411 126.187 9.23305C126.258 9.16199 126.355 9.12207 126.455 9.12207H128.898L128.885 14.4421Z" fill="#515265"/>
            <path d="M122.501 9.88004H109.173V4.5752H122.501V9.88004ZM109.931 9.1222H121.743V5.33303H109.931V9.1222Z" fill="#515265"/>
        </g>
        <path d="M134.174 122.431H98.8662C98.4839 122.431 98.1073 122.337 97.7696 122.158C97.4318 121.979 97.1431 121.72 96.9287 121.403C96.7143 121.087 96.5808 120.722 96.5398 120.342C96.4989 119.962 96.5517 119.578 96.6938 119.223L103.239 102.803L116.521 99.1553L129.804 102.813L136.346 119.233C136.486 119.587 136.537 119.971 136.495 120.349C136.453 120.728 136.32 121.091 136.105 121.406C135.891 121.721 135.603 121.98 135.267 122.158C134.93 122.337 134.555 122.43 134.174 122.431Z" fill="#D8D9DD"/>
        <path d="M132.489 109.623H100.928L101.233 107.534H132.183L132.489 109.623Z" fill="#8B8C98"/>
        <path d="M103.905 111.043C104.516 111.043 105.011 110.548 105.011 109.937C105.011 109.326 104.516 108.83 103.905 108.83C103.293 108.83 102.798 109.326 102.798 109.937C102.798 110.548 103.293 111.043 103.905 111.043Z" fill="#8B8C98"/>
        <path d="M107.251 111.98C107.564 111.98 107.817 111.727 107.817 111.414C107.817 111.102 107.564 110.849 107.251 110.849C106.939 110.849 106.685 111.102 106.685 111.414C106.685 111.727 106.939 111.98 107.251 111.98Z" fill="#8B8C98"/>
        <path d="M104.863 114.241C105.271 114.241 105.601 113.911 105.601 113.503C105.601 113.096 105.271 112.766 104.863 112.766C104.456 112.766 104.126 113.096 104.126 113.503C104.126 113.911 104.456 114.241 104.863 114.241Z" fill="#8B8C98"/>
        <path d="M134.178 122.936H98.8707C98.4061 122.935 97.9486 122.821 97.5382 122.603C97.1278 122.385 96.7769 122.07 96.5163 121.686C96.2557 121.301 96.0932 120.858 96.043 120.396C95.9928 119.934 96.0565 119.467 96.2284 119.035L102.774 102.616C102.802 102.543 102.848 102.478 102.906 102.426C102.964 102.374 103.034 102.336 103.11 102.315L116.392 98.6674C116.479 98.6421 116.572 98.6421 116.66 98.6674L129.942 102.308C130.017 102.328 130.087 102.366 130.145 102.418C130.204 102.47 130.249 102.535 130.278 102.608L136.821 119.028C136.992 119.459 137.055 119.926 137.005 120.388C136.954 120.85 136.792 121.292 136.531 121.676C136.271 122.061 135.92 122.375 135.51 122.593C135.1 122.811 134.643 122.925 134.178 122.926V122.936ZM103.612 103.232L97.1606 119.422C97.0469 119.701 97.0037 120.003 97.0346 120.303C97.0656 120.602 97.1698 120.889 97.3381 121.139C97.5064 121.389 97.7335 121.593 97.9995 121.734C98.2655 121.875 98.5621 121.949 98.8632 121.948H134.178C134.479 121.949 134.776 121.875 135.042 121.734C135.308 121.593 135.535 121.389 135.703 121.139C135.872 120.889 135.976 120.602 136.007 120.303C136.038 120.003 135.994 119.701 135.881 119.422L129.432 103.232L116.526 99.6955L103.612 103.232Z" fill="#121212"/>
        <path d="M59.9622 20.8604H171.311C172.456 20.8604 173.555 21.3155 174.365 22.1255C175.175 22.9356 175.631 24.0344 175.631 25.18V103.611C175.631 104.15 175.524 104.683 175.318 105.181C175.112 105.679 174.809 106.132 174.428 106.513C174.047 106.894 173.594 107.196 173.096 107.402C172.598 107.608 172.065 107.714 171.526 107.713H59.7474C58.6594 107.713 57.6159 107.281 56.8466 106.512C56.0772 105.742 55.645 104.699 55.645 103.611V25.18C55.645 24.0348 56.0998 22.9365 56.9093 22.1264C57.7189 21.3164 58.8169 20.861 59.9622 20.8604Z" fill="#546B76"/>
        <path d="M175.492 25.1775V27.84C175.492 26.6948 175.038 25.5965 174.228 24.7864C173.418 23.9764 172.32 23.521 171.175 23.5204H59.8265C58.6811 23.521 57.5827 23.9763 56.7728 24.7863C55.9628 25.5962 55.5075 26.6946 55.5068 27.84V25.1775C55.5075 24.0323 55.9629 22.9342 56.7729 22.1247C57.5829 21.3151 58.6813 20.8604 59.8265 20.8604H171.175C172.32 20.8604 173.418 21.3152 174.228 22.1248C175.037 22.9344 175.492 24.0325 175.492 25.1775Z" fill="#8B8C98"/>
        <path d="M175.63 93.5674V103.611C175.63 104.15 175.524 104.684 175.318 105.182C175.112 105.68 174.809 106.132 174.428 106.513C174.047 106.894 173.594 107.196 173.096 107.402C172.598 107.608 172.064 107.714 171.526 107.714H59.7474C58.6594 107.714 57.6159 107.281 56.8466 106.512C56.0772 105.743 55.645 104.699 55.645 103.611V93.5674H175.63Z" fill="#D8D9DD"/>
        <path d="M55.6938 93.3552H175.679V95.5681H55.6938V93.3552Z" fill="#8B8C98"/>
        <path d="M175.681 91.3548V93.5677H55.6901C55.6901 93.5677 54.7302 87.3737 55.8922 87.5833C76.3386 91.2715 175.681 91.3548 175.681 91.3548Z" fill="#8B8C98"/>
        <path d="M61.8191 27.7441H169.555V87.6636H61.8191V27.7441Z" fill="#F0F0F6"/>
        <path d="M55.6949 67.4602C55.5609 67.4602 55.4324 67.4069 55.3377 67.3122C55.2429 67.2174 55.1897 67.0889 55.1897 66.9549V37.1341C55.1897 37.0001 55.2429 36.8716 55.3377 36.7769C55.4324 36.6821 55.5609 36.6289 55.6949 36.6289C55.8289 36.6289 55.9574 36.6821 56.0522 36.7769C56.1469 36.8716 56.2001 37.0001 56.2001 37.1341V66.9549C56.2001 67.0889 56.1469 67.2174 56.0522 67.3122C55.9574 67.4069 55.8289 67.4602 55.6949 67.4602Z" fill="#121212"/>
        <path d="M175.678 57.3224C175.544 57.3224 175.415 57.2692 175.321 57.1744C175.226 57.0797 175.173 56.9512 175.173 56.8172V52.4066C175.173 52.2726 175.226 52.1441 175.321 52.0493C175.415 51.9546 175.544 51.9014 175.678 51.9014C175.812 51.9014 175.94 51.9546 176.035 52.0493C176.13 52.1441 176.183 52.2726 176.183 52.4066V56.8172C176.183 56.9512 176.13 57.0797 176.035 57.1744C175.94 57.2692 175.812 57.3224 175.678 57.3224Z" fill="#121212"/>
        <path d="M175.678 49.8528C175.544 49.8528 175.415 49.7996 175.321 49.7048C175.226 49.6101 175.173 49.4816 175.173 49.3476V41.0392C175.173 40.9052 175.226 40.7767 175.321 40.6819C175.415 40.5872 175.544 40.5339 175.678 40.5339C175.812 40.5339 175.94 40.5872 176.035 40.6819C176.13 40.7767 176.183 40.9052 176.183 41.0392V49.3476C176.183 49.4816 176.13 49.6101 176.035 49.7048C175.94 49.7996 175.812 49.8528 175.678 49.8528Z" fill="#121212"/>
        <path d="M175.68 38.2123C175.546 38.2123 175.418 38.1591 175.323 38.0644C175.228 37.9696 175.175 37.8411 175.175 37.7071V25.1801C175.174 24.1689 174.772 23.1994 174.056 22.4844C173.341 21.7693 172.372 21.367 171.361 21.3657H60.0121C59.0012 21.3677 58.0325 21.7703 57.3179 22.4853C56.6034 23.2002 56.2015 24.1693 56.2001 25.1801V33.8497C56.2001 33.9837 56.1469 34.1122 56.0522 34.207C55.9574 34.3017 55.8289 34.355 55.6949 34.355C55.5609 34.355 55.4324 34.3017 55.3377 34.207C55.2429 34.1122 55.1897 33.9837 55.1897 33.8497V25.1801C55.191 23.9013 55.6995 22.6752 56.6035 21.7708C57.5075 20.8663 58.7333 20.3572 60.0121 20.3552H171.361C172.64 20.3566 173.866 20.8653 174.771 21.7699C175.676 22.6744 176.184 23.9009 176.186 25.1801V37.7071C176.186 37.8411 176.132 37.9696 176.038 38.0644C175.943 38.1591 175.814 38.2123 175.68 38.2123Z" fill="#121212"/>
        <path d="M175.677 94.0729H55.6866C55.5526 94.0729 55.4241 94.0197 55.3294 93.925C55.2346 93.8302 55.1814 93.7017 55.1814 93.5677C55.1814 93.4337 55.2346 93.3052 55.3294 93.2105C55.4241 93.1157 55.5526 93.0625 55.6866 93.0625H175.677C175.811 93.0625 175.94 93.1157 176.034 93.2105C176.129 93.3052 176.182 93.4337 176.182 93.5677C176.182 93.7017 176.129 93.8302 176.034 93.925C175.94 94.0197 175.811 94.0729 175.677 94.0729Z" fill="#121212"/>
        <path d="M61.8191 85.2061H169.555V87.6665H61.8191V85.2061Z" fill="#F0F0F6"/>
        <path opacity="0.59" d="M107.96 87.6636H105.5L120.657 27.7441H123.117L107.96 87.6636Z" fill="white"/>
        <path opacity="0.3" d="M102.551 87.6636H100.09L115.247 27.7441H117.707L102.551 87.6636Z" fill="white"/>
        <path d="M118.963 87.6636H111.451L126.607 27.7441H134.12L118.963 87.6636Z" fill="white"/>
        <path d="M61.8163 53.2404C61.6823 53.2404 61.5538 53.1872 61.459 53.0925C61.3643 52.9977 61.311 52.8692 61.311 52.7352V46.9251C61.311 46.7912 61.3643 46.6626 61.459 46.5679C61.5538 46.4732 61.6823 46.4199 61.8163 46.4199C61.9503 46.4199 62.0788 46.4732 62.1735 46.5679C62.2682 46.6626 62.3215 46.7912 62.3215 46.9251V52.7352C62.3215 52.8692 62.2682 52.9977 62.1735 53.0925C62.0788 53.1872 61.9503 53.2404 61.8163 53.2404Z" fill="#121212"/>
        <path d="M159.777 91.458C160.124 91.458 160.406 91.1763 160.406 90.829C160.406 90.4816 160.124 90.2 159.777 90.2C159.43 90.2 159.148 90.4816 159.148 90.829C159.148 91.1763 159.43 91.458 159.777 91.458Z" fill="#8B8C98"/>
        <path d="M160.963 90.5738C161.067 90.5738 161.15 90.4901 161.15 90.3869C161.15 90.2836 161.067 90.2 160.963 90.2C160.86 90.2 160.776 90.2836 160.776 90.3869C160.776 90.4901 160.86 90.5738 160.963 90.5738Z" fill="#8B8C98"/>
        <path d="M160.042 89.8082C160.146 89.8082 160.229 89.7245 160.229 89.6213C160.229 89.518 160.146 89.4343 160.042 89.4343C159.939 89.4343 159.855 89.518 159.855 89.6213C159.855 89.7245 159.939 89.8082 160.042 89.8082Z" fill="#8B8C98"/>
        <path d="M158.24 90.0309C158.479 90.0309 158.672 89.8375 158.672 89.599C158.672 89.3604 158.479 89.167 158.24 89.167C158.002 89.167 157.808 89.3604 157.808 89.599C157.808 89.8375 158.002 90.0309 158.24 90.0309Z" fill="#8B8C98"/>
        <path d="M157.625 91.2587C157.835 91.2587 158.006 91.088 158.006 90.8773C158.006 90.6666 157.835 90.4958 157.625 90.4958C157.414 90.4958 157.243 90.6666 157.243 90.8773C157.243 91.088 157.414 91.2587 157.625 91.2587Z" fill="#8B8C98"/>
        <path d="M156.541 90.1976C156.649 90.1976 156.736 90.1105 156.736 90.0031C156.736 89.8957 156.649 89.8086 156.541 89.8086C156.434 89.8086 156.347 89.8957 156.347 90.0031C156.347 90.1105 156.434 90.1976 156.541 90.1976Z" fill="#8B8C98"/>
        <path d="M156.974 89.376C157.105 89.376 157.212 89.2697 157.212 89.1386C157.212 89.0074 157.105 88.9011 156.974 88.9011C156.843 88.9011 156.737 89.0074 156.737 89.1386C156.737 89.2697 156.843 89.376 156.974 89.376Z" fill="#8B8C98"/>
        <path d="M155.117 91.0165C155.343 91.0165 155.526 90.8332 155.526 90.6072C155.526 90.3812 155.343 90.198 155.117 90.198C154.891 90.198 154.708 90.3812 154.708 90.6072C154.708 90.8332 154.891 91.0165 155.117 91.0165Z" fill="#8B8C98"/>
        <path d="M162.41 90.3189C162.551 90.3189 162.665 90.2046 162.665 90.0637C162.665 89.9228 162.551 89.8086 162.41 89.8086C162.269 89.8086 162.155 89.9228 162.155 90.0637C162.155 90.2046 162.269 90.3189 162.41 90.3189Z" fill="#8B8C98"/>
        <path d="M161.449 89.4324C161.53 89.4324 161.596 89.3668 161.596 89.2859C161.596 89.205 161.53 89.1394 161.449 89.1394C161.369 89.1394 161.303 89.205 161.303 89.2859C161.303 89.3668 161.369 89.4324 161.449 89.4324Z" fill="#8B8C98"/>
        <path d="M162.579 89.013C162.72 89.013 162.834 88.8987 162.834 88.7578C162.834 88.6169 162.72 88.5027 162.579 88.5027C162.438 88.5027 162.323 88.6169 162.323 88.7578C162.323 88.8987 162.438 89.013 162.579 89.013Z" fill="#8B8C98"/>
        <path d="M161.405 90.0311C161.502 90.0311 161.581 89.952 161.581 89.8543C161.581 89.7567 161.502 89.6775 161.405 89.6775C161.307 89.6775 161.228 89.7567 161.228 89.8543C161.228 89.952 161.307 90.0311 161.405 90.0311Z" fill="#8B8C98"/>
        <path d="M160.533 88.9575C160.643 88.9575 160.732 88.8681 160.732 88.7579C160.732 88.6477 160.643 88.5583 160.533 88.5583C160.423 88.5583 160.333 88.6477 160.333 88.7579C160.333 88.8681 160.423 88.9575 160.533 88.9575Z" fill="#8B8C98"/>
        <path d="M159.274 88.7577C159.436 88.7577 159.568 88.6265 159.568 88.4647C159.568 88.3028 159.436 88.1716 159.274 88.1716C159.113 88.1716 158.981 88.3028 158.981 88.4647C158.981 88.6265 159.113 88.7577 159.274 88.7577Z" fill="#8B8C98"/>
        <path d="M159.51 89.2657C159.545 89.2657 159.573 89.2374 159.573 89.2026C159.573 89.1677 159.545 89.1394 159.51 89.1394C159.475 89.1394 159.447 89.1677 159.447 89.2026C159.447 89.2374 159.475 89.2657 159.51 89.2657Z" fill="#8B8C98"/>
        <path d="M159.241 89.9074C159.293 89.9074 159.335 89.8655 159.335 89.8139C159.335 89.7623 159.293 89.7205 159.241 89.7205C159.19 89.7205 159.148 89.7623 159.148 89.8139C159.148 89.8655 159.19 89.9074 159.241 89.9074Z" fill="#8B8C98"/>
        <path d="M162.399 91.5233C162.625 91.5233 162.809 91.3401 162.809 91.1141C162.809 90.8881 162.625 90.7048 162.399 90.7048C162.173 90.7048 161.99 90.8881 161.99 91.1141C161.99 91.3401 162.173 91.5233 162.399 91.5233Z" fill="#8B8C98"/>
        <path d="M164.044 90.9477C164.218 90.9477 164.36 90.8063 164.36 90.6319C164.36 90.4575 164.218 90.3162 164.044 90.3162C163.87 90.3162 163.728 90.4575 163.728 90.6319C163.728 90.8063 163.87 90.9477 164.044 90.9477Z" fill="#8B8C98"/>
        <path d="M165.655 91.8217C166.022 91.8217 166.32 91.5242 166.32 91.1573C166.32 90.7904 166.022 90.4929 165.655 90.4929C165.288 90.4929 164.991 90.7904 164.991 91.1573C164.991 91.5242 165.288 91.8217 165.655 91.8217Z" fill="#8B8C98"/>
        <path d="M167.671 91.9155C168.063 91.9155 168.381 91.5977 168.381 91.2057C168.381 90.8137 168.063 90.4958 167.671 90.4958C167.279 90.4958 166.961 90.8137 166.961 91.2057C166.961 91.5977 167.279 91.9155 167.671 91.9155Z" fill="#8B8C98"/>
        <path d="M168.931 91.2276C169.102 91.2276 169.241 91.0885 169.241 90.9169C169.241 90.7453 169.102 90.6062 168.931 90.6062C168.759 90.6062 168.62 90.7453 168.62 90.9169C168.62 91.0885 168.759 91.2276 168.931 91.2276Z" fill="#8B8C98"/>
        <path d="M167.779 90.0309C167.841 90.0309 167.891 89.9811 167.891 89.9197C167.891 89.8584 167.841 89.8086 167.779 89.8086C167.718 89.8086 167.668 89.8584 167.668 89.9197C167.668 89.9811 167.718 90.0309 167.779 90.0309Z" fill="#8B8C98"/>
        <path d="M166.239 89.6194C166.372 89.6194 166.479 89.5119 166.479 89.3794C166.479 89.2469 166.372 89.1394 166.239 89.1394C166.107 89.1394 165.999 89.2469 165.999 89.3794C165.999 89.5119 166.107 89.6194 166.239 89.6194Z" fill="#8B8C98"/>
        <path d="M165.233 89.2856C165.367 89.2856 165.476 89.177 165.476 89.043C165.476 88.9091 165.367 88.8005 165.233 88.8005C165.1 88.8005 164.991 88.9091 164.991 89.043C164.991 89.177 165.1 89.2856 165.233 89.2856Z" fill="#8B8C98"/>
        <path d="M164.379 89.6743C164.561 89.6743 164.709 89.5261 164.709 89.3434C164.709 89.1606 164.561 89.0125 164.379 89.0125C164.196 89.0125 164.048 89.1606 164.048 89.3434C164.048 89.5261 164.196 89.6743 164.379 89.6743Z" fill="#8B8C98"/>
        <path d="M163.487 89.8646C163.621 89.8646 163.73 89.7561 163.73 89.6221C163.73 89.4882 163.621 89.3796 163.487 89.3796C163.353 89.3796 163.245 89.4882 163.245 89.6221C163.245 89.7561 163.353 89.8646 163.487 89.8646Z" fill="#8B8C98"/>
        <path d="M165.852 90.2907C165.932 90.2907 165.996 90.2262 165.996 90.1467C165.996 90.0671 165.932 90.0027 165.852 90.0027C165.773 90.0027 165.708 90.0671 165.708 90.1467C165.708 90.2262 165.773 90.2907 165.852 90.2907Z" fill="#8B8C98"/>
        <path d="M147.224 85.4867C147.886 85.4867 148.423 84.9495 148.423 84.2868C148.423 83.6241 147.886 83.0869 147.224 83.0869C146.561 83.0869 146.024 83.6241 146.024 84.2868C146.024 84.9495 146.561 85.4867 147.224 85.4867Z" fill="#F0F0F6"/>
        <path d="M149.478 83.8015C149.675 83.8015 149.834 83.642 149.834 83.4453C149.834 83.2486 149.675 83.0891 149.478 83.0891C149.281 83.0891 149.122 83.2486 149.122 83.4453C149.122 83.642 149.281 83.8015 149.478 83.8015Z" fill="#F0F0F6"/>
        <path d="M147.734 82.3463C147.932 82.3463 148.093 82.1857 148.093 81.9876C148.093 81.7895 147.932 81.6289 147.734 81.6289C147.536 81.6289 147.375 81.7895 147.375 81.9876C147.375 82.1857 147.536 82.3463 147.734 82.3463Z" fill="#F0F0F6"/>
        <path d="M144.299 82.766C144.753 82.766 145.12 82.3984 145.12 81.945C145.12 81.4916 144.753 81.124 144.299 81.124C143.846 81.124 143.478 81.4916 143.478 81.945C143.478 82.3984 143.846 82.766 144.299 82.766Z" fill="#F0F0F6"/>
        <path d="M143.13 85.1054C143.532 85.1054 143.858 84.7797 143.858 84.3779C143.858 83.9761 143.532 83.6504 143.13 83.6504C142.729 83.6504 142.403 83.9761 142.403 84.3779C142.403 84.7797 142.729 85.1054 143.13 85.1054Z" fill="#F0F0F6"/>
        <path d="M141.066 83.0894C141.272 83.0894 141.438 82.9231 141.438 82.718C141.438 82.5129 141.272 82.3467 141.066 82.3467C140.861 82.3467 140.695 82.5129 140.695 82.718C140.695 82.9231 140.861 83.0894 141.066 83.0894Z" fill="#F0F0F6"/>
        <path d="M141.893 81.5225C142.143 81.5225 142.346 81.3201 142.346 81.0703C142.346 80.8206 142.143 80.6182 141.893 80.6182C141.644 80.6182 141.441 80.8206 141.441 81.0703C141.441 81.3201 141.644 81.5225 141.893 81.5225Z" fill="#F0F0F6"/>
        <path d="M138.358 84.6401C138.786 84.6401 139.134 84.2929 139.134 83.8646C139.134 83.4363 138.786 83.0891 138.358 83.0891C137.93 83.0891 137.583 83.4363 137.583 83.8646C137.583 84.2929 137.93 84.6401 138.358 84.6401Z" fill="#F0F0F6"/>
        <path d="M152.24 83.3167C152.508 83.3167 152.725 83.0996 152.725 82.8317C152.725 82.5638 152.508 82.3467 152.24 82.3467C151.972 82.3467 151.755 82.5638 151.755 82.8317C151.755 83.0996 151.972 83.3167 152.24 83.3167Z" fill="#F0F0F6"/>
        <path d="M150.412 81.629C150.566 81.629 150.69 81.5046 150.69 81.3511C150.69 81.1977 150.566 81.0732 150.412 81.0732C150.259 81.0732 150.134 81.1977 150.134 81.3511C150.134 81.5046 150.259 81.629 150.412 81.629Z" fill="#F0F0F6"/>
        <path d="M152.553 80.8304C152.821 80.8304 153.038 80.6132 153.038 80.3454C153.038 80.0775 152.821 79.8604 152.553 79.8604C152.285 79.8604 152.068 80.0775 152.068 80.3454C152.068 80.6132 152.285 80.8304 152.553 80.8304Z" fill="#F0F0F6"/>
        <path d="M150.324 82.7657C150.51 82.7657 150.66 82.6153 150.66 82.4297C150.66 82.2442 150.51 82.0938 150.324 82.0938C150.138 82.0938 149.988 82.2442 149.988 82.4297C149.988 82.6153 150.138 82.7657 150.324 82.7657Z" fill="#F0F0F6"/>
        <path d="M148.657 80.7246C148.867 80.7246 149.036 80.555 149.036 80.3457C149.036 80.1364 148.867 79.9668 148.657 79.9668C148.448 79.9668 148.278 80.1364 148.278 80.3457C148.278 80.555 148.448 80.7246 148.657 80.7246Z" fill="#F0F0F6"/>
        <path d="M146.269 80.346C146.577 80.346 146.827 80.0961 146.827 79.7878C146.827 79.4794 146.577 79.2295 146.269 79.2295C145.96 79.2295 145.71 79.4794 145.71 79.7878C145.71 80.0961 145.96 80.346 146.269 80.346Z" fill="#F0F0F6"/>
        <path d="M146.716 81.3138C146.783 81.3138 146.837 81.2595 146.837 81.1925C146.837 81.1256 146.783 81.0713 146.716 81.0713C146.649 81.0713 146.595 81.1256 146.595 81.1925C146.595 81.2595 146.649 81.3138 146.716 81.3138Z" fill="#F0F0F6"/>
        <path d="M146.209 82.5355C146.308 82.5355 146.388 82.4552 146.388 82.3561C146.388 82.2571 146.308 82.1768 146.209 82.1768C146.11 82.1768 146.03 82.2571 146.03 82.3561C146.03 82.4552 146.11 82.5355 146.209 82.5355Z" fill="#F0F0F6"/>
        <path d="M152.218 85.6098C152.647 85.6098 152.996 85.2615 152.996 84.8318C152.996 84.4021 152.647 84.0537 152.218 84.0537C151.788 84.0537 151.439 84.4021 151.439 84.8318C151.439 85.2615 151.788 85.6098 152.218 85.6098Z" fill="#F0F0F6"/>
        <path d="M155.348 84.5169C155.68 84.5169 155.95 84.2477 155.95 83.9157C155.95 83.5836 155.68 83.3145 155.348 83.3145C155.016 83.3145 154.747 83.5836 154.747 83.9157C154.747 84.2477 155.016 84.5169 155.348 84.5169Z" fill="#F0F0F6"/>
        <path d="M158.413 86.1785C159.111 86.1785 159.676 85.613 159.676 84.9154C159.676 84.2178 159.111 83.6523 158.413 83.6523C157.716 83.6523 157.15 84.2178 157.15 84.9154C157.15 85.613 157.716 86.1785 158.413 86.1785Z" fill="#F0F0F6"/>
        <path d="M162.247 86.3584C162.995 86.3584 163.601 85.7522 163.601 85.0044C163.601 84.2566 162.995 83.6504 162.247 83.6504C161.499 83.6504 160.893 84.2566 160.893 85.0044C160.893 85.7522 161.499 86.3584 162.247 86.3584Z" fill="#F0F0F6"/>
        <path d="M164.641 85.0441C164.966 85.0441 165.229 84.7806 165.229 84.4555C165.229 84.1305 164.966 83.8669 164.641 83.8669C164.316 83.8669 164.052 84.1305 164.052 84.4555C164.052 84.7806 164.316 85.0441 164.641 85.0441Z" fill="#F0F0F6"/>
        <path d="M162.459 82.766C162.574 82.766 162.668 82.6721 162.668 82.5563C162.668 82.4405 162.574 82.3467 162.459 82.3467C162.343 82.3467 162.249 82.4405 162.249 82.5563C162.249 82.6721 162.343 82.766 162.459 82.766Z" fill="#F0F0F6"/>
        <path d="M159.525 81.9877C159.777 81.9877 159.982 81.783 159.982 81.5305C159.982 81.2779 159.777 81.0732 159.525 81.0732C159.272 81.0732 159.067 81.2779 159.067 81.5305C159.067 81.783 159.272 81.9877 159.525 81.9877Z" fill="#F0F0F6"/>
        <path d="M157.61 81.3512C157.864 81.3512 158.07 81.1453 158.07 80.8914C158.07 80.6375 157.864 80.4316 157.61 80.4316C157.356 80.4316 157.15 80.6375 157.15 80.8914C157.15 81.1453 157.356 81.3512 157.61 81.3512Z" fill="#F0F0F6"/>
        <path d="M155.978 82.0931C156.327 82.0931 156.61 81.8104 156.61 81.4616C156.61 81.1128 156.327 80.8301 155.978 80.8301C155.63 80.8301 155.347 81.1128 155.347 81.4616C155.347 81.8104 155.63 82.0931 155.978 82.0931Z" fill="#F0F0F6"/>
        <path d="M154.286 82.4478C154.54 82.4478 154.746 82.242 154.746 81.9881C154.746 81.7342 154.54 81.5283 154.286 81.5283C154.032 81.5283 153.826 81.7342 153.826 81.9881C153.826 82.242 154.032 82.4478 154.286 82.4478Z" fill="#F0F0F6"/>
        <path d="M158.787 83.2634C158.938 83.2634 159.06 83.1413 159.06 82.9906C159.06 82.8399 158.938 82.7178 158.787 82.7178C158.637 82.7178 158.514 82.8399 158.514 82.9906C158.514 83.1413 158.637 83.2634 158.787 83.2634Z" fill="#F0F0F6"/>
        <path d="M73.8674 98.1376C74.1799 98.1376 74.4332 97.8842 74.4332 97.5717C74.4332 97.2592 74.1799 97.0059 73.8674 97.0059C73.5549 97.0059 73.3015 97.2592 73.3015 97.5717C73.3015 97.8842 73.5549 98.1376 73.8674 98.1376Z" fill="#8B8C98"/>
        <path d="M65.397 39.956C65.3458 39.9559 65.2951 39.9456 65.2479 39.9257C65.2014 39.9059 65.1593 39.8771 65.1241 39.8408C65.0889 39.8046 65.0613 39.7616 65.043 39.7146C65.0246 39.6675 65.0159 39.6172 65.0172 39.5667C65.0186 39.5162 65.03 39.4665 65.0509 39.4205L68.5875 31.2283C68.6304 31.141 68.7053 31.0735 68.7966 31.0399C68.8879 31.0063 68.9886 31.0091 69.0779 31.0478C69.1672 31.0864 69.2382 31.1579 69.2763 31.2475C69.3143 31.337 69.3164 31.4378 69.2821 31.5289L65.7456 39.7211C65.7174 39.7905 65.6692 39.8499 65.6071 39.8917C65.545 39.9336 65.4719 39.956 65.397 39.956Z" fill="#121212"/>
        <path d="M68.3839 38.331C68.3316 38.331 68.2799 38.3198 68.2323 38.2981C68.1858 38.2784 68.1437 38.2495 68.1085 38.2133C68.0733 38.177 68.0457 38.1341 68.0274 38.087C68.009 38.0399 68.0002 37.9897 68.0016 37.9392C68.003 37.8887 68.0144 37.8389 68.0353 37.7929L69.8035 33.6981C69.8434 33.6056 69.9184 33.5328 70.0119 33.4956C70.1055 33.4584 70.21 33.4599 70.3025 33.4998C70.3949 33.5396 70.4677 33.6146 70.5049 33.7082C70.5421 33.8017 70.5406 33.9062 70.5008 33.9987L68.7325 38.0935C68.705 38.1636 68.6571 38.2237 68.5949 38.2661C68.5327 38.3085 68.4591 38.3311 68.3839 38.331Z" fill="#121212"/>
        <path d="M67.7698 40.312C68.1032 40.312 68.3735 40.0417 68.3735 39.7082C68.3735 39.3748 68.1032 39.1045 67.7698 39.1045C67.4363 39.1045 67.166 39.3748 67.166 39.7082C67.166 40.0417 67.4363 40.312 67.7698 40.312Z" fill="#121212"/>
        <path d="M77.8153 23.9983H65.7986C65.6981 23.9983 65.6017 23.9584 65.5307 23.8873C65.4596 23.8163 65.4197 23.7199 65.4197 23.6194C65.4197 23.5189 65.4596 23.4225 65.5307 23.3515C65.6017 23.2804 65.6981 23.2405 65.7986 23.2405H77.8153C77.9158 23.2405 78.0122 23.2804 78.0833 23.3515C78.1543 23.4225 78.1942 23.5189 78.1942 23.6194C78.1942 23.7199 78.1543 23.8163 78.0833 23.8873C78.0122 23.9584 77.9158 23.9983 77.8153 23.9983Z" fill="#121212"/>
        <path d="M82.8796 23.9983H80.4646C80.3641 23.9983 80.2677 23.9584 80.1967 23.8873C80.1256 23.8163 80.0857 23.7199 80.0857 23.6194C80.0857 23.5189 80.1256 23.4225 80.1967 23.3515C80.2677 23.2804 80.3641 23.2405 80.4646 23.2405H82.8796C82.9801 23.2405 83.0765 23.2804 83.1475 23.3515C83.2186 23.4225 83.2585 23.5189 83.2585 23.6194C83.2585 23.7199 83.2186 23.8163 83.1475 23.8873C83.0765 23.9584 82.9801 23.9983 82.8796 23.9983Z" fill="#121212"/>
        <path d="M175.629 63.2291C175.495 63.2291 175.367 63.1759 175.272 63.0812C175.177 62.9864 175.124 62.8579 175.124 62.7239V60.3519C175.124 60.2179 175.177 60.0894 175.272 59.9947C175.367 59.8999 175.495 59.8467 175.629 59.8467C175.763 59.8467 175.891 59.8999 175.986 59.9947C176.081 60.0894 176.134 60.2179 176.134 60.3519V62.7239C176.134 62.8579 176.081 62.9864 175.986 63.0812C175.891 63.1759 175.763 63.2291 175.629 63.2291Z" fill="#121212"/>
        <path d="M70.3632 98.2258C71.4025 98.2258 72.2451 97.3832 72.2451 96.3439C72.2451 95.3045 71.4025 94.4619 70.3632 94.4619C69.3238 94.4619 68.4812 95.3045 68.4812 96.3439C68.4812 97.3832 69.3238 98.2258 70.3632 98.2258Z" fill="#8B8C98"/>
        <path d="M72.3658 100.972C72.882 100.972 73.3005 100.553 73.3005 100.037C73.3005 99.521 72.882 99.1025 72.3658 99.1025C71.8496 99.1025 71.4312 99.521 71.4312 100.037C71.4312 100.553 71.8496 100.972 72.3658 100.972Z" fill="#8B8C98"/>
        <path d="M66.9408 99.1551C67.4542 99.1551 67.8705 98.7389 67.8705 98.2255C67.8705 97.7121 67.4542 97.2959 66.9408 97.2959C66.4274 97.2959 66.0112 97.7121 66.0112 98.2255C66.0112 98.7389 66.4274 99.1551 66.9408 99.1551Z" fill="#8B8C98"/>
        <path d="M115.637 104.375C117.515 104.375 119.038 102.852 119.038 100.974C119.038 99.0965 117.515 97.5742 115.637 97.5742C113.76 97.5742 112.237 99.0965 112.237 100.974C112.237 102.852 113.76 104.375 115.637 104.375Z" fill="white"/>
        <path d="M115.695 105.503C115.114 105.517 114.537 105.415 113.996 105.202C113.455 104.989 112.962 104.671 112.547 104.265C112.131 103.859 111.8 103.374 111.575 102.838C111.349 102.303 111.233 101.728 111.233 101.147C111.233 100.566 111.349 99.9903 111.575 99.4548C111.8 98.9194 112.131 98.4344 112.547 98.0285C112.962 97.6226 113.455 97.3039 113.996 97.0913C114.537 96.8787 115.114 96.7763 115.695 96.7903C115.829 96.7903 115.958 96.8436 116.053 96.9383C116.147 97.033 116.201 97.1616 116.201 97.2955C116.201 97.4295 116.147 97.558 116.053 97.6528C115.958 97.7475 115.829 97.8008 115.695 97.8008C114.956 97.8009 114.237 98.046 113.652 98.4978C113.067 98.9495 112.648 99.5825 112.46 100.298C112.273 101.013 112.328 101.77 112.617 102.451C112.905 103.132 113.411 103.698 114.056 104.06C114.7 104.423 115.446 104.562 116.178 104.455C116.91 104.348 117.585 104.002 118.099 103.471C118.614 102.94 118.937 102.253 119.02 101.518C119.102 100.783 118.939 100.042 118.555 99.4099C118.485 99.2953 118.464 99.1578 118.496 99.0275C118.527 98.8972 118.61 98.7849 118.724 98.7152C118.839 98.6455 118.976 98.6242 119.107 98.656C119.237 98.6877 119.349 98.7699 119.419 98.8845C119.82 99.5452 120.038 100.301 120.051 101.073C120.063 101.846 119.87 102.608 119.492 103.282C119.113 103.956 118.561 104.516 117.894 104.906C117.227 105.297 116.468 105.503 115.695 105.503Z" fill="#121212"/>
        <path d="M99.5283 119.513C99.4825 119.513 99.437 119.505 99.3945 119.488C99.3477 119.471 99.3048 119.444 99.2683 119.41C99.2318 119.376 99.2024 119.336 99.182 119.29C99.1615 119.245 99.1503 119.196 99.149 119.146C99.1478 119.096 99.1565 119.046 99.1747 119L100.114 116.517C100.15 116.423 100.221 116.347 100.313 116.305C100.405 116.264 100.509 116.26 100.603 116.296C100.697 116.331 100.774 116.403 100.815 116.495C100.856 116.586 100.86 116.691 100.824 116.785L99.882 119.268C99.8546 119.34 99.8061 119.401 99.743 119.445C99.6799 119.489 99.6051 119.512 99.5283 119.513Z" fill="#121212"/>
        <path d="M101.38 114.62C101.334 114.62 101.289 114.612 101.246 114.597C101.199 114.579 101.156 114.553 101.12 114.519C101.084 114.484 101.055 114.443 101.034 114.398C101.014 114.352 101.003 114.303 101.001 114.253C101 114.203 101.008 114.154 101.026 114.107L101.584 112.632C101.6 112.582 101.625 112.536 101.658 112.497C101.692 112.458 101.733 112.426 101.78 112.403C101.826 112.38 101.877 112.367 101.929 112.365C101.981 112.362 102.032 112.37 102.081 112.389C102.129 112.407 102.173 112.435 102.21 112.471C102.248 112.507 102.277 112.551 102.297 112.599C102.317 112.646 102.326 112.698 102.325 112.75C102.325 112.801 102.313 112.852 102.292 112.9L101.733 114.375C101.706 114.447 101.658 114.508 101.594 114.552C101.531 114.596 101.456 114.619 101.38 114.62Z" fill="#121212"/>
        <path d="M86.3393 86.3426H75.0501C74.7486 86.3426 74.4595 86.2228 74.2463 86.0097C74.0331 85.7965 73.9133 85.5073 73.9133 85.2058C73.9133 84.9044 74.0331 84.6152 74.2463 84.402C74.4595 84.1889 74.7486 84.0691 75.0501 84.0691H86.3393C86.6408 84.0691 86.9299 84.1889 87.1431 84.402C87.3563 84.6152 87.476 84.9044 87.476 85.2058C87.476 85.5073 87.3563 85.7965 87.1431 86.0097C86.9299 86.2228 86.6408 86.3426 86.3393 86.3426Z" fill="#F0F0F6"/>
        <path d="M127.821 24.7562H116.529C116.228 24.7562 115.939 24.6364 115.726 24.4232C115.512 24.21 115.393 23.9209 115.393 23.6194C115.393 23.3179 115.512 23.0288 115.726 22.8156C115.939 22.6024 116.228 22.4827 116.529 22.4827H127.821C128.123 22.4827 128.412 22.6024 128.625 22.8156C128.838 23.0288 128.958 23.3179 128.958 23.6194C128.958 23.9209 128.838 24.21 128.625 24.4232C128.412 24.6364 128.123 24.7562 127.821 24.7562Z" fill="#8B8C98"/>
        <path d="M152.869 24.7562H147.642C147.341 24.7562 147.052 24.6364 146.838 24.4232C146.625 24.21 146.505 23.9209 146.505 23.6194C146.505 23.3179 146.625 23.0288 146.838 22.8156C147.052 22.6024 147.341 22.4827 147.642 22.4827H152.869C153.17 22.4827 153.459 22.6024 153.672 22.8156C153.886 23.0288 154.005 23.3179 154.005 23.6194C154.005 23.9209 153.886 24.21 153.672 24.4232C153.459 24.6364 153.17 24.7562 152.869 24.7562Z" fill="#8B8C98"/>
        <path d="M225.097 119.98H5.48909C3.61403 119.98 2.09399 121.501 2.09399 123.376C2.09399 125.251 3.61403 126.771 5.48909 126.771H225.097C226.972 126.771 228.492 125.251 228.492 123.376C228.492 121.501 226.972 119.98 225.097 119.98Z" fill="#B2B2BB"/>
        <path d="M228.492 123.528C228.491 124.428 228.134 125.291 227.497 125.928C226.86 126.564 225.997 126.922 225.097 126.923H5.4891C4.58866 126.923 3.72511 126.565 3.0884 125.928C2.4517 125.292 2.094 124.428 2.094 123.528C2.09304 122.931 2.25085 122.345 2.55123 121.83C2.84842 122.346 3.2765 122.775 3.7923 123.073C4.30811 123.371 4.89338 123.528 5.4891 123.528H225.097C225.693 123.526 226.278 123.369 226.794 123.071C227.31 122.773 227.738 122.345 228.037 121.83C228.337 122.346 228.494 122.931 228.492 123.528Z" fill="#B2B2BB"/>
        <path d="M41.7889 122.011H24.965C24.7305 122.011 24.5056 121.918 24.3398 121.752C24.174 121.587 24.0808 121.362 24.0808 121.127C24.0808 120.893 24.174 120.668 24.3398 120.502C24.5056 120.336 24.7305 120.243 24.965 120.243H41.7889C42.0234 120.243 42.2483 120.336 42.4141 120.502C42.5799 120.668 42.673 120.893 42.673 121.127C42.673 121.362 42.5799 121.587 42.4141 121.752C42.2483 121.918 42.0234 122.011 41.7889 122.011Z" fill="#FDFDFF"/>
        <path d="M50.8543 122.011H46.661C46.4265 122.011 46.2016 121.918 46.0358 121.752C45.87 121.587 45.7769 121.362 45.7769 121.127C45.7769 120.893 45.87 120.668 46.0358 120.502C46.2016 120.336 46.4265 120.243 46.661 120.243H50.8543C51.0888 120.243 51.3137 120.336 51.4795 120.502C51.6453 120.668 51.7385 120.893 51.7385 121.127C51.7385 121.362 51.6453 121.587 51.4795 121.752C51.3137 121.918 51.0888 122.011 50.8543 122.011Z" fill="#FDFDFF"/>
        <path d="M168.867 124.259H152.043C151.809 124.259 151.584 124.166 151.418 124.001C151.252 123.835 151.159 123.61 151.159 123.375C151.159 123.141 151.252 122.916 151.418 122.75C151.584 122.584 151.809 122.491 152.043 122.491H168.867C169.101 122.491 169.326 122.584 169.492 122.75C169.658 122.916 169.751 123.141 169.751 123.375C169.751 123.61 169.658 123.835 169.492 124.001C169.326 124.166 169.101 124.259 168.867 124.259Z" fill="#B2B2BB"/>
        <path d="M177.937 124.259H173.743C173.509 124.259 173.284 124.166 173.118 124.001C172.952 123.835 172.859 123.61 172.859 123.375C172.859 123.141 172.952 122.916 173.118 122.75C173.284 122.584 173.509 122.491 173.743 122.491H177.937C178.171 122.491 178.396 122.584 178.562 122.75C178.728 122.916 178.821 123.141 178.821 123.375C178.821 123.61 178.728 123.835 178.562 124.001C178.396 124.166 178.171 124.259 177.937 124.259Z" fill="#B2B2BB"/>
        <path d="M106.678 126.77H89.8539C89.6194 126.77 89.3945 126.677 89.2287 126.511C89.0629 126.345 88.9697 126.121 88.9697 125.886C88.9697 125.652 89.0629 125.427 89.2287 125.261C89.3945 125.095 89.6194 125.002 89.8539 125.002H106.678C106.912 125.002 107.137 125.095 107.303 125.261C107.469 125.427 107.562 125.652 107.562 125.886C107.562 126.121 107.469 126.345 107.303 126.511C107.137 126.677 106.912 126.77 106.678 126.77Z" fill="#8B8C98"/>
        <path d="M115.743 126.77H111.55C111.315 126.77 111.091 126.677 110.925 126.511C110.759 126.345 110.666 126.121 110.666 125.886C110.666 125.652 110.759 125.427 110.925 125.261C111.091 125.095 111.315 125.002 111.55 125.002H115.743C115.978 125.002 116.203 125.095 116.368 125.261C116.534 125.427 116.627 125.652 116.627 125.886C116.627 126.121 116.534 126.345 116.368 126.511C116.203 126.677 115.978 126.77 115.743 126.77Z" fill="#8B8C98"/>
        <path d="M20.882 126.77H4.05553C3.82104 126.77 3.59615 126.677 3.43035 126.511C3.26454 126.345 3.17139 126.121 3.17139 125.886C3.17139 125.652 3.26454 125.427 3.43035 125.261C3.59615 125.095 3.82104 125.002 4.05553 125.002H20.882C21.1165 125.002 21.3414 125.095 21.5072 125.261C21.673 125.427 21.7661 125.652 21.7661 125.886C21.7661 126.121 21.673 126.345 21.5072 126.511C21.3414 126.677 21.1165 126.77 20.882 126.77Z" fill="#8B8C98"/>
        <path d="M29.9512 126.77H25.7679C25.5334 126.77 25.3086 126.677 25.1427 126.511C24.9769 126.345 24.8838 126.121 24.8838 125.886C24.8838 125.652 24.9769 125.427 25.1427 125.261C25.3086 125.095 25.5334 125.002 25.7679 125.002H29.9613C30.1958 125.002 30.4207 125.095 30.5865 125.261C30.7523 125.427 30.8454 125.652 30.8454 125.886C30.8454 126.121 30.7523 126.345 30.5865 126.511C30.4207 126.677 30.1958 126.77 29.9613 126.77H29.9512Z" fill="#8B8C98"/>
        <path d="M217.051 126.77H200.227C199.992 126.77 199.768 126.677 199.602 126.511C199.436 126.345 199.343 126.121 199.343 125.886C199.343 125.652 199.436 125.427 199.602 125.261C199.768 125.095 199.992 125.002 200.227 125.002H217.051C217.285 125.002 217.51 125.095 217.676 125.261C217.842 125.427 217.935 125.652 217.935 125.886C217.935 126.121 217.842 126.345 217.676 126.511C217.51 126.677 217.285 126.77 217.051 126.77Z" fill="#8B8C98"/>
        <path d="M226.119 126.77H221.923C221.688 126.77 221.464 126.677 221.298 126.511C221.132 126.345 221.039 126.121 221.039 125.886C221.039 125.652 221.132 125.427 221.298 125.261C221.464 125.095 221.688 125.002 221.923 125.002H226.119C226.353 125.002 226.578 125.095 226.744 125.261C226.91 125.427 227.003 125.652 227.003 125.886C227.003 126.121 226.91 126.345 226.744 126.511C226.578 126.677 226.353 126.77 226.119 126.77Z" fill="#8B8C98"/>
        <path d="M225.096 127.276H5.48797C4.45354 127.276 3.46148 126.865 2.73002 126.134C1.99857 125.402 1.58765 124.41 1.58765 123.376C1.58765 122.341 1.99857 121.349 2.73002 120.618C3.46148 119.887 4.45354 119.476 5.48797 119.476H66.4608C66.5948 119.476 66.7233 119.529 66.8181 119.624C66.9128 119.718 66.9661 119.847 66.9661 119.981C66.9661 120.115 66.9128 120.243 66.8181 120.338C66.7233 120.433 66.5948 120.486 66.4608 120.486H5.48797C4.72153 120.486 3.98648 120.791 3.44452 121.332C2.90256 121.874 2.59809 122.609 2.59809 123.376C2.59809 124.142 2.90256 124.877 3.44452 125.419C3.98648 125.961 4.72153 126.266 5.48797 126.266H225.096C225.862 126.266 226.597 125.961 227.139 125.419C227.681 124.877 227.986 124.142 227.986 123.376C227.986 122.609 227.681 121.874 227.139 121.332C226.597 120.791 225.862 120.486 225.096 120.486H83.9062C83.7722 120.486 83.6437 120.433 83.5489 120.338C83.4542 120.243 83.401 120.115 83.401 119.981C83.401 119.847 83.4542 119.718 83.5489 119.624C83.6437 119.529 83.7722 119.476 83.9062 119.476H225.096C226.13 119.476 227.122 119.887 227.854 120.618C228.585 121.349 228.996 122.341 228.996 123.376C228.996 124.41 228.585 125.402 227.854 126.134C227.122 126.865 226.13 127.276 225.096 127.276Z" fill="#121212"/>
        <path d="M74.5431 120.496H70.8954C70.7614 120.496 70.6329 120.442 70.5381 120.348C70.4434 120.253 70.3901 120.124 70.3901 119.99C70.3901 119.856 70.4434 119.728 70.5381 119.633C70.6329 119.538 70.7614 119.485 70.8954 119.485H74.5431C74.6771 119.485 74.8056 119.538 74.9003 119.633C74.9951 119.728 75.0483 119.856 75.0483 119.99C75.0483 120.124 74.9951 120.253 74.9003 120.348C74.8056 120.442 74.6771 120.496 74.5431 120.496Z" fill="#121212"/>
        <path d="M79.6358 120.496H77.7589C77.6249 120.496 77.4964 120.442 77.4016 120.348C77.3069 120.253 77.2537 120.124 77.2537 119.99C77.2537 119.856 77.3069 119.728 77.4016 119.633C77.4964 119.538 77.6249 119.485 77.7589 119.485H79.6358C79.7698 119.485 79.8983 119.538 79.993 119.633C80.0878 119.728 80.141 119.856 80.141 119.99C80.141 120.124 80.0878 120.253 79.993 120.348C79.8983 120.442 79.7698 120.496 79.6358 120.496Z" fill="#121212"/>
        <path d="M202.905 120.155C202.771 120.155 202.643 120.102 202.548 120.007C202.453 119.912 202.4 119.784 202.4 119.65C202.4 118.701 202.153 117.769 201.684 116.945C201.216 116.12 200.541 115.431 199.726 114.946C198.911 114.461 197.984 114.195 197.036 114.176C196.088 114.156 195.151 114.383 194.316 114.835C194.199 114.899 194.06 114.913 193.932 114.874C193.803 114.836 193.696 114.748 193.632 114.63C193.568 114.512 193.554 114.374 193.592 114.246C193.631 114.117 193.719 114.009 193.837 113.946C194.824 113.413 195.933 113.146 197.055 113.17C198.178 113.194 199.274 113.509 200.238 114.083C201.202 114.658 202 115.473 202.555 116.449C203.11 117.424 203.402 118.527 203.403 119.65C203.403 119.782 203.351 119.91 203.258 120.004C203.165 120.099 203.038 120.153 202.905 120.155Z" fill="#121212"/>
        <path d="M190.952 120.155C190.818 120.155 190.689 120.102 190.595 120.007C190.5 119.912 190.447 119.784 190.447 119.65C190.447 118.165 190.956 116.726 191.889 115.572C191.929 115.517 191.981 115.471 192.04 115.436C192.099 115.401 192.164 115.379 192.232 115.37C192.3 115.361 192.369 115.367 192.435 115.385C192.501 115.404 192.562 115.436 192.615 115.479C192.668 115.522 192.712 115.576 192.744 115.637C192.776 115.697 192.795 115.764 192.8 115.832C192.805 115.9 192.797 115.969 192.775 116.034C192.753 116.098 192.718 116.158 192.672 116.209C191.886 117.184 191.458 118.398 191.457 119.65C191.457 119.784 191.404 119.912 191.309 120.007C191.214 120.102 191.086 120.155 190.952 120.155Z" fill="#121212"/>
        <path d="M33.6296 98.2258H35.0619V119.981H33.6296V98.2258Z" fill="white"/>
        <path opacity="0.39" d="M36.0652 98.2258H36.7523V119.981H36.0652V98.2258Z" fill="white"/>
        <path d="M37.1353 96.0756C37.0348 96.0756 36.9384 96.0357 36.8673 95.9647C36.7963 95.8936 36.7563 95.7972 36.7563 95.6967V90.0281C36.7577 89.2777 37.0565 88.5585 37.5874 88.0281C38.1182 87.4978 38.8377 87.1995 39.5881 87.1989C40.2247 87.1784 40.8284 86.9112 41.2715 86.4537C41.7145 85.9961 41.9623 85.3842 41.9623 84.7473C41.9623 84.1104 41.7145 83.4984 41.2715 83.0409C40.8284 82.5834 40.2247 82.3161 39.5881 82.2957C39.4876 82.2957 39.3912 82.2558 39.3202 82.1847C39.2491 82.1136 39.2092 82.0173 39.2092 81.9168C39.2092 81.8163 39.2491 81.7199 39.3202 81.6488C39.3912 81.5778 39.4876 81.5378 39.5881 81.5378C40.4237 81.5613 41.2172 81.9097 41.8 82.509C42.3827 83.1084 42.7088 83.9113 42.7088 84.7473C42.7088 85.5832 42.3827 86.3862 41.8 86.9855C41.2172 87.5848 40.4237 87.9333 39.5881 87.9567C39.0385 87.9567 38.5114 88.1749 38.1225 88.5633C37.7337 88.9516 37.5149 89.4785 37.5142 90.0281V95.6967C37.5142 95.7972 37.4743 95.8936 37.4032 95.9647C37.3321 96.0357 37.2358 96.0756 37.1353 96.0756Z" fill="#121212"/>
        <path d="M34.0493 93.5772C33.9488 93.5772 33.8525 93.5372 33.7814 93.4662C33.7103 93.3951 33.6704 93.2987 33.6704 93.1982V87.5928C33.6704 87.4923 33.7103 87.3959 33.7814 87.3248C33.8525 87.2538 33.9488 87.2139 34.0493 87.2139C34.1498 87.2139 34.2462 87.2538 34.3173 87.3248C34.3883 87.3959 34.4282 87.4923 34.4282 87.5928V93.1982C34.4282 93.2987 34.3883 93.3951 34.3173 93.4662C34.2462 93.5372 34.1498 93.5772 34.0493 93.5772Z" fill="#121212"/>
        <path d="M40.1665 96.5377C40.066 96.5377 39.9696 96.4978 39.8986 96.4267C39.8275 96.3557 39.7876 96.2593 39.7876 96.1588V90.5508C39.7876 90.4503 39.8275 90.3539 39.8986 90.2829C39.9696 90.2118 40.066 90.1719 40.1665 90.1719C40.267 90.1719 40.3634 90.2118 40.4344 90.2829C40.5055 90.3539 40.5454 90.4503 40.5454 90.5508V96.1588C40.5454 96.2593 40.5055 96.3557 40.4344 96.4267C40.3634 96.4978 40.267 96.5377 40.1665 96.5377Z" fill="#121212"/>
        <path d="M41.1958 104.998C41.0088 104.998 40.8296 104.923 40.6974 104.791C40.5652 104.659 40.491 104.48 40.491 104.293V98.3564H41.9005V104.293C41.9005 104.48 41.8263 104.659 41.6941 104.791C41.5619 104.923 41.3827 104.998 41.1958 104.998Z" fill="#DD9742"/>
        <path d="M44.6902 98.7383C44.6758 99.0579 44.5387 99.3596 44.3074 99.5807C44.0761 99.8017 43.7685 99.9251 43.4486 99.9251C43.1287 99.9251 42.8211 99.8017 42.5898 99.5807C42.3586 99.3596 42.2215 99.0579 42.207 98.7383" fill="#DD9742"/>
        <path opacity="0.23" d="M31.1856 101.083H31.1831C30.7255 101.083 30.3545 101.454 30.3545 101.912V106.519C30.3545 106.977 30.7255 107.348 31.1831 107.348H31.1856C31.6432 107.348 32.0142 106.977 32.0142 106.519V101.912C32.0142 101.454 31.6432 101.083 31.1856 101.083Z" fill="white"/>
        <path d="M61.0764 78.4431C60.9089 78.4431 60.7482 78.3766 60.6298 78.2581C60.5114 78.1397 60.4448 77.9791 60.4448 77.8116V65.1179C60.4448 64.9504 60.5114 64.7897 60.6298 64.6713C60.7482 64.5529 60.9089 64.4863 61.0764 64.4863C61.2438 64.4863 61.4045 64.5529 61.5229 64.6713C61.6413 64.7897 61.7079 64.9504 61.7079 65.1179V77.804C61.7089 77.8876 61.6933 77.9705 61.662 78.048C61.6307 78.1255 61.5844 78.196 61.5256 78.2555C61.4669 78.3149 61.3969 78.3621 61.3198 78.3943C61.2427 78.4265 61.1599 78.4431 61.0764 78.4431Z" fill="#8B8C98"/>
        <path d="M170.189 50.6261C170.022 50.6261 169.861 50.5596 169.743 50.4412C169.624 50.3227 169.558 50.1621 169.558 49.9946V37.3034C169.558 37.1359 169.624 36.9753 169.743 36.8568C169.861 36.7384 170.022 36.6719 170.189 36.6719C170.357 36.6719 170.517 36.7384 170.636 36.8568C170.754 36.9753 170.821 37.1359 170.821 37.3034V49.9946C170.821 50.1621 170.754 50.3227 170.636 50.4412C170.517 50.5596 170.357 50.6261 170.189 50.6261Z" fill="#8B8C98"/>
        <path d="M170.189 80.8884C170.022 80.8884 169.861 80.8219 169.743 80.7035C169.624 80.585 169.558 80.4244 169.558 80.2569V67.5632C169.558 67.3957 169.624 67.235 169.743 67.1166C169.861 66.9982 170.022 66.9316 170.189 66.9316C170.357 66.9316 170.517 66.9982 170.636 67.1166C170.754 67.235 170.821 67.3957 170.821 67.5632V80.2569C170.821 80.4244 170.754 80.585 170.636 80.7035C170.517 80.8219 170.357 80.8884 170.189 80.8884Z" fill="#8B8C98"/>
        <path d="M168.649 68.6876C168.414 68.6876 168.189 68.5945 168.023 68.4286C167.858 68.2628 167.764 68.0379 167.764 67.8035V55.1097C167.764 54.8752 167.858 54.6504 168.023 54.4845C168.189 54.3187 168.414 54.2256 168.649 54.2256C168.883 54.2256 169.108 54.3187 169.274 54.4845C169.44 54.6504 169.533 54.8752 169.533 55.1097V67.8035C169.533 68.0379 169.44 68.2628 169.274 68.4286C169.108 68.5945 168.883 68.6876 168.649 68.6876Z" fill="#F0F0F6"/>
        <path d="M168.649 33.7544C168.414 33.7544 168.189 33.6613 168.023 33.4955C167.858 33.3297 167.764 33.1048 167.764 32.8703V30.2836C167.764 30.0491 167.858 29.8242 168.023 29.6584C168.189 29.4926 168.414 29.3994 168.649 29.3994C168.883 29.3994 169.108 29.4926 169.274 29.6584C169.44 29.8242 169.533 30.0491 169.533 30.2836V32.8703C169.533 33.1048 169.44 33.3297 169.274 33.4955C169.108 33.6613 168.883 33.7544 168.649 33.7544Z" fill="#F0F0F6"/>
        <path d="M62.6463 63.7134C62.4119 63.7134 62.187 63.6203 62.0212 63.4545C61.8554 63.2887 61.7622 63.0638 61.7622 62.8293V60.2425C61.7622 60.0081 61.8554 59.7832 62.0212 59.6174C62.187 59.4515 62.4119 59.3584 62.6463 59.3584C62.8808 59.3584 63.1057 59.4515 63.2715 59.6174C63.4373 59.7832 63.5305 60.0081 63.5305 60.2425V62.8293C63.5305 63.0638 63.4373 63.2887 63.2715 63.4545C63.1057 63.6203 62.8808 63.7134 62.6463 63.7134Z" fill="#F0F0F6"/>
        <path d="M151.128 107.625H148.534C148.3 107.625 148.075 107.532 147.909 107.366C147.743 107.2 147.65 106.975 147.65 106.741C147.65 106.506 147.743 106.281 147.909 106.115C148.075 105.95 148.3 105.856 148.534 105.856H151.123C151.358 105.856 151.583 105.95 151.748 106.115C151.914 106.281 152.007 106.506 152.007 106.741C152.007 106.975 151.914 107.2 151.748 107.366C151.583 107.532 151.358 107.625 151.123 107.625H151.128Z" fill="#8B8C98"/>
        <path d="M62.6463 82.7956C62.4119 82.7956 62.187 82.7025 62.0212 82.5367C61.8554 82.3709 61.7622 82.146 61.7622 81.9115V79.3197C61.7622 79.0852 61.8554 78.8603 62.0212 78.6945C62.187 78.5287 62.4119 78.4355 62.6463 78.4355C62.8808 78.4355 63.1057 78.5287 63.2715 78.6945C63.4373 78.8603 63.5305 79.0852 63.5305 79.3197V81.9064C63.5312 82.023 63.5088 82.1385 63.4646 82.2463C63.4205 82.3542 63.3555 82.4522 63.2733 82.5349C63.1912 82.6175 63.0935 82.6831 62.9859 82.7278C62.8783 82.7726 62.7629 82.7956 62.6463 82.7956Z" fill="#F0F0F6"/>
        <path d="M62.6463 32.0822C62.4119 32.0822 62.187 31.989 62.0212 31.8232C61.8554 31.6574 61.7622 31.4325 61.7622 31.198V28.6088C61.7622 28.3743 61.8554 28.1494 62.0212 27.9836C62.187 27.8178 62.4119 27.7246 62.6463 27.7246C62.8808 27.7246 63.1057 27.8178 63.2715 27.9836C63.4373 28.1494 63.5305 28.3743 63.5305 28.6088V31.198C63.5305 31.4325 63.4373 31.6574 63.2715 31.8232C63.1057 31.989 62.8808 32.0822 62.6463 32.0822Z" fill="#F0F0F6"/>
        <path d="M169.554 88.0425H61.8179C61.7174 88.0425 61.621 88.0026 61.5499 87.9316C61.4789 87.8605 61.439 87.7641 61.439 87.6636V55.5011C61.439 55.4006 61.4789 55.3042 61.5499 55.2332C61.621 55.1621 61.7174 55.1222 61.8179 55.1222C61.9184 55.1222 62.0148 55.1621 62.0858 55.2332C62.1569 55.3042 62.1968 55.4006 62.1968 55.5011V87.2847H169.175V28.1231H62.1968V43.0928C62.1968 43.1933 62.1569 43.2897 62.0858 43.3608C62.0148 43.4318 61.9184 43.4718 61.8179 43.4718C61.7174 43.4718 61.621 43.4318 61.5499 43.3608C61.4789 43.2897 61.439 43.1933 61.439 43.0928V27.7442C61.439 27.6437 61.4789 27.5473 61.5499 27.4762C61.621 27.4052 61.7174 27.3652 61.8179 27.3652H169.554C169.655 27.3652 169.751 27.4052 169.822 27.4762C169.893 27.5473 169.933 27.6437 169.933 27.7442V87.6561C169.934 87.7064 169.925 87.7565 169.906 87.8034C169.888 87.8502 169.86 87.8929 169.825 87.9289C169.79 87.9649 169.747 87.9935 169.701 88.013C169.655 88.0325 169.605 88.0426 169.554 88.0425Z" fill="#121212"/>
        <path d="M37.6775 98.5713H38.9709V101.603C38.9709 101.774 38.9027 101.939 38.7815 102.06C38.6602 102.181 38.4957 102.249 38.3242 102.249C38.1527 102.249 37.9882 102.181 37.8669 102.06C37.7456 101.939 37.6775 101.774 37.6775 101.603V98.5713Z" fill="#DD9742"/>
        <path d="M44.3545 120.359H30.2082C29.7102 120.359 29.2325 120.162 28.8801 119.81C28.5278 119.458 28.3295 118.981 28.3288 118.483V111.788C28.3288 111.654 28.382 111.526 28.4768 111.431C28.5715 111.336 28.7 111.283 28.834 111.283C28.968 111.283 29.0965 111.336 29.1913 111.431C29.286 111.526 29.3392 111.654 29.3392 111.788V118.475C29.3399 118.705 29.4317 118.925 29.5946 119.088C29.7575 119.25 29.9782 119.341 30.2082 119.341H44.3545C44.5836 119.34 44.803 119.248 44.9648 119.086C45.1266 118.924 45.2177 118.704 45.2184 118.475V99.8045C45.2177 99.5742 45.126 99.3536 44.9631 99.1908C44.8003 99.0279 44.5797 98.9362 44.3494 98.9355H30.2032C29.9729 98.9362 29.7523 99.0279 29.5894 99.1908C29.4266 99.3536 29.3348 99.5742 29.3342 99.8045V105.122C29.3342 105.256 29.2809 105.384 29.1862 105.479C29.0915 105.574 28.9629 105.627 28.829 105.627C28.695 105.627 28.5665 105.574 28.4717 105.479C28.377 105.384 28.3237 105.256 28.3237 105.122V99.8045C28.3244 99.3062 28.5226 98.8286 28.8749 98.4763C29.2273 98.1239 29.7049 97.9257 30.2032 97.925H44.3494C44.8477 97.9257 45.3253 98.1239 45.6776 98.4763C46.0299 98.8286 46.2282 99.3062 46.2288 99.8045V118.475C46.2295 118.722 46.1816 118.966 46.0877 119.195C45.9939 119.423 45.856 119.63 45.6819 119.805C45.5079 119.98 45.3011 120.119 45.0733 120.214C44.8455 120.31 44.6013 120.359 44.3545 120.359Z" fill="#121212"/>
        <path d="M28.8309 109.886C28.6969 109.886 28.5684 109.833 28.4737 109.738C28.3789 109.644 28.3257 109.515 28.3257 109.381V107.242C28.3257 107.108 28.3789 106.979 28.4737 106.884C28.5684 106.79 28.6969 106.736 28.8309 106.736C28.9649 106.736 29.0934 106.79 29.1882 106.884C29.2829 106.979 29.3361 107.108 29.3361 107.242V109.381C29.3361 109.515 29.2829 109.644 29.1882 109.738C29.0934 109.833 28.9649 109.886 28.8309 109.886Z" fill="#121212"/>
        <path d="M218.781 91.4257C219.882 91.4257 220.774 90.5333 220.774 89.4326C220.774 88.3318 219.882 87.4395 218.781 87.4395C217.68 87.4395 216.788 88.3318 216.788 89.4326C216.788 90.5333 217.68 91.4257 218.781 91.4257Z" fill="#DC166D"/>
        <path d="M218.782 91.8046C218.313 91.8046 217.854 91.6655 217.464 91.4048C217.074 91.1442 216.77 90.7737 216.59 90.3403C216.411 89.9069 216.364 89.4299 216.455 88.9698C216.547 88.5097 216.773 88.087 217.105 87.7553C217.436 87.4236 217.859 87.1977 218.319 87.1061C218.779 87.0146 219.256 87.0616 219.69 87.2411C220.123 87.4206 220.494 87.7247 220.754 88.1147C221.015 88.5048 221.154 88.9634 221.154 89.4326C221.153 90.0615 220.903 90.6644 220.458 91.1091C220.014 91.5538 219.411 91.8039 218.782 91.8046ZM218.782 87.8209C218.463 87.8209 218.15 87.9156 217.885 88.0931C217.619 88.2706 217.412 88.5229 217.29 88.818C217.168 89.1131 217.136 89.4377 217.199 89.7509C217.261 90.0641 217.415 90.3517 217.641 90.5774C217.867 90.803 218.155 90.9566 218.469 91.0186C218.782 91.0806 219.107 91.0482 219.401 90.9257C219.696 90.8031 219.948 90.5958 220.125 90.3301C220.302 90.0643 220.397 89.7519 220.396 89.4326C220.396 89.2207 220.354 89.0109 220.273 88.8152C220.192 88.6195 220.073 88.4417 219.923 88.2921C219.773 88.1424 219.595 88.0237 219.399 87.9429C219.204 87.862 218.994 87.8206 218.782 87.8209Z" fill="#121212"/>
        <path d="M214.718 99.2335H214.673C214.623 99.2279 214.576 99.2125 214.532 99.1884C214.489 99.1642 214.451 99.1317 214.42 99.0927C214.389 99.0537 214.366 99.0091 214.353 98.9613C214.34 98.9135 214.336 98.8635 214.342 98.8142L214.887 94.0954L213.682 93.9463C213.582 93.9343 213.49 93.8828 213.428 93.8032C213.365 93.7236 213.337 93.6225 213.349 93.522C213.361 93.4215 213.412 93.3299 213.492 93.2673C213.572 93.2048 213.673 93.1765 213.773 93.1885L215.355 93.383C215.454 93.3963 215.544 93.4479 215.605 93.5268C215.667 93.6057 215.695 93.7056 215.683 93.8049L215.094 98.895C215.084 98.9879 215.041 99.0739 214.971 99.1363C214.902 99.1988 214.811 99.2334 214.718 99.2335Z" fill="#121212"/>
        <path d="M171.773 108.239H166.215C165.947 108.239 165.69 108.132 165.501 107.943C165.311 107.753 165.205 107.496 165.205 107.228C165.205 106.96 165.311 106.703 165.501 106.514C165.69 106.324 165.947 106.218 166.215 106.218H171.773C172.897 106.218 174.175 105.01 174.175 103.944V100.809C174.175 100.541 174.282 100.284 174.471 100.095C174.661 99.9053 174.918 99.7988 175.186 99.7988C175.454 99.7988 175.711 99.9053 175.9 100.095C176.09 100.284 176.196 100.541 176.196 100.809V103.949C176.183 106.114 173.993 108.239 171.773 108.239Z" fill="white"/>
        <path d="M69.9383 108.514H64.3808C64.1128 108.514 63.8558 108.408 63.6663 108.218C63.4768 108.029 63.3704 107.772 63.3704 107.504C63.3704 107.236 63.4768 106.979 63.6663 106.789C63.8558 106.6 64.1128 106.493 64.3808 106.493H69.9383C70.2063 106.493 70.4633 106.6 70.6528 106.789C70.8423 106.979 70.9487 107.236 70.9487 107.504C70.9487 107.772 70.8423 108.029 70.6528 108.218C70.4633 108.408 70.2063 108.514 69.9383 108.514Z" fill="white"/>
        <path d="M171.578 108.219H59.7973C58.5757 108.217 57.4045 107.731 56.5407 106.867C55.6769 106.004 55.191 104.832 55.1897 103.611V70.1019C55.1897 69.9679 55.2429 69.8394 55.3377 69.7447C55.4324 69.6499 55.5609 69.5967 55.6949 69.5967C55.8289 69.5967 55.9574 69.6499 56.0522 69.7447C56.1469 69.8394 56.2001 69.9679 56.2001 70.1019V103.611C56.2008 104.565 56.58 105.479 57.2545 106.154C57.9289 106.828 58.8435 107.207 59.7973 107.208H171.578C172.532 107.207 173.446 106.827 174.12 106.153C174.794 105.479 175.174 104.564 175.175 103.611V66.1839C175.175 66.0499 175.228 65.9214 175.323 65.8267C175.418 65.7319 175.546 65.6787 175.68 65.6787C175.814 65.6787 175.943 65.7319 176.038 65.8267C176.132 65.9214 176.186 66.0499 176.186 66.1839V103.611C176.184 104.832 175.698 106.004 174.835 106.867C173.971 107.731 172.8 108.217 171.578 108.219Z" fill="#121212"/>
    </g>
</svg>
