<svg width="149" height="136" viewBox="0 0 149 136" fill="none" xmlns="http://www.w3.org/2000/svg">
    <g opacity="0.4">
        <path opacity="0.8" d="M111.688 24.6267L70.0017 51.7319C68.7816 52.5251 67.2963 52.8012 65.8726 52.4993C64.4489 52.1974 63.2035 51.3424 62.4102 50.1222C61.617 48.902 61.3409 47.4167 61.6428 45.9931C61.9447 44.5694 62.7997 43.3239 64.0199 42.5307L105.706 15.5294C106.926 14.7361 108.411 14.4601 109.835 14.7619C111.259 15.0638 112.504 15.9189 113.297 17.139C114.091 18.3592 114.367 19.8445 114.065 21.2682C113.763 22.6919 112.908 23.9373 111.688 24.7306V24.6267Z" fill="#4A98E0"/>
        <path opacity="0.8" d="M55.9818 60.8505L28.1082 78.9206C27.504 79.3133 26.8284 79.5833 26.1199 79.7149C25.4114 79.8466 24.684 79.8375 23.979 79.688C23.2741 79.5385 22.6055 79.2517 22.0114 78.8438C21.4173 78.4359 20.9094 77.915 20.5166 77.3109C20.1239 76.7067 19.8539 76.0311 19.7223 75.3226C19.5906 74.6142 19.5998 73.8867 19.7492 73.1817C19.8987 72.4768 20.1856 71.8082 20.5934 71.2141C21.0013 70.6201 21.5222 70.1121 22.1263 69.7194L50 51.6077C50.6042 51.2149 51.2798 50.945 51.9882 50.8133C52.6967 50.6817 53.4242 50.6908 54.1291 50.8403C54.8341 50.9898 55.5027 51.2766 56.0968 51.6845C56.6908 52.0924 57.1988 52.6132 57.5915 53.2174C57.9843 53.8216 58.2542 54.4972 58.3859 55.2056C58.5176 55.9141 58.5084 56.6416 58.3589 57.3465C58.2095 58.0515 57.9226 58.7201 57.5147 59.3141C57.1069 59.9082 56.586 60.4162 55.9818 60.8089V60.8505Z" fill="#8B8C98"/>
        <path d="M92.1019 18.2507L50.4368 45.3559C49.8326 45.7487 49.157 46.0186 48.4485 46.1503C47.7401 46.2819 47.0126 46.2728 46.3077 46.1233C44.884 45.8214 43.6385 44.9664 42.8453 43.7462C42.052 42.526 41.776 41.0407 42.0779 39.6171C42.3797 38.1934 43.2348 36.9479 44.455 36.1547L86.1201 9.15336C86.7242 8.76059 87.3998 8.49066 88.1083 8.35898C88.8168 8.22731 89.5443 8.23647 90.2492 8.38595C90.9542 8.53542 91.6227 8.82228 92.2168 9.23014C92.8109 9.63801 93.3188 10.1589 93.7116 10.7631C94.1044 11.3672 94.3743 12.0428 94.506 12.7513C94.6376 13.4598 94.6285 14.1873 94.479 14.8922C94.3295 15.5971 94.0427 16.2657 93.6348 16.8598C93.2269 17.4539 92.7061 17.9618 92.1019 18.3546V18.2507Z" fill="#B2B2BB"/>
        <path d="M36.3956 54.4747L8.52191 72.6902C7.28798 73.4834 5.78948 73.754 4.35605 73.4424C2.92263 73.1308 1.6717 72.2625 0.878458 71.0286C0.0852181 69.7946 -0.185356 68.2961 0.126258 66.8627C0.437872 65.4293 1.30615 64.1784 2.54008 63.3851L30.4137 45.2735C31.0179 44.8807 31.6935 44.6108 32.402 44.4791C33.1105 44.3474 33.8379 44.3566 34.5429 44.5061C35.2478 44.6555 35.9164 44.9424 36.5105 45.3503C37.1046 45.7581 37.6125 46.279 38.0053 46.8832C38.398 47.4873 38.668 48.1629 38.7996 48.8714C38.9313 49.5799 38.9222 50.3074 38.7727 51.0123C38.6232 51.7172 38.3363 52.3858 37.9285 52.9799C37.5206 53.574 36.9997 54.0819 36.3956 54.4747Z" fill="#4A98E0"/>
        <path d="M104.687 10.088L104.417 10.2542C103.813 10.6469 103.137 10.9169 102.429 11.0485C101.721 11.1802 100.993 11.171 100.288 11.0216C99.5832 10.8721 98.9146 10.5852 98.3205 10.1774C97.7264 9.76951 97.2185 9.24862 96.8257 8.64446C96.4329 8.0403 96.163 7.3647 96.0313 6.65622C95.8997 5.94774 95.9088 5.22026 96.0583 4.51532C96.2078 3.81038 96.4946 3.14179 96.9025 2.54771C97.3104 1.95364 97.8313 1.44571 98.4354 1.05294L98.7054 0.886777C99.9256 0.0935372 101.411 -0.182508 102.835 0.119368C104.258 0.421244 105.504 1.27631 106.297 2.49647C107.09 3.71663 107.366 5.20192 107.064 6.62561C106.762 8.0493 105.907 9.29476 104.687 10.088Z" fill="#8B8C98"/>
        <path opacity="0.5" d="M109.569 45.1065L67.8832 72.2116C66.6621 72.9131 65.2185 73.1197 63.8495 72.7891C62.4806 72.4584 61.2905 71.6156 60.5241 70.4341C59.7577 69.2526 59.4734 67.8223 59.7296 66.4375C59.9858 65.0527 60.763 63.8188 61.9014 62.9897L103.587 35.9883C104.807 35.1951 106.293 34.9191 107.716 35.2209C109.14 35.5228 110.386 36.3779 111.179 37.598C111.972 38.8182 112.248 40.3035 111.946 41.7272C111.644 43.1509 110.789 44.3963 109.569 45.1896V45.1065Z" fill="#4A98E0"/>
        <path opacity="0.5" d="M53.8627 81.3293L25.989 99.4409C24.7689 100.234 23.2836 100.51 21.8599 100.208C20.4362 99.9064 19.1908 99.0514 18.3975 97.8312C17.6043 96.6111 17.3282 95.1258 17.6301 93.7021C17.932 92.2784 18.7871 91.0329 20.0072 90.2397L47.8186 72.1073C49.0398 71.4058 50.4834 71.1992 51.8523 71.5298C53.2212 71.8605 54.4113 72.7033 55.1777 73.8848C55.9441 75.0663 56.2285 76.4967 55.9723 77.8815C55.716 79.2662 54.9388 80.5002 53.8004 81.3293H53.8627Z" fill="#B2B2BB"/>
        <path opacity="0.5" d="M122.135 36.9439L121.886 37.1101C120.664 37.8115 119.221 38.0182 117.852 37.6875C116.483 37.3569 115.293 36.5141 114.527 35.3326C113.76 34.1511 113.476 32.7207 113.732 31.3359C113.988 29.9511 114.765 28.7172 115.904 27.8881L116.153 27.7219C116.758 27.2817 117.446 26.9692 118.175 26.8036C118.904 26.638 119.659 26.6228 120.395 26.7588C121.13 26.8949 121.83 27.1794 122.452 27.5949C123.074 28.0105 123.604 28.5484 124.011 29.1758C124.418 29.8032 124.693 30.507 124.819 31.2442C124.945 31.9814 124.919 32.7365 124.744 33.4634C124.568 34.1904 124.246 34.8739 123.798 35.4723C123.349 36.0707 122.783 36.5715 122.135 36.9439Z" fill="#8B8C98"/>
        <path d="M35.2954 124.013L115.385 87" stroke="#515265" stroke-width="5.16195" stroke-miterlimit="10" stroke-linecap="round"/>
        <path d="M70.376 43.9434H94.4071V123.66H70.376V43.9434Z" fill="white"/>
        <path d="M107.473 12.9756H131.545V131.262H107.473V12.9756Z" fill="#C3DDF5"/>
        <path d="M105.997 14.4707H132.769V132.757H105.997V14.4707Z" stroke="#515265" stroke-width="5.16195" stroke-miterlimit="10"/>
        <path d="M70.4385 47.7031H94.4696V130.784H70.4385V47.7031Z" fill="#C3DDF5"/>
        <path d="M68.9014 45.8135H95.6742V132.758H68.9014V45.8135Z" stroke="#515265" stroke-width="5.16195" stroke-miterlimit="10"/>
        <path d="M32.6992 77.6748H56.8758V132.301H32.6992V77.6748Z" fill="#C3DDF5"/>
        <path d="M31.8252 78.1104H58.598V132.736H31.8252V78.1104Z" stroke="#515265" stroke-width="5.16195" stroke-miterlimit="10"/>
        <path d="M131.732 29.3834C138.958 29.3834 144.817 23.5249 144.817 16.2981C144.817 9.07136 138.958 3.21289 131.732 3.21289C124.505 3.21289 118.646 9.07136 118.646 16.2981C118.646 23.5249 124.505 29.3834 131.732 29.3834Z" fill="white"/>
        <path fill-rule="evenodd" clip-rule="evenodd" d="M145.21 16.7349C145.281 18.4958 144.994 20.2527 144.369 21.9002C143.744 23.5477 142.792 25.052 141.571 26.3226C140.35 27.5933 138.885 28.6043 137.263 29.2948C135.642 29.9854 133.898 30.3414 132.136 30.3414C130.373 30.3414 128.629 29.9854 127.008 29.2948C125.387 28.6043 123.921 27.5933 122.7 26.3226C121.479 25.052 120.528 23.5477 119.902 21.9002C119.277 20.2527 118.99 18.4958 119.061 16.7349C119.054 15.5974 119.207 14.4646 119.518 13.3701C120.264 16.1519 121.907 18.6098 124.192 20.3629C126.477 22.1159 129.276 23.0661 132.156 23.0661C135.036 23.0661 137.836 22.1159 140.121 20.3629C142.406 18.6098 144.049 16.1519 144.795 13.3701C145.071 14.4704 145.21 15.6005 145.21 16.7349Z" fill="#D8D9DD"/>
        <path d="M132.915 30.5885C140.142 30.5885 146 24.73 146 17.5032C146 10.2764 140.142 4.41797 132.915 4.41797C125.688 4.41797 119.83 10.2764 119.83 17.5032C119.83 24.73 125.688 30.5885 132.915 30.5885Z" stroke="#515265" stroke-width="5.16195" stroke-miterlimit="10"/>
        <path d="M33.4866 90.4059C40.7134 90.4059 46.5719 84.5474 46.5719 77.3206C46.5719 70.0938 40.7134 64.2354 33.4866 64.2354C26.2598 64.2354 20.4014 70.0938 20.4014 77.3206C20.4014 84.5474 26.2598 90.4059 33.4866 90.4059Z" fill="white"/>
        <path fill-rule="evenodd" clip-rule="evenodd" d="M46.9875 77.7574C46.9875 81.2278 45.6089 84.5561 43.1549 87.01C40.701 89.464 37.3727 90.8426 33.9023 90.8426C30.4319 90.8426 27.1036 89.464 24.6496 87.01C22.1956 84.5561 20.817 81.2278 20.817 77.7574C20.8051 76.6181 20.9661 75.4835 21.2947 74.3926C22.0332 77.1783 23.672 79.6416 25.9561 81.3991C28.2401 83.1565 31.0411 84.1094 33.923 84.1094C36.805 84.1094 39.606 83.1565 41.89 81.3991C44.1741 79.6416 45.8129 77.1783 46.5514 74.3926C46.8457 75.4898 46.9924 76.6214 46.9875 77.7574Z" fill="#D8D9DD"/>
        <path d="M34.6917 91.5907C41.9185 91.5907 47.777 85.7322 47.777 78.5054C47.777 71.2786 41.9185 65.4202 34.6917 65.4202C27.4649 65.4202 21.6064 71.2786 21.6064 78.5054C21.6064 85.7322 27.4649 91.5907 34.6917 91.5907Z" stroke="#515265" stroke-width="5.16195" stroke-miterlimit="10"/>
        <path opacity="0.3" d="M122.052 125.447H124.066" stroke="white" stroke-width="2.58098" stroke-miterlimit="10" stroke-linecap="round"/>
        <path d="M113.121 112.88V125.446H117.67" stroke="white" stroke-width="2.58098" stroke-miterlimit="10" stroke-linecap="round"/>
        <path opacity="0.6" d="M113.121 103.741V106.151" stroke="white" stroke-width="2.58098" stroke-miterlimit="10" stroke-linecap="round"/>
        <path d="M113.121 90.553V97.2202" stroke="white" stroke-width="2.58098" stroke-miterlimit="10" stroke-linecap="round"/>
    </g>
</svg>
