<svg width="28" height="28" viewBox="0 0 28 28" fill="none" xmlns="http://www.w3.org/2000/svg">
    <path d="M24.5 2.33313L23.3333 3.4998M3.5 2.33313L4.66667 3.4998M24.5 18.6665L23.3333 17.4998M3.5 18.6665L4.66667 17.4998M10.5 20.9998H17.5M11.6667 24.4998H16.3333M14 3.4998C9.33333 3.4998 6.944 5.7748 7 9.33313C7.02683 11.068 7.58333 12.2498 8.75 13.4165C9.91667 14.5831 10.5 15.1665 10.5 17.4998H17.5C17.5 15.1665 18.0833 14.5831 19.25 13.4165C20.4167 12.2498 20.9732 11.068 21 9.33313C21.056 5.7748 18.6667 3.4998 14 3.4998Z" stroke="#EDC359" stroke-width="2" stroke-linecap="round" stroke-linejoin="round"/>
</svg>
