<svg width="93" height="121" viewBox="0 0 93 121" fill="none" xmlns="http://www.w3.org/2000/svg">
<g opacity="0.4">
<path d="M90.8859 91.4849V114.767C90.8859 115.713 90.5099 116.621 89.8406 117.29C89.1713 117.96 88.2636 118.336 87.3171 118.336H6.16962C5.70096 118.336 5.23689 118.243 4.8039 118.064C4.37092 117.885 3.9775 117.622 3.6461 117.29C3.31471 116.959 3.05184 116.566 2.87249 116.133C2.69314 115.7 2.60083 115.236 2.60083 114.767V5.52997C2.60083 4.58347 2.97683 3.67573 3.6461 3.00646C4.31538 2.33718 5.22312 1.96118 6.16962 1.96118H87.3171C88.2636 1.96118 89.1713 2.33718 89.8406 3.00646C90.5099 3.67573 90.8859 4.58347 90.8859 5.52997V40.1982" fill="white"/>
<path d="M2.36218 113.126V99.3999C2.36218 102.658 3.65648 105.783 5.96034 108.087C8.2642 110.39 11.3889 111.685 14.6471 111.685H78.3754C81.6336 111.685 84.7583 110.39 87.0621 108.087C89.366 105.783 90.6603 102.658 90.6603 99.3999V113.126C90.6603 114.666 90.0484 116.143 88.9593 117.233C87.8702 118.322 86.3931 118.933 84.8529 118.933H8.16964C6.6294 118.933 5.15226 118.322 4.06315 117.233C2.97404 116.143 2.36218 114.666 2.36218 113.126Z" fill="#D8D9DD"/>
<path d="M86.3531 120.296H6.64687C4.99215 120.295 3.40561 119.637 2.23493 118.467C1.06426 117.298 0.404948 115.712 0.401489 114.057L0.401489 6.24538C0.40322 4.58953 1.06177 3.002 2.23263 1.83114C3.40349 0.66028 4.99102 0.00173025 6.64687 0H86.3531C88.0089 0.00173025 89.5965 0.66028 90.7673 1.83114C91.9382 3.002 92.5967 4.58953 92.5985 6.24538V114.057C92.595 115.712 91.9357 117.298 90.765 118.467C89.5944 119.637 88.0078 120.295 86.3531 120.296ZM67.9176 116.375H86.3531C86.9691 116.374 87.5596 116.129 87.9952 115.693C88.4308 115.257 88.6759 114.667 88.6767 114.051V6.24538C88.6759 5.62938 88.4308 5.03886 87.9952 4.60328C87.5596 4.1677 86.9691 3.92261 86.3531 3.92175H6.64687C6.0306 3.92175 5.43958 4.16656 5.00381 4.60232C4.56805 5.03809 4.32324 5.62912 4.32324 6.24538V114.057C4.32324 114.674 4.56805 115.265 5.00381 115.701C5.43958 116.136 6.0306 116.381 6.64687 116.381L67.9176 116.375Z" fill="#515265"/>
<g opacity="0.5">
<path d="M37.5628 11.7487H48.9294C50.1909 11.7487 50.1941 9.78784 48.9294 9.78784H37.5628C36.3013 9.78784 36.2981 11.7487 37.5628 11.7487Z" fill="#52789B"/>
<path d="M53.6325 11.7485H81.8495C83.111 11.7485 83.1143 9.7876 81.8495 9.7876H53.6325C52.371 9.7876 52.3678 11.7485 53.6325 11.7485Z" fill="#52789B"/>
</g>
<path d="M19.5201 76.9216H50.198V80.8434H19.5201V76.9216Z" fill="#515265"/>
<path d="M19.5201 92.6096H50.198V96.5314H19.5201V92.6096Z" fill="#515265"/>
<path d="M19.5201 84.7656H58.7638V88.6874H19.5201V84.7656Z" fill="#515265"/>
<path d="M21.8339 48.0999H33.5991V64.1137H21.8339V48.0999Z" fill="#C3DDF5"/>
<path d="M40.1351 37.6416H52.2272V64.1134H40.1351V37.6416Z" fill="#C3DDF5"/>
<path d="M58.4368 23.916H70.8556V64.1139H58.4368V23.916Z" fill="#C3DDF5"/>
<path d="M19.5396 63.5188H73.4701V67.4405H19.5396V63.5188Z" fill="#515265"/>
<path opacity="0.15" d="M19.2131 65.4802H73.1437V69.402H19.2131V65.4802Z" fill="#515265"/>
</g>
</svg>
