<svg width="14" height="14" viewBox="0 0 14 14" fill="none" xmlns="http://www.w3.org/2000/svg">
    <path d="M7.00008 13.2708C3.54092 13.2708 0.729248 10.4592 0.729248 6.99999C0.729248 3.54082 3.54092 0.729156 7.00008 0.729156C10.4592 0.729156 13.2709 3.54082 13.2709 6.99999C13.2709 10.4592 10.4592 13.2708 7.00008 13.2708ZM7.00008 1.60416C4.02508 1.60416 1.60425 4.02499 1.60425 6.99999C1.60425 9.97499 4.02508 12.3958 7.00008 12.3958C9.97508 12.3958 12.3959 9.97499 12.3959 6.99999C12.3959 4.02499 9.97508 1.60416 7.00008 1.60416Z" fill="#8F94A0"/>
    <path d="M9.16421 9.2925C9.08837 9.2925 9.01254 9.27499 8.94254 9.22833L7.13421 8.14916C6.68504 7.88083 6.35254 7.29166 6.35254 6.7725V4.38083C6.35254 4.14166 6.55087 3.94333 6.79004 3.94333C7.02921 3.94333 7.22754 4.14166 7.22754 4.38083V6.7725C7.22754 6.9825 7.40254 7.29166 7.58337 7.39666L9.39171 8.47583C9.60171 8.59833 9.66587 8.86666 9.54337 9.07666C9.45587 9.21666 9.31004 9.2925 9.16421 9.2925Z" fill="#8F94A0"/>
</svg>
