<svg width="182" height="136" viewBox="0 0 182 136" fill="none" xmlns="http://www.w3.org/2000/svg">
    <g opacity="0.4">
        <path d="M50.8972 128.484H133.149C136.988 128.484 140.85 125.371 140.85 121.539H43.9521C43.9521 123.381 44.6839 125.147 45.9863 126.45C47.2887 127.752 49.0552 128.484 50.8972 128.484Z" fill="#B2B2BB"/>
        <path opacity="0.5" d="M77.6198 10.4039V35.2064C77.6198 35.6313 77.451 36.0388 77.1506 36.3393C76.8501 36.6397 76.4426 36.8085 76.0177 36.8085H51.2076C50.7827 36.8085 50.3752 36.9773 50.0747 37.2778C49.7743 37.5782 49.6055 37.9857 49.6055 38.4107V124.313C49.6055 127.205 50.7544 129.979 52.7995 132.024C54.8445 134.069 57.6183 135.218 60.5104 135.218H133.618C137.436 135.218 141.098 133.701 143.798 131.001C146.498 128.301 148.015 124.639 148.015 120.821V10.4039C148.015 9.98027 147.847 9.57391 147.548 9.27367C147.249 8.97343 146.844 8.80376 146.42 8.80176H79.2144C78.7908 8.80376 78.3852 8.97343 78.0864 9.27367C77.7876 9.57391 77.6198 9.98027 77.6198 10.4039Z" fill="#D8D9DD"/>
        <path opacity="0.12" d="M127.497 54.2878H28.2637C12.6541 54.2878 0 66.9419 0 82.5516C0 98.1612 12.6541 110.815 28.2637 110.815H127.497C143.106 110.815 155.76 98.1612 155.76 82.5516C155.76 66.9419 143.106 54.2878 127.497 54.2878Z" fill="#D8D9DD"/>
        <path opacity="0.12" d="M153.161 17.9607H51.6153C36.0057 17.9607 23.3516 30.6148 23.3516 46.2244C23.3516 61.834 36.0057 74.4881 51.6153 74.4881H153.161C168.77 74.4881 181.424 61.834 181.424 46.2244C181.424 30.6148 168.77 17.9607 153.161 17.9607Z" fill="#D8D9DD"/>
        <path d="M48.5473 16.0035C50.1208 16.0035 51.3963 14.7279 51.3963 13.1545C51.3963 11.581 50.1208 10.3054 48.5473 10.3054C46.9738 10.3054 45.6982 11.581 45.6982 13.1545C45.6982 14.7279 46.9738 16.0035 48.5473 16.0035Z" fill="#4A98E0"/>
        <path d="M160.189 91.0684C161.762 91.0684 163.038 89.7929 163.038 88.2194C163.038 86.6459 161.762 85.3704 160.189 85.3704C158.615 85.3704 157.34 86.6459 157.34 88.2194C157.34 89.7929 158.615 91.0684 160.189 91.0684Z" fill="#4A98E0"/>
        <path d="M49.3334 74.4725C50.9069 74.4725 52.1825 73.1969 52.1825 71.6235C52.1825 70.05 50.9069 68.7744 49.3334 68.7744C47.7599 68.7744 46.4844 70.05 46.4844 71.6235C46.4844 73.1969 47.7599 74.4725 49.3334 74.4725Z" fill="#4A98E0"/>
        <path d="M155.156 13.7662C156.729 13.7662 158.005 12.4906 158.005 10.9172C158.005 9.34368 156.729 8.06812 155.156 8.06812C153.582 8.06812 152.307 9.34368 152.307 10.9172C152.307 12.4906 153.582 13.7662 155.156 13.7662Z" fill="#4A98E0"/>
        <g opacity="0.15">
            <path d="M154.748 100.469L149.345 104.95C148.92 105.375 148.682 105.952 148.682 106.552C148.682 107.153 148.92 107.729 149.345 108.155C149.776 108.567 150.35 108.797 150.947 108.797C151.544 108.797 152.117 108.567 152.549 108.155L157.952 103.673C158.377 103.248 158.615 102.672 158.615 102.071C158.615 101.47 158.377 100.894 157.952 100.469C157.521 100.057 156.947 99.8269 156.35 99.8269C155.753 99.8269 155.18 100.057 154.748 100.469Z" fill="#4A98E0"/>
            <path d="M157.492 105.412L153.01 100.008C152.585 99.5837 152.009 99.3452 151.408 99.3452C150.807 99.3452 150.231 99.5837 149.806 100.008C149.394 100.44 149.164 101.014 149.164 101.61C149.164 102.207 149.394 102.781 149.806 103.212L154.287 108.616C154.713 109.04 155.289 109.279 155.89 109.279C156.49 109.279 157.067 109.04 157.492 108.616C157.904 108.184 158.134 107.61 158.134 107.014C158.134 106.417 157.904 105.843 157.492 105.412Z" fill="#4A98E0"/>
        </g>
        <g opacity="0.15">
            <path d="M20.4045 37.4213L15.0087 41.9027C14.5842 42.3278 14.3457 42.904 14.3457 43.5048C14.3457 44.1056 14.5842 44.6818 15.0087 45.1069C15.4403 45.519 16.0141 45.7489 16.6109 45.7489C17.2076 45.7489 17.7814 45.519 18.213 45.1069L23.6163 40.6255C24.0409 40.2004 24.2794 39.6242 24.2794 39.0234C24.2794 38.4226 24.0409 37.8464 23.6163 37.4213C23.1847 37.0092 22.6109 36.7793 22.0142 36.7793C21.4175 36.7793 20.8437 37.0092 20.4121 37.4213H20.4045Z" fill="#4A98E0"/>
            <path d="M23.1557 42.3633L18.6744 36.9599C18.2493 36.5353 17.673 36.2969 17.0722 36.2969C16.4714 36.2969 15.8952 36.5353 15.4701 36.9599C15.0581 37.3915 14.8281 37.9653 14.8281 38.562C14.8281 39.1588 15.0581 39.7325 15.4701 40.1641L19.9515 45.5675C20.3766 45.9921 20.9528 46.2305 21.5536 46.2305C22.1544 46.2305 22.7306 45.9921 23.1557 45.5675C23.5678 45.1359 23.7977 44.5621 23.7977 43.9654C23.7977 43.3687 23.5678 42.7949 23.1557 42.3633Z" fill="#4A98E0"/>
        </g>
        <path opacity="0.5" d="M48.0784 114.125L45.0405 112.705L41.6927 112.886L42.1007 109.553L40.8916 106.425L44.1865 105.79L46.7937 103.674L48.4185 106.606L51.2298 108.427L48.94 110.883L48.0784 114.125Z" fill="#4A98E0"/>
        <g opacity="0.1">
            <path d="M106.004 14.3486H88.0935V6.30783H106.004V14.3486Z" stroke="#121212" stroke-width="0.566786" stroke-miterlimit="10"/>
            <path d="M92.5684 22.8652H74.6579V14.8244H92.5684V22.8652Z" stroke="#121212" stroke-width="0.566786" stroke-miterlimit="10"/>
        </g>
        <path d="M70.8183 9.14906V22.8577C70.8183 24.7538 70.0651 26.5722 68.7244 27.9129C67.3837 29.2536 65.5653 30.0068 63.6692 30.0068H49.9606C48.0645 30.0068 46.2461 30.76 44.9054 32.1007C43.5647 33.4414 42.8115 35.2598 42.8115 37.1558V121.267C42.8115 122.206 42.9964 123.135 43.3557 124.003C43.715 124.87 44.2416 125.658 44.9054 126.322C45.5693 126.986 46.3574 127.512 47.2248 127.872C48.0921 128.231 49.0218 128.416 49.9606 128.416H134.064C135.003 128.416 135.933 128.231 136.8 127.872C137.667 127.512 138.455 126.986 139.119 126.322C139.783 125.658 140.31 124.87 140.669 124.003C141.028 123.135 141.213 122.206 141.213 121.267V9.14906C141.213 7.25301 140.46 5.43462 139.119 4.09391C137.778 2.7532 135.96 2 134.064 2H77.9674C76.0713 2 74.2529 2.7532 72.9122 4.09391C71.5715 5.43462 70.8183 7.25301 70.8183 9.14906Z" fill="#F0F0F6"/>
        <path d="M71.2861 2V7.12374H141.688C141.688 5.76484 141.149 4.4616 140.188 3.50071C139.227 2.53982 137.924 2 136.565 2H71.2861Z" fill="white"/>
        <path d="M77.748 128.416H131.494C134.082 128.416 136.564 127.388 138.393 125.558C140.223 123.728 141.251 121.247 141.251 118.659V66.1221" stroke="#515265" stroke-width="3.02286" stroke-miterlimit="10" stroke-linecap="round"/>
        <path d="M141.221 51.5144V8.04572C141.221 6.44229 140.584 4.90454 139.45 3.77075C138.316 2.63696 136.778 2 135.175 2H70.8183V23.6361C70.8183 25.3257 70.1471 26.9461 68.9524 28.1409C67.7576 29.3356 66.1372 30.0068 64.4476 30.0068H42.8115V118.667C42.8115 121.255 43.8394 123.736 45.6691 125.566C47.4987 127.396 49.9803 128.423 52.5678 128.423H64.3947" stroke="#515265" stroke-width="3.02286" stroke-miterlimit="10" stroke-linecap="round"/>
        <path d="M59.7471 69.7122H93.1572" stroke="#515265" stroke-width="3.02286" stroke-miterlimit="10" stroke-linecap="round"/>
        <path d="M59.748 85.1895H84.7849" stroke="#515265" stroke-width="3.02286" stroke-miterlimit="10" stroke-linecap="round"/>
        <path d="M59.748 92.9355H93.1582" stroke="#515265" stroke-width="3.02286" stroke-miterlimit="10" stroke-linecap="round"/>
        <path d="M59.7471 77.4504H106.488" stroke="#515265" stroke-width="3.02286" stroke-miterlimit="10" stroke-linecap="round"/>
        <path d="M98.6234 50.5947L97.0218 43.9659H88.035L86.4779 50.5947H78.9148L88.213 19.7639H97.0663L106.364 50.5947H98.6234ZM89.2807 38.6717H95.7761L92.5284 25.0581L89.2807 38.6717ZM127.267 43.7434C127.267 44.6332 127.386 45.2857 127.623 45.7009C127.89 46.1162 128.305 46.4276 128.869 46.6352L127.401 51.2176C125.947 51.0989 124.761 50.7875 123.842 50.2833C122.922 49.7494 122.21 48.919 121.706 47.7919C120.164 50.1647 117.791 51.351 114.588 51.351C112.245 51.351 110.376 50.6689 108.982 49.3045C107.588 47.9402 106.891 46.1607 106.891 43.9659C106.891 41.3855 107.84 39.4132 109.739 38.0489C111.637 36.6845 114.38 36.0024 117.969 36.0024H120.372V34.9791C120.372 33.5851 120.075 32.636 119.482 32.1318C118.889 31.598 117.85 31.331 116.368 31.331C115.596 31.331 114.662 31.4497 113.565 31.6869C112.467 31.8946 111.34 32.1911 110.184 32.5767L108.582 27.9499C110.065 27.3863 111.578 26.9563 113.12 26.6597C114.692 26.3631 116.145 26.2148 117.48 26.2148C120.861 26.2148 123.337 26.9118 124.909 28.3058C126.481 29.6998 127.267 31.7907 127.267 34.5787V43.7434ZM116.634 46.3238C118.236 46.3238 119.482 45.5675 120.372 44.0549V39.8729H118.636C117.035 39.8729 115.834 40.1547 115.033 40.7182C114.262 41.2817 113.876 42.1567 113.876 43.343C113.876 44.2921 114.113 45.0336 114.588 45.5675C115.092 46.0717 115.774 46.3238 116.634 46.3238Z" fill="white"/>
        <path d="M68.9744 2.34066L43.008 28.307C42.8505 28.4689 42.7442 28.6737 42.7024 28.8957C42.6607 29.1177 42.6853 29.347 42.7732 29.5551C42.8611 29.7632 43.0084 29.9407 43.1967 30.0655C43.385 30.1903 43.6059 30.2568 43.8318 30.2568H66.9642C68.0164 30.2568 69.0256 29.8388 69.7696 29.0947C70.5137 28.3507 70.9317 27.3415 70.9317 26.2893V3.14928C70.9303 2.92314 70.8621 2.70246 70.7358 2.51488C70.6095 2.32731 70.4306 2.18119 70.2216 2.09484C70.0126 2.0085 69.7828 1.98576 69.5609 2.02949C69.339 2.07322 69.135 2.18147 68.9744 2.34066Z" fill="#B2B2BB"/>
        <path d="M68.9744 2.34066L43.008 28.307C42.8505 28.4689 42.7442 28.6737 42.7024 28.8957C42.6607 29.1177 42.6853 29.347 42.7732 29.5551C42.8611 29.7632 43.0084 29.9407 43.1967 30.0655C43.385 30.1903 43.6059 30.2568 43.8318 30.2568H66.9642C68.0164 30.2568 69.0256 29.8388 69.7696 29.0947C70.5137 28.3507 70.9317 27.3415 70.9317 26.2893V3.14928C70.9303 2.92314 70.8621 2.70246 70.7358 2.51488C70.6095 2.32731 70.4306 2.18119 70.2216 2.09484C70.0126 2.0085 69.7828 1.98576 69.5609 2.02949C69.339 2.07322 69.135 2.18147 68.9744 2.34066Z" stroke="#515265" stroke-width="3.02286" stroke-miterlimit="10" stroke-linecap="round"/>
    </g>
</svg>
