<svg width="121" height="136" viewBox="0 0 121 136" fill="none" xmlns="http://www.w3.org/2000/svg">
    <g opacity="0.4">
        <path opacity="0.12" d="M14.1366 32.7546C14.1974 28.9435 15.0816 25.1906 16.7288 21.7533C18.376 18.3161 20.7471 15.2757 23.6795 12.8407C29.6932 8.19531 38.6239 7.16901 45.0338 11.2562C46.9784 12.4986 48.6349 14.1191 50.5794 15.3434C56.7193 19.1966 64.7136 18.4043 71.6277 16.1897C78.5417 13.975 85.0957 10.536 92.2438 9.34766C99.3919 8.1593 107.728 9.92383 111.672 16.0276C115.615 22.1315 113.472 31.1161 107.8 35.8335C103.029 39.8487 96.0069 41.7033 93.3962 47.3749C92.4283 49.906 91.9872 52.6079 92.0998 55.3153C91.8117 63.0756 91.8117 71.268 96.385 77.4799C98.6584 80.1339 101.199 82.5473 103.965 84.682C109.853 89.9576 114.768 96.8176 114.949 105.046C115.041 107.693 114.517 110.325 113.418 112.734C109.259 121.737 99.7881 122.709 91.3976 122.079C84.9517 121.593 78.3797 120.387 72.1318 122.079C67.5945 123.285 63.5973 125.932 59.258 127.697C52.7805 130.306 45.6741 130.933 38.84 129.497C34.6531 128.764 30.7689 126.831 27.6586 123.934C21.4108 117.65 21.5008 107.513 23.0313 98.7262C24.5617 89.9396 27.0825 80.8649 24.3096 72.4384C23.6087 70.4275 22.6974 68.4962 21.5908 66.6767C15.6985 56.8223 13.0531 45.365 14.0286 33.9249L14.1366 32.7546Z" fill="#D8D9DD"/>
        <path d="M55.6889 76.9295C53.8128 74.6101 50.4116 74.2508 48.0922 76.127C45.7728 78.0032 45.4135 81.4044 47.2897 83.7238L85.7907 131.319C87.6668 133.639 91.068 133.998 93.3874 132.122C95.7068 130.246 96.0661 126.845 94.1899 124.525L55.6889 76.9295Z" fill="#8B8C98"/>
        <path d="M34.685 124.536C32.8092 126.856 33.169 130.257 35.4888 132.133C37.8085 134.009 41.2096 133.649 43.0854 131.329L81.578 83.7267C83.4538 81.407 83.0939 78.0059 80.7742 76.1301C78.4545 74.2543 75.0534 74.6142 73.1776 76.9339L34.685 124.536Z" fill="#8B8C98"/>
        <path d="M90.0084 135.097C88.9355 135.098 87.8759 134.859 86.9071 134.398C85.9382 133.937 85.0847 133.265 84.4087 132.432L45.8773 84.8617C45.206 84.1367 44.691 83.2812 44.3645 82.3486C44.038 81.4159 43.9069 80.4261 43.9793 79.4406C44.0518 78.4552 44.3263 77.4951 44.7857 76.6203C45.2451 75.7454 45.8796 74.9745 46.6498 74.3554C47.4199 73.7363 48.3092 73.2823 49.2624 73.0217C50.2155 72.761 51.2121 72.6993 52.1901 72.8403C53.1681 72.9814 54.1067 73.3222 54.9473 73.8415C55.788 74.3608 56.5128 75.0476 57.0766 75.8591L95.59 123.393C96.1865 124.128 96.6323 124.974 96.9017 125.881C97.1712 126.789 97.2591 127.74 97.1604 128.682C97.0618 129.623 96.7785 130.536 96.3267 131.368C95.875 132.2 95.2637 132.935 94.5277 133.53C93.2437 134.552 91.6493 135.105 90.0084 135.097ZM51.477 76.7233C50.7894 76.7071 50.1116 76.8881 49.5236 77.2449C48.9356 77.6017 48.4622 78.1194 48.1591 78.7368C47.8561 79.3542 47.7362 80.0455 47.8137 80.7288C47.8911 81.4122 48.1626 82.0591 48.5961 82.5931L87.1816 130.181C87.7813 130.923 88.651 131.397 89.5996 131.498C90.5482 131.599 91.4982 131.32 92.2411 130.721C92.9829 130.122 93.4564 129.252 93.5577 128.303C93.659 127.355 93.3797 126.405 92.7812 125.662L54.2858 78.0557C53.9469 77.6379 53.5186 77.3014 53.0326 77.0708C52.5465 76.8402 52.0149 76.7215 51.477 76.7233Z" fill="#515265"/>
        <path d="M38.8729 135.097C37.2276 135.095 35.6328 134.53 34.3536 133.495C32.8726 132.293 31.929 130.552 31.7298 128.655C31.5307 126.758 32.0922 124.859 33.2912 123.376L71.7687 75.7878C72.3325 74.9763 73.0573 74.2896 73.898 73.7702C74.7386 73.2509 75.6772 72.9101 76.6552 72.7691C77.6332 72.628 78.6298 72.6897 79.5829 72.9504C80.5361 73.211 81.4254 73.665 82.1955 74.2841C82.9657 74.9032 83.6002 75.6741 84.0596 76.549C84.519 77.4238 84.7935 78.3839 84.8659 79.3693C84.9384 80.3548 84.8073 81.3447 84.4808 82.2773C84.1543 83.2099 83.6393 84.0654 82.968 84.7905L44.4726 132.451C43.7949 133.281 42.9405 133.949 41.9718 134.407C41.0031 134.865 39.9444 135.101 38.8729 135.097ZM77.4043 76.7241C76.8664 76.7222 76.3348 76.841 75.8487 77.0715C75.3627 77.3021 74.9344 77.6387 74.5955 78.0565L35.992 125.663C35.3936 126.405 35.1143 127.355 35.2156 128.304C35.3168 129.253 35.7904 130.122 36.5322 130.722C37.2751 131.321 38.2251 131.6 39.1737 131.499C40.1223 131.397 40.9919 130.924 41.5917 130.182L80.1772 82.5938C80.6046 82.067 80.8745 81.4301 80.9558 80.7566C81.0371 80.0831 80.9265 79.4003 80.6367 78.7869C80.3469 78.1735 79.8898 77.6544 79.3179 77.2895C78.7461 76.9245 78.0827 76.7285 77.4043 76.7241Z" fill="#515265"/>
        <path d="M49.1577 9.33038L52.2546 7.25977L49.1577 9.33038Z" fill="#D8D9DD"/>
        <path d="M53.1558 7.25932C53.1637 7.41432 53.1313 7.56871 53.0619 7.70752C52.9925 7.84633 52.8884 7.96484 52.7597 8.05155L49.6628 10.0682C49.5646 10.1379 49.4537 10.1876 49.3364 10.2145C49.219 10.2414 49.0975 10.2449 48.9788 10.2249C48.8601 10.2048 48.7465 10.1616 48.6445 10.0976C48.5425 10.0336 48.4541 9.95022 48.3844 9.85209C48.3146 9.75396 48.2649 9.64306 48.238 9.52571C48.2111 9.40836 48.2076 9.28686 48.2277 9.16815C48.2477 9.04944 48.291 8.93585 48.3549 8.83385C48.4189 8.73186 48.5023 8.64346 48.6005 8.57371L51.6974 6.5211C51.831 6.4307 51.9864 6.37786 52.1474 6.3681C52.3085 6.35835 52.4691 6.39204 52.6127 6.46565C52.7562 6.53926 52.8774 6.65009 52.9634 6.78654C53.0494 6.923 53.0972 7.08006 53.1018 7.24131L53.1558 7.25932Z" fill="#D8D9DD"/>
        <path d="M49.6733 6.75488L51.7259 9.8338L49.6733 6.75488Z" fill="#D8D9DD"/>
        <path d="M52.629 9.79774C52.641 9.99661 52.5867 10.1939 52.4746 10.3586C52.3624 10.5233 52.1989 10.6461 52.0094 10.7079C51.82 10.7696 51.6155 10.7668 51.4278 10.6999C51.2402 10.6329 51.08 10.5056 50.9725 10.3379L48.9199 7.25898C48.8362 7.16316 48.7738 7.05068 48.7368 6.92898C48.6997 6.80727 48.6889 6.6791 48.705 6.55291C48.7211 6.42672 48.7638 6.30537 48.8302 6.19687C48.8966 6.08837 48.9852 5.99517 49.0903 5.92343C49.1954 5.85168 49.3144 5.80302 49.4397 5.78064C49.5649 5.75826 49.6934 5.76268 49.8168 5.7936C49.9402 5.82452 50.0557 5.88125 50.1556 5.96003C50.2555 6.03882 50.3375 6.13788 50.3963 6.25068L52.4489 9.3476C52.5498 9.47789 52.6122 9.63382 52.629 9.79774Z" fill="#D8D9DD"/>
        <path d="M23.3933 9.52784C23.4106 10.0145 23.2835 10.4953 23.028 10.9098C22.7725 11.3243 22.4 11.654 21.9575 11.8571C21.515 12.0603 21.0222 12.128 20.5413 12.0516C20.0604 11.9753 19.6128 11.7583 19.255 11.428C18.8972 11.0977 18.6452 10.6689 18.5306 10.1956C18.4161 9.72238 18.4442 9.22579 18.6114 8.76846C18.7786 8.31112 19.0774 7.9135 19.4702 7.6257C19.8629 7.33789 20.3321 7.17276 20.8186 7.15113C21.4747 7.12674 22.1138 7.36303 22.5962 7.80836C23.0787 8.25369 23.3652 8.87187 23.3933 9.52784ZM19.7923 9.67188C19.803 9.89156 19.8784 10.1032 20.009 10.2801C20.1396 10.4571 20.3196 10.5916 20.5263 10.6666C20.733 10.7417 20.9573 10.754 21.1711 10.702C21.3848 10.6501 21.5784 10.5361 21.7275 10.3745C21.8767 10.2129 21.9748 10.0108 22.0096 9.79363C22.0443 9.57645 22.0141 9.35385 21.9228 9.15376C21.8315 8.95368 21.6831 8.78503 21.4962 8.669C21.3094 8.55296 21.0924 8.4947 20.8726 8.50153C20.5749 8.51556 20.2946 8.64621 20.0925 8.86521C19.8903 9.08422 19.7825 9.37399 19.7923 9.67188Z" fill="#D8D9DD"/>
        <path d="M79.8816 9.09563C80.6268 9.06609 81.207 8.43803 81.1775 7.69281C81.1479 6.94759 80.5199 6.36741 79.7746 6.39695C79.0294 6.42649 78.4492 7.05456 78.4788 7.79978C78.5083 8.545 79.1364 9.12517 79.8816 9.09563Z" fill="#D8D9DD"/>
        <path d="M100.916 3.19009C100.754 3.10169 100.62 2.97147 100.526 2.81307C100.432 2.65468 100.382 2.47395 100.382 2.28983C100.382 2.10571 100.432 1.92498 100.526 1.76658C100.62 1.60819 100.754 1.47796 100.916 1.38956L101.87 0.777377L102.824 0.165196C102.981 0.0637544 103.162 0.00684509 103.348 0.000579749C103.535 -0.00568559 103.719 0.0389298 103.882 0.129634C104.045 0.220339 104.18 0.353705 104.273 0.51541C104.366 0.677115 104.413 0.861049 104.409 1.04746V2.18179V3.31613C104.416 3.49538 104.376 3.6734 104.293 3.83244C104.21 3.99147 104.087 4.12597 103.936 4.22252C103.785 4.31907 103.611 4.3743 103.432 4.3827C103.252 4.39111 103.074 4.35239 102.914 4.27041L101.906 3.65823L100.916 3.19009Z" fill="#D8D9DD"/>
        <path d="M115.453 69.2334L116.479 72.7985L115.453 69.2334Z" fill="#D8D9DD"/>
        <path d="M116.229 73.6813C116.079 73.6399 115.941 73.5601 115.831 73.4496C115.72 73.3391 115.64 73.2018 115.599 73.0511L114.591 69.45C114.526 69.2112 114.559 68.9566 114.683 68.7422C114.806 68.5278 115.009 68.3711 115.248 68.3067C115.487 68.2422 115.741 68.2752 115.956 68.3985C116.17 68.5217 116.327 68.7251 116.391 68.9639L117.4 72.5649C117.443 72.718 117.445 72.8799 117.406 73.0342C117.367 73.1884 117.287 73.3294 117.176 73.4429C117.064 73.5564 116.924 73.6382 116.771 73.6801C116.617 73.722 116.455 73.7224 116.301 73.6813H116.229Z" fill="#D8D9DD"/>
        <path d="M117.754 70.512L114.171 71.5203L117.754 70.512Z" fill="#D8D9DD"/>
        <path d="M113.938 72.4026C113.699 72.4026 113.47 72.3078 113.301 72.1389C113.132 71.9701 113.038 71.7411 113.038 71.5023C113.038 71.2636 113.132 71.0346 113.301 70.8657C113.47 70.6969 113.699 70.6021 113.938 70.6021L117.539 69.5938C117.778 69.5293 118.032 69.5623 118.247 69.6856C118.461 69.8088 118.618 70.0122 118.682 70.251C118.747 70.4897 118.714 70.7443 118.59 70.9587C118.467 71.1732 118.264 71.3298 118.025 71.3943L114.424 72.4026C114.265 72.4481 114.097 72.4481 113.938 72.4026Z" fill="#D8D9DD"/>
        <path d="M117.273 52.2734C116.799 52.1487 116.372 51.8866 116.047 51.5201C115.722 51.1535 115.512 50.699 115.444 50.2135C115.377 49.7281 115.454 49.2335 115.667 48.792C115.879 48.3504 116.218 47.9817 116.64 47.7321C117.062 47.4825 117.548 47.3632 118.037 47.3893C118.527 47.4153 118.997 47.5855 119.39 47.8785C119.783 48.1715 120.081 48.5741 120.245 49.0357C120.41 49.4974 120.435 49.9974 120.316 50.4729C120.236 50.792 120.094 51.0921 119.897 51.3557C119.701 51.6194 119.454 51.8414 119.17 52.0089C118.887 52.1764 118.574 52.286 118.248 52.3314C117.922 52.3768 117.591 52.3571 117.273 52.2734ZM118.245 48.7984C118.033 48.7396 117.808 48.7449 117.599 48.8136C117.39 48.8823 117.205 49.0114 117.069 49.1846C116.933 49.3578 116.851 49.5673 116.834 49.7869C116.817 50.0065 116.865 50.2262 116.972 50.4185C117.08 50.6108 117.242 50.767 117.438 50.8675C117.634 50.968 117.855 51.0083 118.074 50.9833C118.293 50.9584 118.499 50.8692 118.667 50.7271C118.836 50.585 118.958 50.3963 119.019 50.1848C119.087 49.9034 119.044 49.6069 118.9 49.3558C118.757 49.1048 118.522 48.9183 118.245 48.8344V48.7984Z" fill="#D8D9DD"/>
        <path d="M120.635 84.4416C120.836 83.7256 120.419 82.982 119.703 82.7806C118.987 82.5793 118.244 82.9964 118.042 83.7124C117.841 84.4284 118.258 85.172 118.974 85.3734C119.69 85.5748 120.434 85.1576 120.635 84.4416Z" fill="#D8D9DD"/>
        <path d="M9.41992 57.8008L11.0404 61.1318L9.41992 57.8008Z" fill="#D8D9DD"/>
        <path d="M10.9626 62.0326C10.8095 62.0171 10.6629 61.9626 10.5368 61.8744C10.4107 61.7861 10.3093 61.667 10.2424 61.5284L8.62192 58.1974C8.5699 58.091 8.53935 57.9754 8.53201 57.8572C8.52467 57.739 8.54068 57.6205 8.57914 57.5085C8.61759 57.3965 8.67773 57.2931 8.75613 57.2043C8.83453 57.1155 8.92964 57.0431 9.03604 56.9911C9.14244 56.939 9.25805 56.9085 9.37626 56.9011C9.49447 56.8938 9.61297 56.9098 9.72499 56.9483C9.83701 56.9867 9.94036 57.0469 10.0291 57.1253C10.1179 57.2037 10.1904 57.2988 10.2424 57.4052L11.8629 60.7362C11.9347 60.8806 11.9665 61.0417 11.9548 61.2026C11.9431 61.3635 11.8884 61.5182 11.7963 61.6507C11.7043 61.7832 11.5784 61.8886 11.4317 61.9558C11.2851 62.0229 11.123 62.0494 10.9626 62.0326Z" fill="#D8D9DD"/>
        <path d="M11.9071 58.6641L8.55811 60.2845L11.9071 58.6641Z" fill="#D8D9DD"/>
        <path d="M8.48283 61.1863C8.28591 61.1689 8.10017 61.0873 7.9543 60.9538C7.80843 60.8204 7.71052 60.6427 7.6757 60.4481C7.64088 60.2535 7.67107 60.0529 7.76163 59.8771C7.85218 59.7014 7.99806 59.5604 8.17674 59.4758L11.5077 57.8553C11.6141 57.8033 11.7297 57.7727 11.8479 57.7654C11.9662 57.7581 12.0847 57.7741 12.1967 57.8125C12.3087 57.851 12.412 57.9111 12.5008 57.9895C12.5896 58.0679 12.6621 58.163 12.7141 58.2694C12.7661 58.3758 12.7967 58.4915 12.804 58.6097C12.8113 58.7279 12.7953 58.8464 12.7569 58.9584C12.7184 59.0704 12.6583 59.1738 12.5799 59.2625C12.5015 59.3513 12.4064 59.4238 12.3 59.4758L8.98698 61.0963C8.83152 61.1755 8.65608 61.2068 8.48283 61.1863Z" fill="#D8D9DD"/>
        <path d="M13.2705 44.9089C12.786 44.8607 12.3265 44.6702 11.9501 44.3614C11.5736 44.0526 11.297 43.6392 11.155 43.1734C11.0131 42.7077 11.0121 42.2103 11.1523 41.744C11.2925 41.2777 11.5676 40.8633 11.9429 40.5531C12.3182 40.2428 12.7769 40.0506 13.2613 40.0006C13.7456 39.9506 14.234 40.0451 14.6647 40.2721C15.0955 40.4991 15.4494 40.8486 15.6819 41.2764C15.9144 41.7042 16.0151 42.1913 15.9713 42.6762C15.9075 43.3297 15.5876 43.9314 15.0815 44.3497C14.5754 44.7681 13.9243 44.9691 13.2705 44.9089ZM13.6126 41.3078C13.3932 41.2876 13.1727 41.3328 12.9789 41.4377C12.7851 41.5426 12.6267 41.7025 12.5236 41.8972C12.4206 42.092 12.3774 42.3129 12.3996 42.5321C12.4219 42.7513 12.5085 42.959 12.6486 43.1291C12.7886 43.2992 12.9759 43.4241 13.1868 43.4879C13.3977 43.5518 13.6228 43.5518 13.8337 43.4879C14.0446 43.4241 14.2318 43.2993 14.3719 43.1292C14.512 42.9592 14.5987 42.7514 14.6209 42.5322C14.6413 42.2398 14.5476 41.9509 14.3597 41.726C14.1717 41.5011 13.904 41.3577 13.6126 41.3258V41.3078Z" fill="#D8D9DD"/>
        <path d="M9.25408 77.7738C9.32439 77.0313 8.77949 76.3724 8.03701 76.3021C7.29453 76.2318 6.63562 76.7767 6.56531 77.5191C6.49499 78.2616 7.03989 78.9205 7.78237 78.9908C8.52486 79.0612 9.18376 78.5163 9.25408 77.7738Z" fill="#D8D9DD"/>
        <path d="M1.47722 89.3462C1.57932 89.1914 1.72144 89.0672 1.88848 88.9867C2.05552 88.9062 2.24124 88.8725 2.42591 88.8891C2.61058 88.9058 2.7873 88.9721 2.93729 89.0811C3.08728 89.1901 3.20493 89.3377 3.27775 89.5082L3.74589 90.5345L4.21403 91.5608C4.28679 91.724 4.3157 91.9033 4.2979 92.0811C4.2801 92.2588 4.21621 92.4289 4.11255 92.5744C4.00888 92.7199 3.86903 92.8358 3.70683 92.9106C3.54464 92.9855 3.3657 93.0168 3.18773 93.0013L2.05339 92.8932L0.919053 92.7852C0.742099 92.7666 0.573018 92.7023 0.428402 92.5987C0.283786 92.495 0.168603 92.3555 0.0941557 92.1939C0.0197084 92.0323 -0.0114458 91.8541 0.00375007 91.6769C0.018946 91.4996 0.07997 91.3293 0.180834 91.1827L0.829027 90.2645L1.47722 89.3462Z" fill="#D8D9DD"/>
        <path d="M26.6665 89.9933V32.1602H102.181V89.9933" fill="white"/>
        <path opacity="0.5" d="M28.6685 32.1062H100.438V39.3083H28.6685V32.1062Z" fill="#D8D9DD"/>
        <path d="M26.6833 91.8851C26.2058 91.8851 25.7478 91.6954 25.4102 91.3577C25.0725 91.02 24.8828 90.562 24.8828 90.0845V77.7869C24.8828 77.3093 25.0725 76.8514 25.4102 76.5137C25.7478 76.176 26.2058 75.9863 26.6833 75.9863C27.1609 75.9863 27.6189 76.176 27.9565 76.5137C28.2942 76.8514 28.4839 77.3093 28.4839 77.7869V90.0845C28.4839 90.562 28.2942 91.02 27.9565 91.3577C27.6189 91.6954 27.1609 91.8851 26.6833 91.8851Z" fill="#515265"/>
        <path d="M26.6833 62.77C26.2058 62.77 25.7478 62.5803 25.4102 62.2426C25.0725 61.9049 24.8828 61.447 24.8828 60.9694V32.1609C24.8828 31.6834 25.0725 31.2254 25.4102 30.8877C25.7478 30.55 26.2058 30.3604 26.6833 30.3604C27.1609 30.3604 27.6189 30.55 27.9565 30.8877C28.2942 31.2254 28.4839 31.6834 28.4839 32.1609V60.9694C28.4839 61.447 28.2942 61.9049 27.9565 62.2426C27.6189 62.5803 27.1609 62.77 26.6833 62.77Z" fill="#515265"/>
        <path d="M102.187 91.8839C101.71 91.8839 101.252 91.6942 100.914 91.3565C100.576 91.0188 100.387 90.5609 100.387 90.0833V55.9812C100.387 55.5037 100.576 55.0457 100.914 54.708C101.252 54.3704 101.71 54.1807 102.187 54.1807C102.665 54.1807 103.123 54.3704 103.46 54.708C103.798 55.0457 103.988 55.5037 103.988 55.9812V90.0833C103.988 90.5609 103.798 91.0188 103.46 91.3565C103.123 91.6942 102.665 91.8839 102.187 91.8839Z" fill="#515265"/>
        <path d="M102.187 46.133C101.71 46.133 101.252 45.9433 100.914 45.6057C100.576 45.268 100.387 44.81 100.387 44.3325V32.1609C100.387 31.6834 100.576 31.2254 100.914 30.8877C101.252 30.55 101.71 30.3604 102.187 30.3604C102.665 30.3604 103.123 30.55 103.46 30.8877C103.798 31.2254 103.988 31.6834 103.988 32.1609V44.3325C103.988 44.81 103.798 45.268 103.46 45.6057C103.123 45.9433 102.665 46.133 102.187 46.133Z" fill="#515265"/>
        <path d="M110.233 32.1605H18.6393C17.7952 32.1605 16.9593 31.9942 16.1795 31.6712C15.3996 31.3482 14.691 30.8747 14.0941 30.2778C13.4972 29.6809 13.0238 28.9723 12.7007 28.1924C12.3777 27.4126 12.2114 26.5767 12.2114 25.7326C12.2114 24.8885 12.3777 24.0526 12.7007 23.2727C13.0238 22.4929 13.4972 21.7843 14.0941 21.1874C14.691 20.5905 15.3996 20.117 16.1795 19.794C16.9593 19.471 17.7952 19.3047 18.6393 19.3047H110.233C111.937 19.3047 113.572 19.9819 114.778 21.1874C115.983 22.3928 116.66 24.0278 116.66 25.7326C116.66 27.4374 115.983 29.0723 114.778 30.2778C113.572 31.4833 111.937 32.1605 110.233 32.1605Z" fill="#F0F0F6"/>
        <path d="M116.642 24.1298H12.2114C12.2114 22.425 12.8887 20.7901 14.0941 19.5846C15.2996 18.3791 16.9345 17.7019 18.6393 17.7019H110.233C111.934 17.7067 113.565 18.386 114.766 19.5909C115.968 20.7959 116.642 22.4281 116.642 24.1298Z" fill="#D8D9DD"/>
        <path d="M110.226 33.9608H18.6332C16.4509 33.9608 14.358 33.0939 12.8148 31.5507C11.2717 30.0076 10.4048 27.9147 10.4048 25.7324C10.4048 23.55 11.2717 21.4571 12.8148 19.914C14.358 18.3708 16.4509 17.5039 18.6332 17.5039H31.237C31.7145 17.5039 32.1725 17.6936 32.5101 18.0313C32.8478 18.3689 33.0375 18.8269 33.0375 19.3044C33.0375 19.782 32.8478 20.2399 32.5101 20.5776C32.1725 20.9153 31.7145 21.105 31.237 21.105H18.6332C17.406 21.105 16.229 21.5925 15.3612 22.4603C14.4934 23.3281 14.0059 24.5051 14.0059 25.7324C14.0059 26.9596 14.4934 28.1366 15.3612 29.0044C16.229 29.8722 17.406 30.3597 18.6332 30.3597H110.226C111.454 30.3597 112.631 29.8722 113.498 29.0044C114.366 28.1366 114.854 26.9596 114.854 25.7324C114.854 24.5051 114.366 23.3281 113.498 22.4603C112.631 21.5925 111.454 21.105 110.226 21.105H40.0056C39.528 21.105 39.0701 20.9153 38.7324 20.5776C38.3947 20.2399 38.205 19.782 38.205 19.3044C38.205 18.8269 38.3947 18.3689 38.7324 18.0313C39.0701 17.6936 39.528 17.5039 40.0056 17.5039H110.226C112.409 17.5039 114.502 18.3708 116.045 19.914C117.588 21.4571 118.455 23.55 118.455 25.7324C118.455 27.9147 117.588 30.0076 116.045 31.5507C114.502 33.0939 112.409 33.9608 110.226 33.9608Z" fill="#515265"/>
        <path d="M110.233 102.85H18.6393C16.9345 102.85 15.2996 102.173 14.0941 100.967C12.8887 99.7618 12.2114 98.1268 12.2114 96.422C12.2114 94.7173 12.8887 93.0823 14.0941 91.8768C15.2996 90.6714 16.9345 89.9941 18.6393 89.9941H110.233C111.937 89.9941 113.572 90.6714 114.778 91.8768C115.983 93.0823 116.66 94.7173 116.66 96.422C116.66 98.1268 115.983 99.7618 114.778 100.967C113.572 102.173 111.937 102.85 110.233 102.85Z" fill="#F0F0F6"/>
        <path d="M116.642 96.4219H12.2114C12.2351 94.7327 12.9227 93.1208 14.1257 91.9347C15.3286 90.7487 16.95 90.0838 18.6393 90.084H110.233C111.919 90.0885 113.536 90.7555 114.735 91.941C115.934 93.1266 116.619 94.7358 116.642 96.4219Z" fill="#D8D9DD"/>
        <path d="M110.226 104.65H102.196C101.718 104.65 101.261 104.46 100.923 104.123C100.585 103.785 100.396 103.327 100.396 102.849C100.396 102.372 100.585 101.914 100.923 101.576C101.261 101.239 101.718 101.049 102.196 101.049H110.226C111.454 101.049 112.631 100.561 113.498 99.6936C114.366 98.8258 114.854 97.6488 114.854 96.4216C114.854 95.1943 114.366 94.0173 113.498 93.1495C112.631 92.2817 111.454 91.7942 110.226 91.7942H18.6332C17.406 91.7942 16.229 92.2817 15.3612 93.1495C14.4934 94.0173 14.0059 95.1943 14.0059 96.4216C14.0059 97.6488 14.4934 98.8258 15.3612 99.6936C16.229 100.561 17.406 101.049 18.6332 101.049H89.7723C90.2499 101.049 90.7078 101.239 91.0455 101.576C91.3832 101.914 91.5729 102.372 91.5729 102.849C91.5729 103.327 91.3832 103.785 91.0455 104.123C90.7078 104.46 90.2499 104.65 89.7723 104.65H18.6332C16.4509 104.65 14.358 103.783 12.8148 102.24C11.2717 100.697 10.4048 98.6039 10.4048 96.4216C10.4048 94.2392 11.2717 92.1463 12.8148 90.6032C14.358 89.06 16.4509 88.1931 18.6332 88.1931H110.226C112.409 88.1931 114.502 89.06 116.045 90.6032C117.588 92.1463 118.455 94.2392 118.455 96.4216C118.455 98.6039 117.588 100.697 116.045 102.24C114.502 103.783 112.409 104.65 110.226 104.65Z" fill="#515265"/>
        <path d="M86.4052 51.9123H41.3918C40.9143 51.9123 40.4563 51.7227 40.1187 51.385C39.781 51.0473 39.5913 50.5893 39.5913 50.1118C39.5913 49.6343 39.781 49.1763 40.1187 48.8386C40.4563 48.501 40.9143 48.3113 41.3918 48.3113H86.4052C86.8827 48.3113 87.3407 48.501 87.6784 48.8386C88.016 49.1763 88.2057 49.6343 88.2057 50.1118C88.2057 50.5893 88.016 51.0473 87.6784 51.385C87.3407 51.7227 86.8827 51.9123 86.4052 51.9123Z" fill="#515265"/>
        <path d="M57.5967 63.6157H41.3918C40.9143 63.6157 40.4563 63.426 40.1187 63.0884C39.781 62.7507 39.5913 62.2927 39.5913 61.8152C39.5913 61.3377 39.781 60.8797 40.1187 60.542C40.4563 60.2043 40.9143 60.0146 41.3918 60.0146H57.5967C58.0742 60.0146 58.5322 60.2043 58.8698 60.542C59.2075 60.8797 59.3972 61.3377 59.3972 61.8152C59.3972 62.2927 59.2075 62.7507 58.8698 63.0884C58.5322 63.426 58.0742 63.6157 57.5967 63.6157Z" fill="#515265"/>
        <path d="M72.0009 75.3188H41.3918C40.9143 75.3188 40.4563 75.1291 40.1187 74.7915C39.781 74.4538 39.5913 73.9958 39.5913 73.5183C39.5913 73.0408 39.781 72.5828 40.1187 72.2451C40.4563 71.9075 40.9143 71.7178 41.3918 71.7178H72.0009C72.4785 71.7178 72.9364 71.9075 73.2741 72.2451C73.6118 72.5828 73.8015 73.0408 73.8015 73.5183C73.8015 73.9958 73.6118 74.4538 73.2741 74.7915C72.9364 75.1291 72.4785 75.3188 72.0009 75.3188Z" fill="#515265"/>
    </g>
</svg>
